<svg width="46" height="45" viewBox="0 0 46 45" fill="none" xmlns="http://www.w3.org/2000/svg">
<path d="M34.6679 31.1621L26.834 20.5089V10.1429H29.0008V8H16.0003V10.1429H18.167V20.5089L10.3331 31.1621C9.86061 31.8044 9.57696 32.5634 9.51358 33.3552C9.45019 34.1471 9.60955 34.9408 9.97401 35.6486C10.3385 36.3564 10.8938 36.9506 11.5786 37.3657C12.2634 37.7807 13.051 38.0002 13.8541 38H31.1459C31.949 38.0002 32.7366 37.7807 33.4214 37.3657C34.1062 36.9506 34.6615 36.3564 35.026 35.6486C35.3904 34.9408 35.5498 34.1471 35.4864 33.3552C35.423 32.5634 35.1394 31.8044 34.6669 31.1621M20.3338 21.2054V10.1429H24.6673V21.2054L27.5632 25.1429H17.4379L20.3338 21.2054ZM31.147 35.8571H13.8552C13.452 35.8567 13.0567 35.7461 12.713 35.5375C12.3693 35.329 12.0906 35.0305 11.9075 34.6752C11.7245 34.3198 11.6443 33.9214 11.6758 33.5238C11.7073 33.1262 11.8493 32.745 12.086 32.4221L15.8627 27.2857H29.1384L32.9161 32.4221C33.1529 32.745 33.2948 33.1262 33.3263 33.5238C33.3578 33.9214 33.2777 34.3198 33.0946 34.6752C32.9116 35.0305 32.6329 35.329 32.2892 35.5375C31.9455 35.7461 31.5502 35.8567 31.147 35.8571Z" fill="#939393"/>
</svg>
