<svg width="427" height="146" viewBox="0 0 427 146" fill="none" xmlns="http://www.w3.org/2000/svg">
<path d="M45.0692 131C45.0692 133.945 47.457 136.333 50.4025 136.333C53.348 136.333 55.7359 133.945 55.7359 131C55.7359 128.054 53.348 125.667 50.4025 125.667C47.457 125.667 45.0692 128.054 45.0692 131ZM44.9026 15.4999L45.0348 14.5086L44.9026 15.4999ZM254.903 126L254.706 125.019L254.903 126ZM197.903 66.9998L197.713 67.9817L197.903 66.9998ZM114.903 59.4998L115.451 58.6633L114.903 59.4998ZM220.903 46.4998L221.364 45.6126C221.344 45.6023 221.324 45.5927 221.304 45.5838L220.903 46.4998ZM385.403 126L384.482 126.39L385.403 126ZM407.403 66.9998L408.331 66.6284L407.403 66.9998ZM416.069 97.5C416.069 100.446 418.457 102.833 421.403 102.833C424.348 102.833 426.736 100.446 426.736 97.5C426.736 94.5545 424.348 92.1667 421.403 92.1667C418.457 92.1667 416.069 94.5545 416.069 97.5ZM48.8129 129.579C48.2768 129.446 47.7345 129.773 47.6015 130.309C47.4685 130.845 47.7952 131.387 48.3312 131.52L48.8129 129.579ZM44.6462 130.592C45.1814 130.729 45.726 130.406 45.8627 129.87C45.9994 129.335 45.6764 128.791 45.1413 128.654L44.6462 130.592ZM41.48 127.706C40.9458 127.566 40.3991 127.886 40.259 128.42C40.1189 128.954 40.4384 129.501 40.9726 129.641L41.48 127.706ZM37.3056 128.667C37.8389 128.81 38.3876 128.494 38.5312 127.961C38.6747 127.428 38.3588 126.879 37.8255 126.735L37.3056 128.667ZM34.1765 125.74C33.6443 125.592 33.0934 125.905 32.9461 126.437C32.7988 126.969 33.1109 127.52 33.6432 127.667L34.1765 125.74ZM29.9871 126.64C30.5182 126.792 31.0716 126.484 31.2231 125.953C31.3747 125.422 31.067 124.869 30.5359 124.717L29.9871 126.64ZM26.9061 123.663C26.3765 123.507 25.8202 123.809 25.6636 124.339C25.5069 124.868 25.8093 125.425 26.3389 125.581L26.9061 123.663ZM22.7014 124.482C23.2291 124.646 23.789 124.35 23.9521 123.822C24.1151 123.295 23.8195 122.735 23.2918 122.572L22.7014 124.482ZM19.6967 121.43C19.1718 121.258 18.6071 121.545 18.4353 122.069C18.2635 122.594 18.5498 123.159 19.0747 123.331L19.6967 121.43ZM15.4603 122.102C15.9807 122.286 16.5525 122.014 16.7374 121.494C16.9223 120.974 16.6504 120.402 16.13 120.217L15.4603 122.102ZM12.628 118.892C12.1167 118.683 11.5329 118.928 11.3241 119.439C11.1152 119.951 11.3603 120.534 11.8716 120.743L12.628 118.892ZM8.31781 119.061C8.79382 119.341 9.40674 119.182 9.68679 118.706C9.96685 118.23 9.808 117.617 9.33199 117.337L8.31781 119.061ZM7.83817 114.994C7.71258 114.456 7.17479 114.122 6.63697 114.247C6.09915 114.373 5.76498 114.911 5.89056 115.449L7.83817 114.994ZM5.14947 111.673C5.2439 112.217 5.76157 112.582 6.30572 112.487C6.84988 112.393 7.21445 111.875 7.12002 111.331L5.14947 111.673ZM6.51895 107.618C6.43567 107.072 5.92557 106.696 5.3796 106.78C4.83363 106.863 4.45854 107.373 4.54181 107.919L6.51895 107.618ZM3.99297 104.157C4.06956 104.704 4.57504 105.085 5.12199 105.008C5.66893 104.932 6.05023 104.426 5.97364 103.879L3.99297 104.157ZM5.46795 100.142C5.39623 99.5944 4.89417 99.2086 4.34656 99.2803C3.79895 99.352 3.41316 99.8541 3.48488 100.402L5.46795 100.142ZM3.00697 96.643C3.07468 97.1911 3.5739 97.5805 4.12202 97.5128C4.67014 97.4451 5.05959 96.9459 4.99189 96.3978L3.00697 96.643ZM4.54132 92.6476C4.47721 92.0991 3.98055 91.7063 3.432 91.7704C2.88345 91.8345 2.49073 92.3312 2.55484 92.8798L4.54132 92.6476ZM2.12681 89.1148C2.18748 89.6637 2.68167 90.0595 3.23061 89.9989C3.77956 89.9382 4.17538 89.444 4.1147 88.8951L2.12681 89.1148ZM3.71167 85.1405C3.65447 84.5912 3.1628 84.1922 2.61348 84.2494C2.06417 84.3066 1.66523 84.7983 1.72242 85.3476L3.71167 85.1405ZM1.34265 81.5786C1.39613 82.1283 1.8851 82.5306 2.43479 82.4771C2.98448 82.4236 3.38673 81.9346 3.33325 81.3849L1.34265 81.5786ZM2.98137 77.6231C2.93209 77.073 2.44621 76.667 1.89613 76.7163C1.34604 76.7656 0.940066 77.2514 0.989347 77.8015L2.98137 77.6231ZM0.66809 74.0281C0.712326 74.5787 1.19446 74.9891 1.74497 74.9448C2.29548 74.9006 2.7059 74.4185 2.66166 73.8679L0.66809 74.0281ZM2.3807 70.1042C2.34305 69.5533 1.86585 69.1371 1.31485 69.1748C0.76385 69.2124 0.347699 69.6896 0.385351 70.2406L2.3807 70.1042ZM0.156552 66.4418C0.184593 66.9934 0.654462 67.4178 1.20603 67.3898C1.75761 67.3617 2.18201 66.8919 2.15397 66.3403L0.156552 66.4418ZM2.01452 62.5906C2.00354 62.0384 1.54701 61.5997 0.994838 61.6107C0.442663 61.6216 0.00393629 62.0782 0.0149156 62.6303L2.01452 62.5906ZM0.073182 58.752C0.0332768 59.3029 0.447472 59.7818 0.998314 59.8217C1.54915 59.8616 2.02805 59.4474 2.06795 58.8965L0.073182 58.752ZM3.246 56.0435C3.57571 55.6005 3.4838 54.974 3.04072 54.6443C2.59765 54.3146 1.97119 54.4065 1.64149 54.8496L3.246 56.0435ZM4.03282 51.824C3.68227 52.2508 3.74406 52.8809 4.17083 53.2314C4.59759 53.582 5.22774 53.5202 5.57829 53.0934L4.03282 51.824ZM8.01067 50.1962C8.3696 49.7765 8.32028 49.1452 7.90053 48.7863C7.48078 48.4274 6.84954 48.4767 6.49061 48.8964L8.01067 50.1962ZM8.99467 46.0097C8.63006 46.4246 8.67077 47.0564 9.08559 47.421C9.50041 47.7856 10.1323 47.7449 10.4969 47.3301L8.99467 46.0097ZM13.0191 44.4938C13.3884 44.0832 13.3549 43.4509 12.9443 43.0816C12.5336 42.7123 11.9014 42.7458 11.5321 43.1564L13.0191 44.4938ZM14.0932 40.339C13.7195 40.7457 13.7463 41.3783 14.1531 41.7519C14.5598 42.1255 15.1924 42.0987 15.566 41.692L14.0932 40.339ZM18.149 38.9098C18.527 38.5071 18.5068 37.8742 18.1041 37.4963C17.7014 37.1184 17.0685 37.1385 16.6906 37.5412L18.149 38.9098ZM19.3139 34.7764C18.9315 35.1748 18.9446 35.8079 19.3431 36.1903C19.7416 36.5727 20.3746 36.5596 20.757 36.1611L19.3139 34.7764ZM23.3974 33.4425C23.7847 33.0488 23.7794 32.4156 23.3857 32.0283C22.9919 31.6411 22.3588 31.6463 21.9715 32.0401L23.3974 33.4425ZM24.6679 29.3361C24.2751 29.7243 24.2714 30.3575 24.6596 30.7503C25.0478 31.1431 25.681 31.1468 26.0738 30.7586L24.6679 29.3361ZM28.786 28.1219C29.1854 27.7405 29.1999 27.1075 28.8185 26.7081C28.437 26.3087 27.804 26.2942 27.4046 26.6756L28.786 28.1219ZM30.2011 24.0597C29.7935 24.4324 29.7652 25.0649 30.1379 25.4725C30.5106 25.8801 31.1431 25.9083 31.5507 25.5356L30.2011 24.0597ZM34.3634 23.0345C34.7818 22.674 34.8288 22.0426 34.4683 21.6242C34.1078 21.2058 33.4763 21.1588 33.0579 21.5193L34.3634 23.0345ZM36.0234 19.0689C35.5893 19.4103 35.5142 20.039 35.8556 20.4731C36.197 20.9072 36.8257 20.9823 37.2598 20.6409L36.0234 19.0689ZM40.2597 18.4502C40.7201 18.1452 40.8461 17.5247 40.5411 17.0643C40.2361 16.6039 39.6156 16.4779 39.1552 16.7829L40.2597 18.4502ZM42.7088 14.8707C42.1904 15.0612 41.9246 15.6358 42.1151 16.1542C42.3056 16.6726 42.8802 16.9384 43.3986 16.748L42.7088 14.8707ZM45.9178 17.2254C46.2636 17.6561 46.893 17.7249 47.3236 17.3792C47.7543 17.0335 47.8232 16.404 47.4775 15.9734L45.9178 17.2254ZM49.2872 20.3287C49.1659 19.7899 48.6307 19.4516 48.0919 19.5729C47.5531 19.6943 47.2147 20.2294 47.3361 20.7682L49.2872 20.3287ZM47.9578 24.9021C48.011 25.4518 48.4998 25.8543 49.0495 25.8011C49.5992 25.7478 50.0017 25.2591 49.9485 24.7094L47.9578 24.9021ZM50.2323 29.0709C50.2104 28.519 49.7452 28.0895 49.1934 28.1114C48.6415 28.1333 48.2119 28.5985 48.2339 29.1503L50.2323 29.0709ZM48.3337 33.4254C48.3392 33.9776 48.7915 34.4208 49.3437 34.4152C49.896 34.4096 50.3391 33.9574 50.3335 33.4051L48.3337 33.4254ZM50.3422 37.7291C50.3444 37.1768 49.8984 36.7273 49.3462 36.7251C48.7939 36.7229 48.3444 37.1688 48.3422 37.7211L50.3422 37.7291ZM48.3169 42.0307C48.3138 42.5829 48.7589 43.0332 49.3112 43.0363C49.8635 43.0395 50.3137 42.5943 50.3169 42.042L48.3169 42.0307ZM50.3136 46.3324C50.3097 45.7801 49.8588 45.3356 49.3066 45.3395C48.7543 45.3434 48.3098 45.7943 48.3137 46.3466L50.3136 46.3324ZM48.4156 50.6967C48.4411 51.2484 48.909 51.675 49.4607 51.6495C50.0124 51.624 50.4389 51.1561 50.4134 50.6044L48.4156 50.6967ZM50.8109 54.772C50.7151 54.2281 50.1964 53.8649 49.6525 53.9608C49.1086 54.0567 48.7454 54.5753 48.8413 55.1192L50.8109 54.772ZM50.188 59.1055C50.3767 59.6246 50.9504 59.8924 51.4695 59.7037C51.9885 59.515 52.2563 58.9413 52.0677 58.4222L50.188 59.1055ZM53.1521 62.2086C53.0297 61.6701 52.4939 61.3327 51.9553 61.4551C51.4168 61.5775 51.0794 62.1133 51.2018 62.6519L53.1521 62.2086ZM52.0629 66.4196C52.2124 66.9512 52.7646 67.261 53.2963 67.1114C53.8279 66.9619 54.1377 66.4097 53.9882 65.878L52.0629 66.4196ZM55.4964 68.7354C55.0944 68.3566 54.4615 68.3755 54.0828 68.7774C53.704 69.1794 53.7229 69.8123 54.1248 70.191L55.4964 68.7354ZM57.8547 72.0511C58.3808 72.219 58.9434 71.9285 59.1113 71.4023C59.2791 70.8762 58.9887 70.3136 58.4625 70.1457L57.8547 72.0511ZM62.3346 71.3444C61.8063 71.1837 61.2476 71.4817 61.0869 72.0101C60.9262 72.5385 61.2243 73.0971 61.7526 73.2578L62.3346 71.3444ZM65.5596 74.4061C66.0886 74.5646 66.646 74.2643 66.8046 73.7352C66.9631 73.2062 66.6627 72.6488 66.1337 72.4903L65.5596 74.4061ZM69.8839 73.609C69.3545 73.4517 68.7978 73.7533 68.6405 74.2827C68.4832 74.8121 68.7848 75.3688 69.3142 75.5261L69.8839 73.609ZM73.0924 76.6455C73.622 76.802 74.1782 76.4995 74.3347 75.9698C74.4912 75.4402 74.1887 74.884 73.6591 74.7275L73.0924 76.6455ZM77.494 75.858C76.9641 75.7021 76.4083 76.0053 76.2524 76.5351C76.0965 77.065 76.3997 77.6208 76.9295 77.7767L77.494 75.858ZM80.7485 78.8983C81.2785 79.0537 81.8341 78.75 81.9895 78.22C82.1449 77.6901 81.8412 77.1345 81.3112 76.9791L80.7485 78.8983ZM85.0856 78.0841C84.5555 77.9291 84.0001 78.2332 83.8451 78.7633C83.6901 79.2934 83.9942 79.8488 84.5243 80.0037L85.0856 78.0841ZM88.3989 81.1351C88.9291 81.2897 89.4842 80.9853 89.6389 80.4551C89.7935 79.9249 89.489 79.3697 88.9588 79.2151L88.3989 81.1351ZM92.7045 80.3063C92.1742 80.1519 91.6192 80.4567 91.4649 80.987C91.3106 81.5173 91.6154 82.0723 92.1457 82.2266L92.7045 80.3063ZM96.0019 83.3477C96.5323 83.5017 97.0871 83.1966 97.2411 82.6663C97.3952 82.1359 97.0901 81.5811 96.5597 81.427L96.0019 83.3477ZM100.327 82.5202C99.7968 82.3665 99.2421 82.6718 99.0883 83.2023C98.9345 83.7327 99.2399 84.2874 99.7703 84.4412L100.327 82.5202ZM103.622 85.5568C104.152 85.7103 104.707 85.4047 104.86 84.8742C105.014 84.3437 104.708 83.7892 104.178 83.6356L103.622 85.5568ZM107.951 84.7267C107.42 84.5734 106.866 84.8792 106.712 85.4098C106.559 85.9404 106.865 86.4948 107.396 86.6481L107.951 84.7267ZM111.25 87.761C111.781 87.9141 112.335 87.6081 112.488 87.0774C112.641 86.5468 112.335 85.9925 111.805 85.8394L111.25 87.761ZM115.577 86.927C115.046 86.7741 114.492 87.0804 114.339 87.6111C114.186 88.1418 114.492 88.6959 115.023 88.8488L115.577 86.927ZM118.86 89.9533C119.39 90.106 119.944 89.7995 120.097 89.2687C120.25 88.738 119.943 88.1839 119.413 88.0313L118.86 89.9533ZM123.207 89.122C122.676 88.9695 122.122 89.2762 121.97 89.807C121.817 90.3378 122.124 90.8917 122.655 91.0442L123.207 89.122ZM126.474 92.1409C127.005 92.2932 127.559 91.9863 127.711 91.4554C127.864 90.9245 127.557 90.3707 127.026 90.2184L126.474 92.1409ZM130.84 91.3118C130.309 91.1597 129.755 91.4668 129.603 91.9977C129.451 92.5286 129.758 93.0824 130.289 93.2345L130.84 91.3118ZM134.098 94.325C134.629 94.4769 135.183 94.1696 135.335 93.6386C135.486 93.1076 135.179 92.554 134.648 92.4021L134.098 94.325ZM138.474 93.4958C137.943 93.3441 137.389 93.6516 137.237 94.1826C137.086 94.7137 137.393 95.2672 137.924 95.4189L138.474 93.4958ZM141.729 96.5051C142.26 96.6567 142.813 96.349 142.965 95.8179C143.116 95.2868 142.809 94.7334 142.278 94.5819L141.729 96.5051ZM146.1 95.6717C145.569 95.5203 145.015 95.8282 144.864 96.3594C144.713 96.8905 145.021 97.4438 145.552 97.5951L146.1 95.6717ZM149.364 98.6805C149.895 98.8316 150.448 98.5235 150.599 97.9923C150.75 97.4611 150.442 96.9079 149.911 96.7568L149.364 98.6805ZM153.726 97.8414C153.195 97.6905 152.642 97.9988 152.491 98.5301C152.34 99.0613 152.648 99.6144 153.18 99.7653L153.726 97.8414ZM156.998 100.849C157.53 101 158.083 100.692 158.233 100.16C158.384 99.6289 158.076 99.076 157.544 98.9253L156.998 100.849ZM161.36 100.007C160.829 99.8565 160.276 100.165 160.126 100.697C159.975 101.228 160.284 101.781 160.815 101.931L161.36 100.007ZM164.628 103.01C165.16 103.161 165.712 102.852 165.862 102.32C166.013 101.789 165.704 101.236 165.172 101.086L164.628 103.01ZM168.998 102.167C168.467 102.017 167.914 102.326 167.764 102.857C167.614 103.389 167.923 103.941 168.455 104.091L168.998 102.167ZM172.264 105.166C172.795 105.316 173.348 105.006 173.498 104.475C173.647 103.943 173.338 103.391 172.806 103.241L172.264 105.166ZM176.635 104.319C176.103 104.169 175.551 104.479 175.401 105.011C175.252 105.542 175.561 106.094 176.093 106.244L176.635 104.319ZM179.909 107.316C180.441 107.466 180.993 107.156 181.142 106.624C181.291 106.092 180.981 105.54 180.45 105.391L179.909 107.316ZM184.267 106.461C183.735 106.312 183.183 106.623 183.034 107.155C182.885 107.686 183.196 108.238 183.727 108.387L184.267 106.461ZM187.557 109.459C188.089 109.608 188.641 109.297 188.789 108.765C188.938 108.233 188.627 107.682 188.096 107.533L187.557 109.459ZM191.894 108.593C191.362 108.445 190.811 108.756 190.662 109.288C190.514 109.82 190.825 110.372 191.357 110.52L191.894 108.593ZM195.206 111.592C195.738 111.74 196.29 111.429 196.438 110.897C196.586 110.365 196.274 109.813 195.742 109.665L195.206 111.592ZM199.527 110.717C198.995 110.569 198.444 110.881 198.297 111.413C198.149 111.945 198.461 112.496 198.993 112.644L199.527 110.717ZM202.856 113.714C203.389 113.861 203.939 113.549 204.087 113.017C204.234 112.484 203.922 111.934 203.389 111.786L202.856 113.714ZM207.178 112.833C206.646 112.686 206.095 112.998 205.949 113.531C205.802 114.063 206.115 114.614 206.647 114.761L207.178 112.833ZM210.51 115.823C211.042 115.969 211.593 115.656 211.739 115.124C211.885 114.591 211.572 114.041 211.039 113.895L210.51 115.823ZM214.827 114.932C214.294 114.787 213.744 115.1 213.598 115.633C213.453 116.166 213.766 116.716 214.299 116.861L214.827 114.932ZM218.17 117.917C218.703 118.062 219.252 117.748 219.397 117.215C219.542 116.682 219.228 116.132 218.695 115.987L218.17 117.917ZM222.465 117.01C221.932 116.866 221.383 117.181 221.238 117.714C221.094 118.247 221.41 118.796 221.943 118.94L222.465 117.01ZM225.837 119.99C226.37 120.133 226.919 119.817 227.062 119.284C227.205 118.75 226.889 118.202 226.355 118.059L225.837 119.99ZM230.148 119.073C229.614 118.931 229.066 119.248 228.924 119.782C228.782 120.316 229.099 120.864 229.633 121.006L230.148 119.073ZM233.49 122.028C234.025 122.169 234.572 121.85 234.712 121.316C234.853 120.782 234.534 120.235 234 120.094L233.49 122.028ZM237.862 121.105C237.327 120.966 236.781 121.287 236.642 121.821C236.503 122.356 236.824 122.902 237.359 123.041L237.862 121.105ZM241.174 124.023C241.709 124.159 242.253 123.836 242.39 123.301C242.526 122.766 242.203 122.221 241.668 122.085L241.174 124.023ZM245.455 123.036C244.919 122.904 244.377 123.231 244.245 123.767C244.112 124.304 244.439 124.846 244.976 124.978L245.455 123.036ZM248.851 125.911C249.389 126.036 249.927 125.701 250.052 125.163C250.177 124.625 249.842 124.088 249.304 123.963L248.851 125.911ZM253.242 124.809C252.699 124.709 252.177 125.068 252.077 125.612C251.977 126.155 252.337 126.676 252.88 126.776L253.242 124.809ZM256.59 126.777C257.14 126.732 257.55 126.249 257.504 125.698C257.459 125.148 256.976 124.738 256.426 124.784L256.59 126.777ZM259.695 124.659C259.144 124.686 258.719 125.156 258.746 125.708C258.774 126.259 259.243 126.684 259.795 126.656L259.695 124.659ZM263.482 125.353C263.855 124.946 263.828 124.313 263.42 123.94C263.013 123.567 262.381 123.594 262.007 124.002L263.482 125.353ZM262.54 121.645C262.554 122.197 263.012 122.633 263.565 122.62C264.117 122.606 264.553 122.147 264.539 121.595L262.54 121.645ZM263.474 117.717C263.178 117.25 262.56 117.112 262.094 117.408C261.628 117.703 261.489 118.321 261.785 118.788L263.474 117.717ZM259.517 115.892C259.883 116.306 260.515 116.344 260.929 115.978C261.342 115.612 261.38 114.98 261.014 114.566L259.517 115.892ZM258.311 111.701C257.922 111.309 257.289 111.307 256.897 111.696C256.504 112.085 256.502 112.718 256.891 113.11L258.311 111.701ZM254.167 110.454C254.568 110.833 255.2 110.816 255.58 110.416C255.96 110.015 255.943 109.382 255.542 109.002L254.167 110.454ZM252.687 106.356C252.278 105.984 251.645 106.015 251.274 106.423C250.903 106.832 250.933 107.465 251.342 107.836L252.687 106.356ZM248.471 105.271C248.885 105.635 249.517 105.595 249.882 105.181C250.247 104.766 250.207 104.134 249.792 103.769L248.471 105.271ZM246.874 101.234C246.455 100.874 245.824 100.923 245.464 101.342C245.104 101.761 245.153 102.392 245.572 102.752L246.874 101.234ZM242.638 100.261C243.061 100.616 243.692 100.562 244.047 100.139C244.402 99.716 244.347 99.0852 243.925 98.7299L242.638 100.261ZM240.95 96.2542C240.524 95.9028 239.893 95.9634 239.542 96.3895C239.191 96.8156 239.251 97.4459 239.677 97.7972L240.95 96.2542ZM236.694 95.3583C237.123 95.7061 237.753 95.6403 238.101 95.2113C238.448 94.7822 238.383 94.1525 237.954 93.8047L236.694 95.3583ZM234.938 91.3797C234.507 91.0352 233.877 91.1059 233.533 91.5376C233.188 91.9693 233.259 92.5985 233.691 92.943L234.938 91.3797ZM230.669 90.5506C231.104 90.8918 231.732 90.8164 232.073 90.3821C232.415 89.9478 232.339 89.3192 231.905 88.978L230.669 90.5506ZM228.854 86.5992C228.418 86.2612 227.789 86.3413 227.451 86.7781C227.113 87.2148 227.194 87.8429 227.63 88.1809L228.854 86.5992ZM224.575 85.8346C225.014 86.1693 225.641 86.0844 225.976 85.6451C226.311 85.2058 226.226 84.5784 225.787 84.2437L224.575 85.8346ZM222.702 81.9128C222.26 81.5816 221.633 81.6714 221.302 82.1133C220.971 82.5553 221.061 83.182 221.503 83.5132L222.702 81.9128ZM218.415 81.22C218.86 81.5474 219.486 81.4522 219.813 81.0074C220.141 80.5626 220.046 79.9366 219.601 79.6092L218.415 81.22ZM216.467 77.3257C216.019 77.0028 215.394 77.1042 215.071 77.5522C214.748 78.0002 214.849 78.6252 215.297 78.9482L216.467 77.3257ZM212.155 76.7103C212.607 77.0279 213.23 76.9191 213.548 76.4673C213.866 76.0155 213.757 75.3918 213.305 75.0741L212.155 76.7103ZM210.12 72.8693C209.664 72.5586 209.042 72.6768 208.731 73.1334C208.42 73.5899 208.538 74.212 208.995 74.5227L210.12 72.8693ZM205.804 72.3975C206.267 72.6983 206.886 72.5666 207.187 72.1034C207.488 71.6402 207.356 71.0209 206.893 70.7201L205.804 72.3975ZM203.595 68.6547C203.121 68.3713 202.507 68.5258 202.223 68.9998C201.94 69.4738 202.094 70.0878 202.568 70.3713L203.595 68.6547ZM199.263 68.5638C199.763 68.7987 200.359 68.584 200.594 68.0842C200.829 67.5843 200.614 66.9887 200.114 66.7538L199.263 68.5638ZM195.908 65.7573C195.358 65.7148 194.877 66.1268 194.834 66.6775C194.792 67.2281 195.204 67.7089 195.755 67.7513L195.908 65.7573ZM191.631 67.5574C192.184 67.5732 192.644 67.1385 192.66 66.5865C192.676 66.0344 192.241 65.574 191.689 65.5582L191.631 67.5574ZM187.476 65.4728C186.924 65.465 186.47 65.9063 186.462 66.4586C186.454 67.0108 186.896 67.4648 187.448 67.4726L187.476 65.4728ZM183.241 67.4264C183.793 67.4313 184.245 66.9875 184.25 66.4352C184.254 65.8829 183.811 65.4313 183.258 65.4265L183.241 67.4264ZM179.079 65.3935C178.527 65.3893 178.076 65.8337 178.072 66.3859C178.067 66.9382 178.512 67.3893 179.064 67.3934L179.079 65.3935ZM174.856 67.3597C175.408 67.3646 175.86 66.9209 175.865 66.3686C175.87 65.8163 175.426 65.3647 174.874 65.3598L174.856 67.3597ZM170.689 65.3171C170.137 65.3105 169.684 65.7529 169.677 66.3052C169.671 66.8574 170.113 67.3104 170.665 67.317L170.689 65.3171ZM166.467 67.2581C167.02 67.2671 167.475 66.8268 167.484 66.2746C167.493 65.7224 167.052 65.2674 166.5 65.2583L166.467 67.2581ZM162.309 65.1775C161.757 65.1652 161.299 65.6028 161.287 66.1549C161.274 66.7071 161.712 67.1647 162.264 67.177L162.309 65.1775ZM158.063 67.068C158.615 67.0844 159.076 66.6502 159.092 66.0982C159.109 65.5462 158.675 65.0853 158.123 65.0689L158.063 67.068ZM153.939 64.9261C153.387 64.9047 152.923 65.3347 152.901 65.8866C152.88 66.4384 153.31 66.9032 153.862 66.9246L153.939 64.9261ZM149.66 66.7394C150.211 66.7668 150.681 66.3419 150.708 65.7903C150.735 65.2387 150.31 64.7693 149.759 64.7419L149.66 66.7394ZM145.586 64.5078C145.035 64.4731 144.56 64.8918 144.525 65.443C144.491 65.9942 144.909 66.4692 145.46 66.5039L145.586 64.5078ZM141.259 66.2064C141.81 66.2501 142.292 65.8391 142.335 65.2886C142.379 64.738 141.968 64.2563 141.417 64.2127L141.259 66.2064ZM137.254 63.8417C136.705 63.7868 136.215 64.1879 136.16 64.7374C136.105 65.287 136.506 65.7769 137.056 65.8318L137.254 63.8417ZM132.868 65.3609C133.416 65.4301 133.916 65.042 133.985 64.4941C134.055 63.9462 133.667 63.4459 133.119 63.3766L132.868 65.3609ZM128.994 62.7852C128.449 62.6967 127.935 63.0668 127.847 63.6119C127.758 64.1571 128.128 64.6708 128.673 64.7594L128.994 62.7852ZM124.511 63.982C125.051 64.0979 125.583 63.7542 125.699 63.2142C125.815 62.6742 125.471 62.1425 124.931 62.0265L124.511 63.982ZM120.932 61.0135C120.403 60.8547 119.846 61.1547 119.687 61.6836C119.528 62.2126 119.828 62.7701 120.357 62.929L120.932 61.0135ZM116.294 61.4097C116.793 61.6457 117.39 61.4324 117.626 60.9331C117.862 60.4338 117.648 59.8377 117.149 59.6016L116.294 61.4097ZM113.83 57.4658C113.404 57.1147 112.774 57.1757 112.423 57.602C112.072 58.0284 112.133 58.6586 112.559 59.0097L113.83 57.4658ZM109.401 55.9178C109.765 56.3329 110.397 56.3741 110.812 56.0098C111.227 55.6455 111.268 55.0137 110.904 54.5986L109.401 55.9178ZM108.355 51.32C108.039 50.8666 107.416 50.7548 106.963 51.0703C106.509 51.3857 106.397 52.0089 106.713 52.4623L108.355 51.32ZM104.39 48.7938C104.666 49.2717 105.278 49.4349 105.756 49.1582C106.234 48.8815 106.397 48.2698 106.121 47.7918L104.39 48.7938ZM104.143 44.0913C103.898 43.5962 103.299 43.3933 102.803 43.6381C102.308 43.8829 102.105 44.4827 102.35 44.9777L104.143 44.0913ZM100.546 41.0563C100.763 41.564 101.351 41.7992 101.859 41.5818C102.367 41.3643 102.602 40.7765 102.384 40.2688L100.546 41.0563ZM100.82 36.356C100.627 35.8385 100.051 35.5755 99.5331 35.7686C99.0157 35.9616 98.7527 36.5376 98.9457 37.055L100.82 36.356ZM97.5303 32.989C97.7006 33.5144 98.2645 33.8023 98.7899 33.6321C99.3153 33.4619 99.6032 32.8979 99.4329 32.3725L97.5303 32.989ZM98.2174 28.3314C98.0695 27.7993 97.5183 27.4878 96.9862 27.6357C96.454 27.7836 96.1426 28.3348 96.2904 28.8669L98.2174 28.3314ZM95.2271 24.6952C95.3517 25.2332 95.889 25.5683 96.427 25.4437C96.965 25.319 97.3001 24.7818 97.1755 24.2438L95.2271 24.6952ZM96.3209 20.1188C96.2222 19.5754 95.7016 19.2149 95.1583 19.3136C94.6149 19.4124 94.2544 19.9329 94.3531 20.4763L96.3209 20.1188ZM93.6994 16.198C93.766 16.7463 94.2645 17.1367 94.8128 17.07C95.361 17.0033 95.7514 16.5048 95.6848 15.9566L93.6994 16.198ZM95.3412 11.7973C95.3205 11.2454 94.8564 10.8148 94.3045 10.8354C93.7526 10.856 93.3219 11.3201 93.3426 11.872L95.3412 11.7973ZM93.4823 7.46188C93.4147 8.01002 93.8044 8.50912 94.3525 8.57665C94.9006 8.64418 95.3997 8.25457 95.4673 7.70643L93.4823 7.46188ZM96.5902 4.30326C96.919 3.85953 96.8259 3.23325 96.3821 2.90443C95.9384 2.57561 95.3121 2.66875 94.9833 3.11248L96.5902 4.30326ZM98.9118 0.7119C98.3735 0.835051 98.0368 1.37133 98.16 1.90971C98.2831 2.44809 98.8194 2.7847 99.3578 2.66154L98.9118 0.7119ZM103.066 2.43982C103.617 2.47037 104.089 2.04811 104.12 1.49667C104.15 0.945236 103.728 0.473438 103.177 0.442884L103.066 2.43982ZM107.266 0.938503C106.722 0.843765 106.204 1.20804 106.109 1.75214C106.014 2.29624 106.379 2.81412 106.923 2.90886L107.266 0.938503ZM110.805 3.72333C111.343 3.85217 111.882 3.52125 112.011 2.9842C112.14 2.44715 111.809 1.90735 111.272 1.77851L110.805 3.72333ZM115.164 2.79781C114.632 2.64825 114.08 2.95799 113.93 3.48964C113.781 4.02129 114.09 4.57352 114.622 4.72308L115.164 2.79781ZM118.448 5.85796C118.976 6.02166 119.536 5.72676 119.7 5.19929C119.863 4.67183 119.568 4.11153 119.041 3.94783L118.448 5.85796ZM122.886 5.18421C122.362 5.01033 121.796 5.29431 121.622 5.81851C121.448 6.3427 121.732 6.90861 122.257 7.0825L122.886 5.18421ZM126.04 8.36955C126.561 8.55111 127.131 8.27545 127.313 7.75386C127.494 7.23227 127.219 6.66226 126.697 6.4807L126.04 8.36955ZM130.479 7.82242C129.96 7.6349 129.386 7.904 129.199 8.42347C129.011 8.94294 129.281 9.51608 129.8 9.7036L130.479 7.82242ZM133.547 11.0764C134.064 11.2687 134.64 11.0049 134.832 10.4872C135.025 9.96948 134.761 9.39388 134.243 9.20157L133.547 11.0764ZM138.003 10.6148C137.486 10.4186 136.909 10.678 136.713 11.1942C136.516 11.7105 136.776 12.288 137.292 12.4843L138.003 10.6148ZM141.049 13.9264C141.564 14.1259 142.143 13.8702 142.342 13.3552C142.542 12.8402 142.286 12.261 141.771 12.0615L141.049 13.9264ZM145.521 13.5261C145.007 13.3238 144.426 13.5764 144.224 14.0903C144.022 14.6042 144.274 15.1848 144.788 15.3871L145.521 13.5261ZM148.483 16.8515C148.996 17.0561 149.578 16.8062 149.782 16.2932C149.987 15.7802 149.737 15.1985 149.224 14.9939L148.483 16.8515ZM152.965 16.4951C152.453 16.2884 151.87 16.5361 151.664 17.0482C151.457 17.5604 151.705 18.1431 152.217 18.3498L152.965 16.4951ZM155.936 19.8585C156.448 20.0669 157.031 19.8213 157.24 19.3099C157.448 18.7984 157.203 18.2149 156.691 18.0064L155.936 19.8585ZM160.383 19.5179C159.872 19.3078 159.288 19.5517 159.078 20.0625C158.868 20.5733 159.112 21.1576 159.622 21.3676L160.383 19.5179ZM163.379 22.9179C163.889 23.1293 164.474 22.8871 164.685 22.3769C164.897 21.8666 164.654 21.2817 164.144 21.0703L163.379 22.9179ZM167.797 22.5889C167.287 22.3763 166.702 22.6172 166.489 23.1269C166.277 23.6367 166.517 24.2222 167.027 24.4348L167.797 22.5889ZM170.762 25.9974C171.271 26.2111 171.857 25.9715 172.071 25.4623C172.285 24.953 172.045 24.3669 171.536 24.1532L170.762 25.9974ZM175.198 25.6944C174.69 25.4797 174.103 25.7182 173.888 26.2271C173.674 26.7359 173.912 27.3224 174.421 27.5371L175.198 25.6944ZM178.147 29.113C178.655 29.3285 179.242 29.0911 179.458 28.5826C179.674 28.0741 179.436 27.4872 178.928 27.2716L178.147 29.113ZM182.586 28.8259C182.077 28.6095 181.49 28.846 181.274 29.3542C181.057 29.8623 181.294 30.4496 181.802 30.666L182.586 28.8259ZM185.533 32.2581C186.041 32.4752 186.629 32.2395 186.846 31.7317C187.063 31.2238 186.827 30.6362 186.32 30.4191L185.533 32.2581ZM189.962 31.979C189.454 31.7612 188.866 31.9962 188.648 32.5037C188.431 33.0112 188.666 33.5992 189.173 33.817L189.962 31.979ZM192.908 35.4222C193.416 35.6406 194.004 35.4064 194.222 34.8991C194.441 34.3918 194.206 33.8036 193.699 33.5852L192.908 35.4222ZM197.334 35.1523C196.827 34.9333 196.238 35.1669 196.019 35.674C195.8 36.181 196.034 36.7695 196.541 36.9884L197.334 35.1523ZM200.244 38.5895C200.751 38.8089 201.34 38.576 201.559 38.0692C201.779 37.5623 201.546 36.9736 201.039 36.7542L200.244 38.5895ZM204.711 38.3461C204.204 38.1262 203.615 38.3586 203.395 38.8652C203.176 39.3719 203.408 39.9608 203.915 40.1807L204.711 38.3461ZM207.58 41.7736C208.086 41.9939 208.675 41.762 208.896 41.2556C209.116 40.7491 208.884 40.16 208.378 39.9396L207.58 41.7736ZM212.103 41.5623C211.597 41.3416 211.008 41.573 210.787 42.0793C210.566 42.5855 210.798 43.1749 211.304 43.3956L212.103 41.5623ZM214.927 44.9772C215.434 45.1983 216.023 44.9672 216.244 44.4611C216.465 43.9551 216.234 43.3655 215.728 43.1444L214.927 44.9772ZM219.427 44.7618C218.921 44.5404 218.331 44.771 218.11 45.2769C217.888 45.7829 218.119 46.3725 218.625 46.594L219.427 44.7618ZM222.587 48.0627C223.133 48.1457 223.643 47.7704 223.726 47.2243C223.809 46.6783 223.434 46.1684 222.888 46.0854L222.587 48.0627ZM226.429 45.9304C225.885 46.0301 225.526 46.5513 225.626 47.0945C225.725 47.6377 226.247 47.9973 226.79 47.8976L226.429 45.9304ZM230.684 46.8525C231.207 46.6752 231.487 46.1074 231.31 45.5844C231.133 45.0613 230.565 44.7811 230.042 44.9585L230.684 46.8525ZM233.609 43.5725C233.101 43.7913 232.868 44.3798 233.087 44.8869C233.305 45.394 233.894 45.6277 234.401 45.4089L233.609 43.5725ZM237.968 43.7541C238.464 43.5099 238.667 42.9104 238.423 42.415C238.179 41.9196 237.579 41.716 237.084 41.9601L237.968 43.7541ZM240.522 40.1857C240.036 40.4471 239.853 41.0533 240.114 41.5399C240.376 42.0264 240.982 42.209 241.469 41.9476L240.522 40.1857ZM244.896 40.0474C245.376 39.7739 245.543 39.1632 245.27 38.6834C244.996 38.2036 244.386 38.0364 243.906 38.3099L244.896 40.0474ZM247.249 36.3605C246.774 36.6429 246.618 37.2566 246.901 37.7312C247.183 38.2058 247.797 38.3616 248.272 38.0792L247.249 36.3605ZM251.615 36.0562C252.085 35.7671 252.232 35.1513 251.943 34.6807C251.654 34.2101 251.038 34.063 250.568 34.3521L251.615 36.0562ZM253.866 32.3005C253.399 32.5945 253.258 33.2119 253.552 33.6794C253.846 34.1469 254.464 34.2876 254.931 33.9936L253.866 32.3005ZM258.226 31.9029C258.692 31.6053 258.828 30.9869 258.53 30.5216C258.233 30.0564 257.614 29.9204 257.149 30.2179L258.226 31.9029ZM260.42 28.1138C259.956 28.4137 259.823 29.0327 260.123 29.4965C260.423 29.9603 261.042 30.0932 261.506 29.7934L260.42 28.1138ZM264.774 27.6736C265.237 27.3725 265.368 26.7531 265.067 26.2901C264.766 25.8271 264.146 25.6958 263.683 25.9969L264.774 27.6736ZM266.947 23.873C266.484 24.1743 266.353 24.7937 266.654 25.2566C266.955 25.7195 267.575 25.8506 268.038 25.5494L266.947 23.873ZM271.304 23.4281C271.767 23.1279 271.9 22.5088 271.6 22.0452C271.299 21.5816 270.68 21.4492 270.217 21.7494L271.304 23.4281ZM273.497 19.6359C273.032 19.9336 272.896 20.5521 273.194 21.0172C273.492 21.4824 274.11 21.618 274.575 21.3202L273.497 19.6359ZM277.856 19.2387C278.324 18.9451 278.465 18.3278 278.172 17.8601C277.878 17.3923 277.261 17.2512 276.793 17.5448L277.856 19.2387ZM280.108 15.4937C279.636 15.7807 279.486 16.3959 279.773 16.8677C280.06 17.3396 280.676 17.4894 281.147 17.2023L280.108 15.4937ZM284.484 15.219C284.962 14.9424 285.125 14.3307 284.848 13.8526C284.572 13.3746 283.96 13.2113 283.482 13.4879L284.484 15.219ZM286.914 11.5765C286.426 11.8359 286.241 12.4414 286.5 12.929C286.76 13.4166 287.365 13.6017 287.853 13.3424L286.914 11.5765ZM291.292 11.639C291.795 11.412 292.019 10.8199 291.792 10.3164C291.565 9.81291 290.973 9.58879 290.47 9.81581L291.292 11.639ZM294.254 8.39258C293.721 8.54016 293.41 9.09124 293.557 9.62344C293.705 10.1556 294.256 10.4674 294.788 10.3198L294.254 8.39258ZM298.426 9.8076C298.975 9.74473 299.369 9.24895 299.306 8.70026C299.243 8.15156 298.747 7.75773 298.199 7.82061L298.426 9.8076ZM301.985 7.31174C301.438 7.39168 301.06 7.89948 301.14 8.44595C301.22 8.99242 301.728 9.37062 302.274 9.29068L301.985 7.31174ZM306.078 8.73783C306.625 8.66192 307.007 8.15692 306.931 7.60987C306.855 7.06283 306.35 6.6809 305.803 6.75681L306.078 8.73783ZM309.664 6.28813C309.115 6.34233 308.713 6.83182 308.767 7.38144C308.821 7.93105 309.311 8.33267 309.861 8.27848L309.664 6.28813ZM313.626 8.03908C314.178 8.02729 314.616 7.57012 314.604 7.01796C314.593 6.4658 314.135 6.02774 313.583 6.03953L313.626 8.03908ZM317.557 6.19294C317.008 6.13278 316.514 6.52906 316.454 7.07806C316.394 7.62706 316.79 8.12088 317.339 8.18104L317.557 6.19294ZM320.891 8.92634C321.415 9.10114 321.981 8.81814 322.156 8.29424C322.331 7.77035 322.048 7.20395 321.524 7.02915L320.891 8.92634ZM325.215 8.91341C324.77 8.58532 324.144 8.6795 323.816 9.12377C323.488 9.56804 323.582 10.1942 324.027 10.5223L325.215 8.91341ZM326.415 13.0488C326.72 13.509 327.341 13.6348 327.801 13.3296C328.262 13.0244 328.387 12.4038 328.082 11.9435L326.415 13.0488ZM329.835 15.6679C329.667 15.142 329.104 14.8523 328.578 15.0209C328.052 15.1895 327.762 15.7525 327.931 16.2784L329.835 15.6679ZM328.7 19.8472C328.77 20.3949 329.271 20.7819 329.819 20.7114C330.367 20.641 330.754 20.1398 330.683 19.5921L328.7 19.8472ZM330.935 23.5561C330.932 23.0038 330.481 22.5591 329.929 22.5628C329.376 22.5665 328.932 23.0172 328.935 23.5694L330.935 23.5561ZM328.794 27.4688C328.756 28.0198 329.171 28.4974 329.722 28.5356C330.273 28.5738 330.751 28.1582 330.789 27.6072L328.794 27.4688ZM330.394 31.7247C330.46 31.1764 330.069 30.6782 329.521 30.612C328.973 30.5458 328.474 30.9365 328.408 31.4848L330.394 31.7247ZM327.838 35.4943C327.749 36.0394 328.119 36.5531 328.664 36.6416C329.21 36.7301 329.723 36.3599 329.812 35.8148L327.838 35.4943ZM329.083 39.8689C329.19 39.3269 328.836 38.8015 328.294 38.6954C327.752 38.5893 327.227 38.9427 327.121 39.4847L329.083 39.8689ZM326.287 43.4615C326.167 44.0006 326.507 44.5348 327.046 44.6547C327.586 44.7746 328.12 44.4347 328.24 43.8955L326.287 43.4615ZM327.307 47.8963C327.438 47.3596 327.108 46.8189 326.572 46.6886C326.035 46.5582 325.494 46.8877 325.364 47.4243L327.307 47.8963ZM324.373 51.3764C324.235 51.9112 324.556 52.4565 325.091 52.5944C325.626 52.7323 326.171 52.4106 326.309 51.8758L324.373 51.3764ZM325.266 55.8377C325.409 55.3042 325.093 54.756 324.559 54.6132C324.026 54.4704 323.477 54.7871 323.335 55.3206L325.266 55.8377ZM322.268 59.2647C322.123 59.7976 322.437 60.3472 322.97 60.4923C323.503 60.6373 324.053 60.3229 324.198 59.79L322.268 59.2647ZM323.125 63.7314C323.269 63.1984 322.955 62.6491 322.422 62.5045C321.889 62.3599 321.339 62.6747 321.195 63.2078L323.125 63.7314ZM320.133 67.1657C319.991 67.6997 320.31 68.247 320.844 68.3881C321.378 68.5292 321.925 68.2108 322.066 67.6768L320.133 67.1657ZM321.048 71.6231C321.182 71.0874 320.857 70.5444 320.321 70.4103C319.785 70.2763 319.242 70.6019 319.108 71.1377L321.048 71.6231ZM318.152 75.1292C318.03 75.6677 318.367 76.2035 318.905 76.3259C319.444 76.4484 319.98 76.111 320.102 75.5725L318.152 75.1292ZM319.264 79.5435C319.368 79.0012 319.013 78.4769 318.471 78.3724C317.929 78.268 317.404 78.6229 317.3 79.1652L319.264 79.5435ZM316.612 83.2475C316.534 83.7944 316.915 84.3003 317.462 84.3776C318.009 84.4549 318.515 84.0742 318.592 83.5273L316.612 83.2475ZM318.171 87.5152C318.207 86.964 317.789 86.4885 317.238 86.4531C316.686 86.4177 316.211 86.8358 316.176 87.3869L318.171 87.5152ZM316.14 91.5887C316.171 92.1401 316.644 92.5616 317.195 92.5303C317.747 92.4989 318.168 92.0265 318.137 91.4751L316.14 91.5887ZM318.712 95.3183C318.571 94.7844 318.023 94.4662 317.489 94.6075C316.956 94.7488 316.637 95.2962 316.779 95.8301L318.712 95.3183ZM318.405 99.7336C318.677 100.214 319.287 100.383 319.768 100.111C320.249 99.8395 320.418 99.2294 320.146 98.7487L318.405 99.7336ZM322.238 101.933C321.911 101.488 321.285 101.391 320.84 101.718C320.395 102.045 320.298 102.671 320.625 103.116L322.238 101.933ZM323.104 106.259C323.458 106.683 324.089 106.738 324.513 106.384C324.936 106.029 324.992 105.398 324.637 104.975L323.104 106.259ZM327.202 107.902C326.83 107.494 326.198 107.465 325.79 107.837C325.382 108.209 325.352 108.842 325.725 109.25L327.202 107.902ZM328.439 112.132C328.823 112.528 329.456 112.538 329.853 112.154C330.249 111.769 330.259 111.136 329.875 110.74L328.439 112.132ZM332.632 113.514C332.239 113.127 331.605 113.132 331.218 113.526C330.831 113.92 330.836 114.553 331.23 114.94L332.632 113.514ZM334.076 117.683C334.478 118.062 335.111 118.045 335.49 117.643C335.87 117.242 335.852 116.609 335.451 116.23L334.076 117.683ZM338.318 118.895C337.91 118.522 337.278 118.551 336.905 118.958C336.532 119.366 336.561 119.998 336.968 120.371L338.318 118.895ZM339.903 123.013C340.316 123.38 340.948 123.342 341.314 122.929C341.681 122.516 341.643 121.884 341.23 121.518L339.903 123.013ZM344.18 124.099C343.762 123.738 343.13 123.784 342.769 124.203C342.409 124.621 342.455 125.252 342.873 125.613L344.18 124.099ZM345.877 128.173C346.3 128.528 346.93 128.474 347.286 128.051C347.641 127.628 347.587 126.997 347.164 126.642L345.877 128.173ZM350.175 129.142C349.748 128.792 349.118 128.855 348.768 129.282C348.418 129.709 348.481 130.339 348.908 130.689L350.175 129.142ZM351.983 133.176C352.415 133.52 353.044 133.449 353.388 133.018C353.733 132.586 353.662 131.957 353.23 131.612L351.983 133.176ZM356.303 134.029C355.866 133.691 355.238 133.77 354.9 134.207C354.562 134.644 354.641 135.272 355.078 135.61L356.303 134.029ZM358.23 138.011C358.672 138.341 359.299 138.251 359.629 137.809C359.96 137.367 359.87 136.74 359.428 136.409L358.23 138.011ZM362.583 138.719C362.134 138.398 361.509 138.502 361.188 138.952C360.867 139.401 360.972 140.026 361.421 140.347L362.583 138.719ZM364.69 142.603C365.151 142.908 365.771 142.782 366.076 142.321C366.381 141.861 366.254 141.24 365.794 140.935L364.69 142.603ZM369.065 142.929C368.577 142.671 367.972 142.858 367.714 143.347C367.456 143.835 367.643 144.44 368.131 144.698L369.065 142.929ZM372.337 145.401C372.887 145.35 373.292 144.863 373.241 144.313C373.19 143.763 372.704 143.358 372.154 143.409L372.337 145.401ZM375.684 142.849C375.145 142.971 374.808 143.507 374.93 144.045C375.052 144.584 375.588 144.921 376.127 144.799L375.684 142.849ZM379.819 143.66C380.331 143.454 380.579 142.871 380.372 142.359C380.166 141.847 379.583 141.599 379.071 141.805L379.819 143.66ZM382.128 140.172C381.677 140.491 381.57 141.115 381.889 141.566C382.208 142.017 382.832 142.124 383.283 141.805L382.128 140.172ZM386.151 138.973C386.467 138.521 386.357 137.897 385.905 137.581C385.452 137.264 384.829 137.374 384.512 137.826L386.151 138.973ZM385.808 134.818C385.695 135.359 386.042 135.888 386.583 136.001C387.123 136.114 387.653 135.767 387.766 135.226L385.808 134.818ZM387.903 131.22C387.839 130.671 387.341 130.279 386.793 130.344C386.244 130.409 385.852 130.906 385.917 131.454L387.903 131.22ZM385.12 128.058C385.297 128.581 385.865 128.862 386.388 128.685C386.911 128.507 387.191 127.94 387.014 127.417L385.12 128.058ZM385.561 123.818C385.345 123.31 384.757 123.073 384.249 123.29C383.741 123.506 383.505 124.094 383.721 124.602L385.561 123.818ZM382.193 121.012C382.409 121.52 382.996 121.757 383.504 121.541C384.012 121.325 384.249 120.738 384.033 120.23L382.193 121.012ZM382.514 116.636C382.301 116.127 381.715 115.887 381.205 116.101C380.696 116.315 380.457 116.901 380.67 117.41L382.514 116.636ZM379.17 113.806C379.38 114.316 379.965 114.56 380.476 114.349C380.986 114.138 381.229 113.554 381.019 113.043L379.17 113.806ZM379.549 109.439C379.343 108.926 378.76 108.678 378.248 108.884C377.736 109.091 377.488 109.673 377.694 110.186L379.549 109.439ZM376.25 106.547C376.451 107.061 377.031 107.315 377.545 107.114C378.06 106.913 378.314 106.334 378.113 105.819L376.25 106.547ZM376.719 102.188C376.525 101.671 375.948 101.41 375.431 101.604C374.914 101.799 374.653 102.375 374.848 102.892L376.719 102.188ZM373.495 99.2148C373.681 99.7346 374.254 100.005 374.774 99.8181C375.294 99.6315 375.564 99.0588 375.377 98.539L373.495 99.2148ZM374.098 94.8739C373.921 94.3508 373.354 94.07 372.831 94.2469C372.307 94.4238 372.027 94.9914 372.204 95.5146L374.098 94.8739ZM370.987 91.7802C371.152 92.3074 371.713 92.6012 372.24 92.4365C372.767 92.2718 373.061 91.7109 372.896 91.1838L370.987 91.7802ZM371.794 87.4692C371.645 86.9374 371.093 86.627 370.561 86.7759C370.029 86.9248 369.719 87.4766 369.868 88.0084L371.794 87.4692ZM368.877 84.1933C369.004 84.7306 369.544 85.0628 370.081 84.9352C370.618 84.8076 370.95 84.2686 370.823 83.7313L368.877 84.1933ZM370.034 79.9678C369.937 79.4241 369.417 79.062 368.874 79.159C368.33 79.256 367.968 79.7754 368.065 80.3191L370.034 79.9678ZM367.523 76.3641C367.572 76.9143 368.058 77.3207 368.608 77.2719C369.158 77.2231 369.564 76.7376 369.516 76.1875L367.523 76.3641ZM369.446 72.4603C369.485 71.9094 369.07 71.4314 368.519 71.3928C367.968 71.3542 367.49 71.7694 367.451 72.3204L369.446 72.4603ZM368.403 68.1822C368.171 68.6833 368.389 69.2777 368.89 69.5098C369.391 69.7419 369.985 69.5237 370.217 69.0225L368.403 68.1822ZM372.581 66.4398C373.022 66.1074 373.11 65.4803 372.778 65.0393C372.445 64.5983 371.818 64.5104 371.377 64.8429L372.581 66.4398ZM375.068 62.5743C374.576 62.8246 374.38 63.4266 374.63 63.9189C374.88 64.4112 375.482 64.6073 375.975 64.357L375.068 62.5743ZM379.689 62.7537C380.208 62.5645 380.475 61.9904 380.285 61.4716C380.096 60.9527 379.522 60.6856 379.003 60.8748L379.689 62.7537ZM383.085 59.622C382.549 59.7572 382.225 60.3008 382.36 60.8363C382.495 61.3718 383.038 61.6964 383.574 61.5613L383.085 59.622ZM387.56 60.7662C388.107 60.6861 388.485 60.1782 388.405 59.6318C388.325 59.0853 387.817 58.7073 387.27 58.7874L387.56 60.7662ZM391.532 58.4025C390.98 58.4198 390.547 58.8814 390.564 59.4334C390.582 59.9854 391.043 60.4188 391.595 60.4015L391.532 58.4025ZM395.613 60.5494C396.162 60.6111 396.657 60.2162 396.718 59.6674C396.78 59.1186 396.385 58.6236 395.836 58.562L395.613 60.5494ZM400.105 59.4522C399.579 59.2832 399.016 59.5724 398.847 60.0982C398.678 60.624 398.967 61.1872 399.493 61.3563L400.105 59.4522ZM402.972 63.0256C403.427 63.3391 404.05 63.2246 404.363 62.7698C404.677 62.3151 404.562 61.6924 404.107 61.379L402.972 63.0256ZM407.281 64.603C406.979 64.1406 406.359 64.0105 405.897 64.3124C405.434 64.6144 405.304 65.234 405.606 65.6965L407.281 64.603ZM407.27 69.3249C407.481 69.8353 408.066 70.0778 408.576 69.8667C409.086 69.6556 409.329 69.0707 409.118 68.5604L407.27 69.3249ZM410.749 72.4065C410.53 71.8998 409.941 71.6671 409.434 71.8868C408.927 72.1065 408.695 72.6954 408.914 73.2021L410.749 72.4065ZM410.612 77.0527C410.838 77.5567 411.43 77.7824 411.934 77.5568C412.438 77.3311 412.663 76.7395 412.438 76.2354L410.612 77.0527ZM414.167 80.0493C413.937 79.5473 413.343 79.327 412.841 79.5573C412.339 79.7876 412.119 80.3812 412.349 80.8832L414.167 80.0493ZM414.117 84.6985C414.351 85.1987 414.946 85.4145 415.447 85.1805C415.947 84.9464 416.163 84.3512 415.929 83.8509L414.117 84.6985ZM417.717 87.6398C417.479 87.1411 416.883 86.9293 416.384 87.1666C415.885 87.404 415.674 88.0007 415.911 88.4994L417.717 87.6398ZM417.73 92.2892C417.971 92.7863 418.569 92.9943 419.066 92.7537C419.563 92.5131 419.771 91.9151 419.53 91.418L417.73 92.2892ZM421.367 95.1791C421.123 94.6838 420.523 94.4803 420.028 94.7246C419.533 94.9689 419.329 95.5685 419.573 96.0638L421.367 95.1791ZM50.6395 130.028C50.0554 129.886 49.4455 129.736 48.8129 129.579L48.3312 131.52C48.9663 131.678 49.5788 131.828 50.1656 131.971L50.6395 130.028ZM45.1413 128.654C43.9631 128.353 42.7377 128.036 41.48 127.706L40.9726 129.641C42.2346 129.972 43.464 130.29 44.6462 130.592L45.1413 128.654ZM37.8255 126.735C36.6208 126.411 35.4007 126.078 34.1765 125.74L33.6432 127.667C34.8721 128.007 36.0968 128.341 37.3056 128.667L37.8255 126.735ZM30.5359 124.717C29.3144 124.369 28.1006 124.017 26.9061 123.663L26.3389 125.581C27.5401 125.936 28.7601 126.29 29.9871 126.64L30.5359 124.717ZM23.2918 122.572C22.0512 122.188 20.8479 121.807 19.6967 121.43L19.0747 123.331C20.2378 123.711 21.4517 124.096 22.7014 124.482L23.2918 122.572ZM16.13 120.217C14.8398 119.758 13.663 119.315 12.628 118.892L11.8716 120.743C12.9426 121.181 14.1495 121.636 15.4603 122.102L16.13 120.217ZM9.33199 117.337C8.98253 117.132 8.72123 116.951 8.53871 116.798C8.34453 116.636 8.29623 116.551 8.29696 116.553L6.5081 117.447C6.68478 117.8 6.97041 118.094 7.25481 118.332C7.55087 118.58 7.91278 118.823 8.31781 119.061L9.33199 117.337ZM8.29696 116.553C8.20007 116.359 8.04066 115.861 7.83817 114.994L5.89056 115.449C6.08829 116.295 6.2915 117.014 6.5081 117.447L8.29696 116.553ZM7.12002 111.331C6.92735 110.221 6.7259 108.974 6.51895 107.618L4.54181 107.919C4.75032 109.286 4.95396 110.546 5.14947 111.673L7.12002 111.331ZM5.97364 103.879C5.80606 102.683 5.63697 101.433 5.46795 100.142L3.48488 100.402C3.65461 101.698 3.82449 102.954 3.99297 104.157L5.97364 103.879ZM4.99189 96.3978C4.84001 95.1681 4.68942 93.9149 4.54132 92.6476L2.55484 92.8798C2.70344 94.1513 2.85454 95.4088 3.00697 96.643L4.99189 96.3978ZM4.1147 88.8951C3.97656 87.6452 3.84186 86.3908 3.71167 85.1405L1.72242 85.3476C1.85306 86.6022 1.98821 87.8608 2.12681 89.1148L4.1147 88.8951ZM3.33325 81.3849C3.20961 80.1142 3.09192 78.8571 2.98137 77.6231L0.989347 77.8015C1.10038 79.0409 1.21855 80.3031 1.34265 81.5786L3.33325 81.3849ZM2.66166 73.8679C2.55726 72.5687 2.46308 71.3099 2.3807 70.1042L0.385351 70.2406C0.468341 71.4551 0.563126 72.7219 0.66809 74.0281L2.66166 73.8679ZM2.15397 66.3403C2.0843 64.9699 2.03681 63.7115 2.01452 62.5906L0.0149156 62.6303C0.0377108 63.7768 0.0861224 65.0564 0.156552 66.4418L2.15397 66.3403ZM2.06795 58.8965C2.09839 58.4764 2.1382 58.1378 2.18486 57.8784C2.23436 57.6033 2.28122 57.4786 2.29696 57.4471L0.508104 56.5527C0.36433 56.8402 0.277121 57.1871 0.216469 57.5243C0.152985 57.8771 0.106567 58.2912 0.073182 58.752L2.06795 58.8965ZM2.29696 57.4471C2.4101 57.2208 2.71577 56.7561 3.246 56.0435L1.64149 54.8496C1.11794 55.5532 0.710351 56.1482 0.508104 56.5527L2.29696 57.4471ZM5.57829 53.0934C6.29832 52.2169 7.11455 51.2442 8.01067 50.1962L6.49061 48.8964C5.58735 49.9528 4.76252 50.9356 4.03282 51.824L5.57829 53.0934ZM10.4969 47.3301C11.3001 46.4163 12.1435 45.4675 13.0191 44.4938L11.5321 43.1564C10.6515 44.1356 9.80299 45.0901 8.99467 46.0097L10.4969 47.3301ZM15.566 41.692C16.4089 40.7745 17.2719 39.8446 18.149 38.9098L16.6906 37.5412C15.8085 38.4813 14.9406 39.4164 14.0932 40.339L15.566 41.692ZM20.757 36.1611C21.6312 35.25 22.5132 34.3415 23.3974 33.4425L21.9715 32.0401C21.0812 32.9453 20.1935 33.8597 19.3139 34.7764L20.757 36.1611ZM26.0738 30.7586C26.9837 29.8594 27.8898 28.978 28.786 28.1219L27.4046 26.6756C26.4994 27.5402 25.5852 28.4296 24.6679 29.3361L26.0738 30.7586ZM31.5507 25.5356C32.5114 24.6572 33.4516 23.8201 34.3634 23.0345L33.0579 21.5193C32.1293 22.3195 31.1742 23.1698 30.2011 24.0597L31.5507 25.5356ZM37.2598 20.6409C38.3318 19.7978 39.337 19.0614 40.2597 18.4502L39.1552 16.7829C38.1761 17.4315 37.126 18.2017 36.0234 19.0689L37.2598 20.6409ZM43.3986 16.748C44.0544 16.507 44.4986 16.4549 44.7704 16.4911L45.0348 14.5086C44.3006 14.4108 43.5005 14.5798 42.7088 14.8707L43.3986 16.748ZM44.7704 16.4911C45.1611 16.5432 45.5389 16.7533 45.9178 17.2254L47.4775 15.9734C46.8565 15.1998 46.0488 14.6439 45.0348 14.5086L44.7704 16.4911ZM47.3361 20.7682C47.6064 21.9681 47.8086 23.3619 47.9578 24.9021L49.9485 24.7094C49.7944 23.1182 49.5818 21.6363 49.2872 20.3287L47.3361 20.7682ZM48.2339 29.1503C48.2888 30.5317 48.3189 31.9659 48.3337 33.4254L50.3335 33.4051C50.3186 31.9321 50.2882 30.4774 50.2323 29.0709L48.2339 29.1503ZM48.3422 37.7211C48.3364 39.1724 48.3249 40.6141 48.3169 42.0307L50.3169 42.042C50.3249 40.6323 50.3364 39.1818 50.3422 37.7291L48.3422 37.7211ZM48.3137 46.3466C48.3246 47.8886 48.3535 49.3542 48.4156 50.6967L50.4134 50.6044C50.3531 49.2978 50.3245 47.8606 50.3136 46.3324L48.3137 46.3466ZM48.8413 55.1192C48.9959 55.9961 49.2029 56.7871 49.4946 57.4189L51.3105 56.5808C51.1226 56.1738 50.9524 55.5747 50.8109 54.772L48.8413 55.1192ZM49.4946 57.4189C49.7595 57.993 49.988 58.5554 50.188 59.1055L52.0677 58.4222C51.85 57.8235 51.6005 57.2092 51.3105 56.5808L49.4946 57.4189ZM51.2018 62.6519C51.4993 63.9605 51.7449 65.289 52.0629 66.4196L53.9882 65.878C53.687 64.8073 53.4777 63.641 53.1521 62.2086L51.2018 62.6519ZM54.1248 70.191C54.6423 70.6786 55.2594 71.086 55.9964 71.4136L56.8087 69.586C56.2599 69.342 55.8361 69.0555 55.4964 68.7354L54.1248 70.191ZM55.9964 71.4136C56.2659 71.5333 56.9273 71.7553 57.8547 72.0511L58.4625 70.1457C57.4864 69.8344 56.9532 69.6502 56.8087 69.586L55.9964 71.4136ZM61.7526 73.2578C62.8745 73.5991 64.1474 73.983 65.5596 74.4061L66.1337 72.4903C64.7234 72.0677 63.4532 71.6846 62.3346 71.3444L61.7526 73.2578ZM69.3142 75.5261C70.506 75.8803 71.7669 76.2538 73.0924 76.6455L73.6591 74.7275C72.3345 74.3361 71.0746 73.9628 69.8839 73.609L69.3142 75.5261ZM76.9295 77.7767C78.1594 78.1386 79.4334 78.5127 80.7485 78.8983L81.3112 76.9791C79.9967 76.5937 78.7233 76.2197 77.494 75.858L76.9295 77.7767ZM84.5243 80.0037C85.7848 80.3723 87.077 80.7496 88.3989 81.1351L88.9588 79.2151C87.6374 78.8297 86.3456 78.4525 85.0856 78.0841L84.5243 80.0037ZM92.1457 82.2266C93.4083 82.594 94.6943 82.9679 96.0019 83.3477L96.5597 81.427C95.2524 81.0474 93.9668 80.6736 92.7045 80.3063L92.1457 82.2266ZM99.7703 84.4412C101.037 84.8083 102.321 85.1803 103.622 85.5568L104.178 83.6356C102.877 83.2593 101.593 82.8873 100.327 82.5202L99.7703 84.4412ZM107.396 86.6481C108.667 87.0155 109.952 87.3866 111.25 87.761L111.805 85.8394C110.507 85.465 109.222 85.094 107.951 84.7267L107.396 86.6481ZM115.023 88.8488C116.292 89.2143 117.571 89.5826 118.86 89.9533L119.413 88.0313C118.124 87.6606 116.845 87.2924 115.577 86.927L115.023 88.8488ZM122.655 91.0442C123.92 91.4078 125.194 91.7735 126.474 92.1409L127.026 90.2184C125.746 89.8511 124.472 89.4855 123.207 89.122L122.655 91.0442ZM130.289 93.2345C131.553 93.5966 132.823 93.9602 134.098 94.325L134.648 92.4021C133.374 92.0374 132.104 91.6739 130.84 91.3118L130.289 93.2345ZM137.924 95.4189C139.189 95.7802 140.457 96.1424 141.729 96.5051L142.278 94.5819C141.006 94.2192 139.738 93.8571 138.474 93.4958L137.924 95.4189ZM145.552 97.5951C146.821 97.9566 148.092 98.3185 149.364 98.6805L149.911 96.7568C148.639 96.3949 147.368 96.0331 146.1 95.6717L145.552 97.5951ZM153.18 99.7653C154.452 100.127 155.726 100.488 156.998 100.849L157.544 98.9253C156.272 98.5643 154.999 98.2029 153.726 97.8414L153.18 99.7653ZM160.815 101.931C162.088 102.292 163.359 102.651 164.628 103.01L165.172 101.086C163.903 100.727 162.633 100.367 161.36 100.007L160.815 101.931ZM168.455 104.091C169.728 104.451 170.998 104.809 172.264 105.166L172.806 103.241C171.54 102.884 170.271 102.526 168.998 102.167L168.455 104.091ZM176.093 106.244C177.37 106.603 178.642 106.961 179.909 107.316L180.45 105.391C179.183 105.035 177.911 104.678 176.635 104.319L176.093 106.244ZM183.727 108.387C185.011 108.747 186.288 109.104 187.557 109.459L188.096 107.533C186.827 107.178 185.55 106.821 184.267 106.461L183.727 108.387ZM191.357 110.52C192.65 110.881 193.933 111.238 195.206 111.592L195.742 109.665C194.47 109.311 193.186 108.954 191.894 108.593L191.357 110.52ZM198.993 112.644C200.293 113.005 201.582 113.362 202.856 113.714L203.389 111.786C202.115 111.434 200.828 111.077 199.527 110.717L198.993 112.644ZM206.647 114.761C207.951 115.12 209.239 115.474 210.51 115.823L211.039 113.895C209.769 113.546 208.482 113.192 207.178 112.833L206.647 114.761ZM214.299 116.861C215.611 117.22 216.902 117.572 218.17 117.917L218.695 115.987C217.428 115.643 216.138 115.291 214.827 114.932L214.299 116.861ZM221.943 118.94C223.271 119.3 224.569 119.65 225.837 119.99L226.355 118.059C225.089 117.719 223.792 117.369 222.465 117.01L221.943 118.94ZM229.633 121.006C230.961 121.359 232.248 121.7 233.49 122.028L234 120.094C232.759 119.767 231.474 119.426 230.148 119.073L229.633 121.006ZM237.359 123.041C238.696 123.388 239.969 123.716 241.174 124.023L241.668 122.085C240.466 121.779 239.196 121.452 237.862 121.105L237.359 123.041ZM244.976 124.978C246.41 125.332 247.706 125.644 248.851 125.911L249.304 123.963C248.17 123.699 246.883 123.389 245.455 123.036L244.976 124.978ZM252.88 126.776C253.382 126.868 253.81 126.936 254.151 126.975C254.445 127.008 254.808 127.038 255.099 126.98L254.706 125.019C254.76 125.008 254.767 125.015 254.685 125.013C254.616 125.011 254.515 125.003 254.377 124.988C254.101 124.956 253.724 124.898 253.242 124.809L252.88 126.776ZM255.099 126.98C255.596 126.881 256.094 126.818 256.59 126.777L256.426 124.784C255.872 124.83 255.296 124.901 254.706 125.019L255.099 126.98ZM259.795 126.656C261.061 126.593 262.509 126.414 263.482 125.353L262.007 124.002C261.639 124.404 260.982 124.595 259.695 124.659L259.795 126.656ZM264.539 121.595C264.526 121.072 264.478 120.498 264.394 119.868L262.411 120.132C262.488 120.706 262.529 121.207 262.54 121.645L264.539 121.595ZM264.394 119.868C264.304 119.191 263.94 118.451 263.474 117.717L261.785 118.788C262.213 119.463 262.38 119.9 262.411 120.132L264.394 119.868ZM261.014 114.566C260.23 113.681 259.323 112.722 258.311 111.701L256.891 113.11C257.883 114.111 258.764 115.042 259.517 115.892L261.014 114.566ZM255.542 109.002C254.642 108.149 253.687 107.265 252.687 106.356L251.342 107.836C252.334 108.737 253.278 109.611 254.167 110.454L255.542 109.002ZM249.792 103.769C248.848 102.938 247.874 102.092 246.874 101.234L245.572 102.752C246.565 103.605 247.533 104.445 248.471 105.271L249.792 103.769ZM243.925 98.7299C242.949 97.9105 241.956 97.0842 240.95 96.2542L239.677 97.7972C240.679 98.6235 241.668 99.4459 242.638 100.261L243.925 98.7299ZM237.954 93.8047C236.956 92.996 235.95 92.1867 234.938 91.3797L233.691 92.943C234.698 93.7469 235.701 94.5529 236.694 95.3583L237.954 93.8047ZM231.905 88.978C230.888 88.179 229.87 87.3851 228.854 86.5992L227.63 88.1809C228.642 88.9638 229.656 89.7547 230.669 90.5506L231.905 88.978ZM225.787 84.2437C224.75 83.4542 223.721 82.6762 222.702 81.9128L221.503 83.5132C222.517 84.2735 223.543 85.0483 224.575 85.8346L225.787 84.2437ZM219.601 79.6092C218.537 78.8264 217.491 78.064 216.467 77.3257L215.297 78.9482C216.316 79.6824 217.357 80.4409 218.415 81.22L219.601 79.6092ZM213.305 75.0741C212.206 74.3013 211.142 73.5645 210.12 72.8693L208.995 74.5227C210.007 75.2116 211.063 75.9427 212.155 76.7103L213.305 75.0741ZM206.893 70.7201C205.705 69.9488 204.6 69.2561 203.595 68.6547L202.568 70.3713C203.548 70.9572 204.632 71.6363 205.804 72.3975L206.893 70.7201ZM200.114 66.7538C199.351 66.3951 198.658 66.1269 198.092 66.0178L197.713 67.9817C198.028 68.0424 198.539 68.2235 199.263 68.5638L200.114 66.7538ZM198.092 66.0178C197.525 65.9087 196.784 65.8247 195.908 65.7573L195.755 67.7513C196.605 67.8168 197.258 67.894 197.713 67.9817L198.092 66.0178ZM191.689 65.5582C190.415 65.5216 189.004 65.4945 187.476 65.4728L187.448 67.4726C188.97 67.4942 190.371 67.5212 191.631 67.5574L191.689 65.5582ZM183.258 65.4265C181.922 65.4148 180.525 65.4044 179.079 65.3935L179.064 67.3934C180.51 67.4044 181.906 67.4147 183.241 67.4264L183.258 65.4265ZM174.874 65.3598C173.508 65.3478 172.111 65.334 170.689 65.3171L170.665 67.317C172.09 67.3339 173.489 67.3477 174.856 67.3597L174.874 65.3598ZM166.5 65.2583C165.117 65.2356 163.718 65.2091 162.309 65.1775L162.264 67.177C163.677 67.2086 165.08 67.2353 166.467 67.2581L166.5 65.2583ZM158.123 65.0689C156.73 65.0274 155.333 64.9801 153.939 64.9261L153.862 66.9246C155.262 66.9789 156.665 67.0264 158.063 67.068L158.123 65.0689ZM149.759 64.7419C148.357 64.6722 146.964 64.5946 145.586 64.5078L145.46 66.5039C146.848 66.5912 148.25 66.6694 149.66 66.7394L149.759 64.7419ZM141.417 64.2127C140.004 64.1007 138.614 63.9774 137.254 63.8417L137.056 65.8318C138.43 65.969 139.834 66.0934 141.259 66.2064L141.417 64.2127ZM133.119 63.3766C131.694 63.1966 130.316 63 128.994 62.7852L128.673 64.7594C130.022 64.9784 131.423 65.1783 132.868 65.3609L133.119 63.3766ZM124.931 62.0265C123.493 61.7176 122.155 61.3807 120.932 61.0135L120.357 62.929C121.64 63.3144 123.031 63.6641 124.511 63.982L124.931 62.0265ZM117.149 59.6016C116.512 59.3002 115.945 58.9872 115.451 58.6633L114.355 60.3362C114.939 60.7193 115.589 61.0762 116.294 61.4097L117.149 59.6016ZM115.451 58.6633C114.905 58.3058 114.365 57.9058 113.83 57.4658L112.559 59.0097C113.145 59.492 113.743 59.9357 114.355 60.3362L115.451 58.6633ZM110.904 54.5986C110.028 53.6 109.177 52.5018 108.355 51.32L106.713 52.4623C107.572 53.6974 108.469 54.8559 109.401 55.9178L110.904 54.5986ZM106.121 47.7918C105.434 46.6063 104.775 45.3686 104.143 44.0913L102.35 44.9777C102.999 46.2908 103.68 47.5672 104.39 48.7938L106.121 47.7918ZM102.384 40.2688C101.834 38.9847 101.312 37.6767 100.82 36.356L98.9457 37.055C99.4489 38.404 99.9828 39.7415 100.546 41.0563L102.384 40.2688ZM99.4329 32.3725C98.9954 31.0223 98.5898 29.6714 98.2174 28.3314L96.2904 28.8669C96.6702 30.2337 97.084 31.6116 97.5303 32.989L99.4329 32.3725ZM97.1755 24.2438C96.8493 22.836 96.5639 21.456 96.3209 20.1188L94.3531 20.4763C94.602 21.8463 94.894 23.2576 95.2271 24.6952L97.1755 24.2438ZM95.6848 15.9566C95.5042 14.4718 95.389 13.077 95.3412 11.7973L93.3426 11.872C93.3928 13.2157 93.5132 14.6668 93.6994 16.198L95.6848 15.9566ZM95.4673 7.70643C95.559 6.96188 95.6905 6.32546 95.8562 5.80091L93.949 5.19865C93.7373 5.86906 93.5847 6.63077 93.4823 7.46188L95.4673 7.70643ZM95.8562 5.80091C96.0416 5.21368 96.2828 4.71802 96.5902 4.30326L94.9833 3.11248C94.5182 3.7401 94.1868 4.44548 93.949 5.19865L95.8562 5.80091ZM99.3578 2.66154C100.314 2.44279 101.527 2.35454 103.066 2.43982L103.177 0.442884C101.514 0.350758 100.103 0.439322 98.9118 0.7119L99.3578 2.66154ZM106.923 2.90886C108.098 3.11349 109.388 3.38337 110.805 3.72333L111.272 1.77851C109.821 1.43049 108.489 1.15153 107.266 0.938503L106.923 2.90886ZM114.622 4.72308C115.824 5.06119 117.098 5.43892 118.448 5.85796L119.041 3.94783C117.676 3.52412 116.385 3.14127 115.164 2.79781L114.622 4.72308ZM122.257 7.0825C123.465 7.48319 124.725 7.91191 126.04 8.36955L126.697 6.4807C125.374 6.02013 124.104 5.58823 122.886 5.18421L122.257 7.0825ZM129.8 9.7036C131.007 10.1395 132.256 10.5969 133.547 11.0764L134.243 9.20157C132.947 8.72008 131.693 8.26053 130.479 7.82242L129.8 9.7036ZM137.292 12.4843C138.509 12.9471 139.761 13.4277 141.049 13.9264L141.771 12.0615C140.48 11.5613 139.224 11.0792 138.003 10.6148L137.292 12.4843ZM144.788 15.3871C145.991 15.8606 147.222 16.3486 148.483 16.8515L149.224 14.9939C147.961 14.4899 146.726 14.0007 145.521 13.5261L144.788 15.3871ZM152.217 18.3498C153.431 18.8398 154.671 19.3427 155.936 19.8585L156.691 18.0064C155.423 17.4898 154.182 16.9861 152.965 16.4951L152.217 18.3498ZM159.622 21.3676C160.851 21.8728 162.103 22.3895 163.379 22.9179L164.144 21.0703C162.867 20.5412 161.614 20.0238 160.383 19.5179L159.622 21.3676ZM167.027 24.4348C168.251 24.9455 169.496 25.4663 170.762 25.9974L171.536 24.1532C170.269 23.6216 169.023 23.1002 167.797 22.5889L167.027 24.4348ZM174.421 27.5371C175.644 28.0532 176.886 28.5785 178.147 29.113L178.928 27.2716C177.666 26.7367 176.423 26.211 175.198 25.6944L174.421 27.5371ZM181.802 30.666C183.029 31.1883 184.272 31.7189 185.533 32.2581L186.32 30.4191C185.058 29.8796 183.813 29.3485 182.586 28.8259L181.802 30.666ZM189.173 33.817C190.402 34.3443 191.647 34.8794 192.908 35.4222L193.699 33.5852C192.437 33.042 191.192 32.5067 189.962 31.979L189.173 33.817ZM196.541 36.9884C197.761 37.5151 198.995 38.0488 200.244 38.5895L201.039 36.7542C199.789 36.2131 198.554 35.6792 197.334 35.1523L196.541 36.9884ZM203.915 40.1807C205.123 40.7053 206.345 41.2362 207.58 41.7736L208.378 39.9396C207.142 39.402 205.92 38.8709 204.711 38.3461L203.915 40.1807ZM211.304 43.3956C212.5 43.917 213.707 44.4441 214.927 44.9772L215.728 43.1444C214.508 42.6112 213.299 42.0838 212.103 41.5623L211.304 43.3956ZM218.625 46.594C219.247 46.8664 219.873 47.1403 220.501 47.4157L221.304 45.5838C220.675 45.3083 220.049 45.0343 219.427 44.7618L218.625 46.594ZM220.441 47.387C221.096 47.7277 221.818 47.9459 222.587 48.0627L222.888 46.0854C222.3 45.9961 221.794 45.8364 221.364 45.6126L220.441 47.387ZM226.79 47.8976C228.009 47.6738 229.313 47.3175 230.684 46.8525L230.042 44.9585C228.738 45.4006 227.53 45.7283 226.429 45.9304L226.79 47.8976ZM234.401 45.4089C235.553 44.9116 236.745 44.3571 237.968 43.7541L237.084 41.9601C235.886 42.5507 234.725 43.0907 233.609 43.5725L234.401 45.4089ZM241.469 41.9476C242.592 41.3444 243.736 40.7091 244.896 40.0474L243.906 38.3099C242.758 38.9644 241.628 39.5915 240.522 40.1857L241.469 41.9476ZM248.272 38.0792C249.376 37.4219 250.492 36.7461 251.615 36.0562L250.568 34.3521C249.452 35.0377 248.344 35.7086 247.249 36.3605L248.272 38.0792ZM254.931 33.9936C256.027 33.3046 257.126 32.6064 258.226 31.9029L257.149 30.2179C256.052 30.9192 254.957 31.6147 253.866 32.3005L254.931 33.9936ZM261.506 29.7934C262.598 29.0869 263.689 28.379 264.774 27.6736L263.683 25.9969C262.599 26.7018 261.51 27.4087 260.42 28.1138L261.506 29.7934ZM268.038 25.5494C269.137 24.8341 270.226 24.1257 271.304 23.4281L270.217 21.7494C269.137 22.4482 268.046 23.1575 266.947 23.873L268.038 25.5494ZM274.575 21.3202C275.689 20.6074 276.784 19.9119 277.856 19.2387L276.793 17.5448C275.714 18.2218 274.614 18.9206 273.497 19.6359L274.575 21.3202ZM281.147 17.2023C282.296 16.5037 283.41 15.8402 284.484 15.219L283.482 13.4879C282.393 14.1178 281.267 14.7889 280.108 15.4937L281.147 17.2023ZM287.853 13.3424C289.08 12.6897 290.23 12.1179 291.292 11.639L290.47 9.81581C289.359 10.3167 288.169 10.909 286.914 11.5765L287.853 13.3424ZM294.788 10.3198C295.438 10.1397 296.001 10.0339 296.479 9.99705L296.326 8.00295C295.683 8.05237 294.988 8.18886 294.254 8.39258L294.788 10.3198ZM296.479 9.99705C297.113 9.94832 297.763 9.88358 298.426 9.8076L298.199 7.82061C297.554 7.89443 296.929 7.95653 296.326 8.00295L296.479 9.99705ZM302.274 9.29068C303.526 9.10747 304.795 8.91595 306.078 8.73783L305.803 6.75681C304.51 6.93627 303.225 7.13032 301.985 7.31174L302.274 9.29068ZM309.861 8.27848C311.136 8.15271 312.396 8.06533 313.626 8.03908L313.583 6.03953C312.29 6.06715 310.976 6.15875 309.664 6.28813L309.861 8.27848ZM317.339 8.18104C318.601 8.31924 319.791 8.55916 320.891 8.92634L321.524 7.02915C320.263 6.60837 318.93 6.34332 317.557 6.19294L317.339 8.18104ZM324.027 10.5223C324.928 11.1876 325.731 12.0172 326.415 13.0488L328.082 11.9435C327.269 10.7167 326.303 9.71694 325.215 8.91341L324.027 10.5223ZM327.931 16.2784C328.267 17.3282 328.528 18.5124 328.7 19.8472L330.683 19.5921C330.498 18.1521 330.213 16.8474 329.835 15.6679L327.931 16.2784ZM328.935 23.5694C328.939 24.1766 328.929 24.8068 328.903 25.4608L330.902 25.5392C330.929 24.8562 330.94 24.1954 330.935 23.5561L328.935 23.5694ZM328.903 25.4608C328.877 26.1249 328.841 26.7944 328.794 27.4688L330.789 27.6072C330.837 26.9138 330.875 26.2243 330.902 25.5392L328.903 25.4608ZM328.408 31.4848C328.248 32.8082 328.057 34.1457 327.838 35.4943L329.812 35.8148C330.035 34.4423 330.23 33.0777 330.394 31.7247L328.408 31.4848ZM327.121 39.4847C326.862 40.8044 326.583 42.131 326.287 43.4615L328.24 43.8955C328.539 42.5505 328.821 41.2073 329.083 39.8689L327.121 39.4847ZM325.364 47.4243C325.044 48.7419 324.712 50.0602 324.373 51.3764L326.309 51.8758C326.651 50.5521 326.985 49.2246 327.307 47.8963L325.364 47.4243ZM323.335 55.3206C322.981 56.6415 322.624 57.9569 322.268 59.2647L324.198 59.79C324.554 58.4814 324.912 57.1627 325.266 55.8377L323.335 55.3206ZM321.195 63.2078C320.833 64.5398 320.478 65.8604 320.133 67.1657L322.066 67.6768C322.41 66.3773 322.764 65.0614 323.125 63.7314L321.195 63.2078ZM319.108 71.1377C318.77 72.4897 318.449 73.8217 318.152 75.1292L320.102 75.5725C320.396 74.2817 320.713 72.9641 321.048 71.6231L319.108 71.1377ZM317.3 79.1652C317.031 80.5618 316.799 81.9246 316.612 83.2475L318.592 83.5273C318.774 82.2428 319 80.9132 319.264 79.5435L317.3 79.1652ZM316.176 87.3869C316.081 88.8504 316.064 90.2548 316.14 91.5887L318.137 91.4751C318.066 90.2363 318.082 88.9141 318.171 87.5152L316.176 87.3869ZM316.779 95.8301C316.969 96.5482 317.202 97.2374 317.483 97.8939L319.322 97.1061C319.082 96.5471 318.879 95.9511 318.712 95.3183L316.779 95.8301ZM317.483 97.8939C317.737 98.4856 318.047 99.1002 318.405 99.7336L320.146 98.7487C319.816 98.1666 319.541 97.6182 319.322 97.1061L317.483 97.8939ZM320.625 103.116C321.367 104.127 322.198 105.178 323.104 106.259L324.637 104.975C323.753 103.92 322.949 102.903 322.238 101.933L320.625 103.116ZM325.725 109.25C326.587 110.195 327.495 111.158 328.439 112.132L329.875 110.74C328.943 109.779 328.05 108.831 327.202 107.902L325.725 109.25ZM331.23 114.94C332.156 115.85 333.107 116.766 334.076 117.683L335.451 116.23C334.49 115.321 333.548 114.415 332.632 113.514L331.23 114.94ZM336.968 120.371C337.936 121.256 338.916 122.138 339.903 123.013L341.23 121.518C340.251 120.648 339.278 119.773 338.318 118.895L336.968 120.371ZM342.873 125.613C343.875 126.478 344.878 127.333 345.877 128.173L347.164 126.642C346.172 125.807 345.175 124.958 344.18 124.099L342.873 125.613ZM348.908 130.689C349.946 131.54 350.974 132.371 351.983 133.176L353.23 131.612C352.228 130.813 351.207 129.988 350.175 129.142L348.908 130.689ZM355.078 135.61C356.163 136.45 357.217 137.253 358.23 138.011L359.428 136.409C358.424 135.659 357.38 134.863 356.303 134.029L355.078 135.61ZM361.421 140.347C362.602 141.19 363.699 141.947 364.69 142.603L365.794 140.935C364.826 140.295 363.749 139.552 362.583 138.719L361.421 140.347ZM368.131 144.698C368.574 144.931 368.979 145.123 369.333 145.258C369.661 145.384 370.042 145.5 370.403 145.5V143.5C370.422 143.5 370.324 143.496 370.047 143.39C369.796 143.294 369.469 143.142 369.065 142.929L368.131 144.698ZM370.403 145.5C370.89 145.5 371.554 145.473 372.337 145.401L372.154 143.409C371.424 143.476 370.822 143.5 370.403 143.5V145.5ZM376.127 144.799C377.316 144.529 378.579 144.16 379.819 143.66L379.071 141.805C377.948 142.257 376.791 142.597 375.684 142.849L376.127 144.799ZM383.283 141.805C384.369 141.036 385.36 140.103 386.151 138.973L384.512 137.826C383.875 138.737 383.061 139.512 382.128 140.172L383.283 141.805ZM387.766 135.226C388.019 134.012 388.076 132.679 387.903 131.22L385.917 131.454C386.067 132.72 386.013 133.834 385.808 134.818L387.766 135.226ZM387.014 127.417C386.816 126.831 386.586 126.229 386.323 125.609L384.482 126.39C384.727 126.967 384.939 127.523 385.12 128.058L387.014 127.417ZM386.323 125.609C386.079 125.034 385.825 124.436 385.561 123.818L383.721 124.602C383.984 125.219 384.238 125.816 384.482 126.39L386.323 125.609ZM384.033 120.23C383.543 119.076 383.035 117.875 382.514 116.636L380.67 117.41C381.192 118.653 381.702 119.857 382.193 121.012L384.033 120.23ZM381.019 113.043C380.532 111.864 380.041 110.66 379.549 109.439L377.694 110.186C378.188 111.413 378.681 112.622 379.17 113.806L381.019 113.043ZM378.113 105.819C377.643 104.616 377.177 103.404 376.719 102.188L374.848 102.892C375.308 104.117 375.777 105.337 376.25 106.547L378.113 105.819ZM375.377 98.539C374.937 97.3126 374.509 96.0888 374.098 94.8739L372.204 95.5146C372.619 96.7423 373.051 97.9778 373.495 99.2148L375.377 98.539ZM372.896 91.1838C372.503 89.9255 372.134 88.6848 371.794 87.4692L369.868 88.0084C370.214 89.2453 370.589 90.5051 370.987 91.7802L372.896 91.1838ZM370.823 83.7313C370.514 82.4298 370.249 81.172 370.034 79.9678L368.065 80.3191C368.287 81.5658 368.561 82.8609 368.877 84.1933L370.823 83.7313ZM369.516 76.1875C369.394 74.8208 369.368 73.5728 369.446 72.4603L367.451 72.3204C367.364 73.5632 367.395 74.9203 367.523 76.3641L369.516 76.1875ZM370.217 69.0225C370.464 68.4899 370.763 68.0541 371.11 67.7069L369.695 66.2927C369.159 66.8292 368.733 67.468 368.403 68.1822L370.217 69.0225ZM371.11 67.7069C371.536 67.2807 372.028 66.8569 372.581 66.4398L371.377 64.8429C370.761 65.3076 370.196 65.7918 369.695 66.2927L371.11 67.7069ZM375.975 64.357C377.12 63.7743 378.369 63.2351 379.689 62.7537L379.003 60.8748C377.615 61.3813 376.292 61.9521 375.068 62.5743L375.975 64.357ZM383.574 61.5613C384.882 61.2313 386.219 60.9628 387.56 60.7662L387.27 58.7874C385.86 58.9941 384.456 59.276 383.085 59.622L383.574 61.5613ZM391.595 60.4015C392.973 60.3582 394.321 60.4043 395.613 60.5494L395.836 58.562C394.439 58.4049 392.994 58.3566 391.532 58.4025L391.595 60.4015ZM399.493 61.3563C400.786 61.772 401.957 62.3255 402.972 63.0256L404.107 61.379C402.907 60.5512 401.554 59.918 400.105 59.4522L399.493 61.3563ZM405.606 65.6965C405.941 66.2091 406.232 66.7663 406.474 67.3712L408.331 66.6284C408.041 65.9022 407.689 65.2275 407.281 64.603L405.606 65.6965ZM406.474 67.3712C406.728 68.006 406.994 68.6583 407.27 69.3249L409.118 68.5604C408.845 67.9003 408.582 67.2552 408.331 66.6284L406.474 67.3712ZM408.914 73.2021C409.462 74.4652 410.031 75.7549 410.612 77.0527L412.438 76.2354C411.86 74.9439 411.293 73.6614 410.749 72.4065L408.914 73.2021ZM412.349 80.8832C412.94 82.1705 413.532 83.4483 414.117 84.6985L415.929 83.8509C415.346 82.6049 414.755 81.3317 414.167 80.0493L412.349 80.8832ZM415.911 88.4994C416.545 89.8312 417.156 91.1033 417.73 92.2892L419.53 91.418C418.958 90.2357 418.349 88.9675 417.717 87.6398L415.911 88.4994ZM419.573 96.0638C419.916 96.7576 420.229 97.3889 420.508 97.9472L422.297 97.0528C422.02 96.4981 421.708 95.8701 421.367 95.1791L419.573 96.0638Z" fill="#9F9F9F"/>
</svg>
