<svg width="282" height="160" viewBox="0 0 282 160" fill="none" xmlns="http://www.w3.org/2000/svg">
<path d="M0.355279 38.104C-0.407077 40.9492 1.28136 43.8736 4.12652 44.636C6.97167 45.3983 9.89613 43.7099 10.6585 40.8647C11.4208 38.0196 9.73241 35.0951 6.88725 34.3328C4.0421 33.5704 1.11764 35.2589 0.355279 38.104ZM20.9617 43.6255L21.5295 44.4486L20.9617 43.6255ZM49.3804 34.1582L48.8986 35.0345L49.3804 34.1582ZM98.7924 110.55L99.7879 110.455C99.7873 110.449 99.7866 110.443 99.7859 110.437L98.7924 110.55ZM153.201 156.705L152.675 157.555L153.201 156.705ZM170.407 150.445L169.615 149.834L170.407 150.445ZM197.583 49.0225L196.77 48.441L197.583 49.0225ZM217.634 61.1244L218.564 60.7566L217.634 61.1244ZM216.929 4.51285C216.167 7.358 217.855 10.2825 220.7 11.0448C223.545 11.8072 226.47 10.1187 227.232 7.27359C227.994 4.42843 226.306 1.50397 223.461 0.741614C220.616 -0.0207445 217.691 1.6677 216.929 4.51285ZM5.93096 42.0459C6.26203 42.4879 6.88877 42.5779 7.33082 42.2468C7.77288 41.9158 7.86286 41.289 7.53179 40.847L5.93096 42.0459ZM10.6277 43.7223C10.1553 43.4362 9.5404 43.5872 9.25427 44.0595C8.96813 44.5319 9.11912 45.1468 9.5915 45.433L10.6277 43.7223ZM14.4866 46.8727C15.0389 46.8797 15.4922 46.4377 15.4992 45.8854C15.5062 45.3332 15.0642 44.8799 14.5119 44.8729L14.4866 46.8727ZM18.5273 43.899C18.0301 44.1393 17.8218 44.7372 18.0621 45.2345C18.3025 45.7317 18.9004 45.94 19.3977 45.6996L18.5273 43.899ZM23.1269 43.3658C23.5866 43.0597 23.7111 42.4389 23.405 41.9792C23.0989 41.5195 22.4781 41.3949 22.0184 41.701L23.1269 43.3658ZM25.3222 39.5861C24.8515 39.8749 24.704 40.4907 24.9929 40.9614C25.2817 41.4321 25.8975 41.5796 26.3682 41.2908L25.3222 39.5861ZM29.6853 39.3531C30.1686 39.0857 30.3435 38.4772 30.0761 37.994C29.8088 37.5107 29.2002 37.3358 28.717 37.6032L29.6853 39.3531ZM32.2176 35.7887C31.72 36.0283 31.5107 36.6258 31.7502 37.1235C31.9897 37.6211 32.5873 37.8304 33.085 37.5909L32.2176 35.7887ZM36.5742 36.0635C37.0886 35.8625 37.3427 35.2826 37.1417 34.7682C36.9407 34.2537 36.3608 33.9997 35.8464 34.2006L36.5742 36.0635ZM39.6376 32.9402C39.1042 33.0832 38.7877 33.6316 38.9307 34.1651C39.0738 34.6985 39.6222 35.015 40.1556 34.8719L39.6376 32.9402ZM43.7951 34.206C44.3455 34.1602 44.7546 33.677 44.7089 33.1266C44.6631 32.5762 44.1799 32.1671 43.6295 32.2128L43.7951 34.206ZM47.8192 32.4887C47.2837 32.3536 46.74 32.6782 46.605 33.2137C46.4699 33.7492 46.7945 34.2928 47.33 34.4279L47.8192 32.4887ZM50.6899 35.9677C51.1825 36.2173 51.7842 36.0204 52.0339 35.5277C52.2835 35.0351 52.0865 34.4333 51.5939 34.1837L50.6899 35.9677ZM55.148 36.0085C54.6601 35.7497 54.0548 35.9355 53.7961 36.4235C53.5373 36.9114 53.7232 37.5167 54.2111 37.7754L55.148 36.0085ZM57.6551 39.6946C58.1314 39.9743 58.7442 39.815 59.0239 39.3388C59.3036 38.8626 59.1443 38.2498 58.6681 37.9701L57.6551 39.6946ZM62.0934 40.0989C61.6319 39.7954 61.0119 39.9234 60.7084 40.3849C60.4049 40.8463 60.533 41.4664 60.9944 41.7699L62.0934 40.0989ZM64.2191 44.0159C64.6636 44.3436 65.2897 44.249 65.6174 43.8044C65.9452 43.3599 65.8505 42.7339 65.406 42.4061L64.2191 44.0159ZM68.5812 44.8836C68.1553 44.5321 67.525 44.5924 67.1734 45.0184C66.8219 45.4443 66.8822 46.0746 67.3082 46.4262L68.5812 44.8836ZM70.2723 49.0133C70.6782 49.3878 71.3109 49.3623 71.6854 48.9565C72.0599 48.5505 72.0345 47.9179 71.6286 47.5434L70.2723 49.0133ZM74.5134 50.3554C74.1286 49.9592 73.4955 49.95 73.0994 50.3348C72.7032 50.7196 72.694 51.3527 73.0788 51.7489L74.5134 50.3554ZM75.7452 54.6475C76.108 55.0639 76.7397 55.1074 77.1561 54.7446C77.5725 54.3818 77.616 53.7501 77.2532 53.3337L75.7452 54.6475ZM79.8169 56.4388C79.4765 56.0038 78.848 55.9271 78.4131 56.2674C77.9781 56.6077 77.9014 57.2362 78.2417 57.6712L79.8169 56.4388ZM80.5803 60.8247C80.8979 61.2765 81.5216 61.3854 81.9735 61.0678C82.4253 60.7503 82.5342 60.1265 82.2167 59.6747L80.5803 60.8247ZM84.4523 63.031C84.1576 62.5639 83.54 62.4242 83.073 62.719C82.6059 63.0137 82.4662 63.6313 82.761 64.0984L84.4523 63.031ZM84.7819 67.4781C85.054 67.9587 85.6642 68.1277 86.1448 67.8556C86.6254 67.5835 86.7944 66.9733 86.5223 66.4927L84.7819 67.4781ZM88.4275 70.0455C88.1776 69.553 87.5757 69.3563 87.0832 69.6062C86.5907 69.8561 86.394 70.458 86.6439 70.9505L88.4275 70.0455ZM88.3496 74.5028C88.5779 75.0057 89.1706 75.2284 89.6735 75.0001C90.1764 74.7718 90.3991 74.1791 90.1708 73.6762L88.3496 74.5028ZM91.7568 77.3731C91.5495 76.8612 90.9665 76.6143 90.4546 76.8216C89.9427 77.0289 89.6958 77.612 89.9031 78.1239L91.7568 77.3731ZM91.3096 81.8039C91.4967 82.3235 92.0697 82.593 92.5893 82.4058C93.1089 82.2187 93.3784 81.6458 93.1913 81.1261L91.3096 81.8039ZM94.4806 84.927C94.3128 84.4008 93.7502 84.1103 93.224 84.2781C92.6978 84.4459 92.4073 85.0085 92.5751 85.5347L94.4806 84.927ZM93.7062 89.3101C93.8555 89.8418 94.4076 90.1518 94.9393 90.0025C95.471 89.8532 95.781 89.3011 95.6317 88.7694L93.7062 89.3101ZM96.6518 92.6488C96.5201 92.1124 95.9785 91.7844 95.4422 91.9161C94.9058 92.0478 94.5778 92.5893 94.7095 93.1257L96.6518 92.6488ZM95.5914 96.9786C95.7063 97.5188 96.2374 97.8636 96.7776 97.7487C97.3178 97.6338 97.6626 97.1027 97.5477 96.5625L95.5914 96.9786ZM98.326 100.51C98.2271 99.9663 97.7064 99.606 97.1631 99.7049C96.6197 99.8038 96.2594 100.325 96.3584 100.868L98.326 100.51ZM97.0125 104.77C97.0963 105.316 97.6068 105.691 98.1527 105.607C98.6986 105.523 99.0731 105.013 98.9893 104.467L97.0125 104.77ZM99.5429 108.419C99.4734 107.871 98.9729 107.483 98.425 107.553C97.8771 107.623 97.4893 108.123 97.5589 108.671L99.5429 108.419ZM98.0373 112.757C98.1104 113.305 98.6134 113.689 99.1608 113.616C99.7083 113.543 100.093 113.04 100.02 112.493L98.0373 112.757ZM100.734 116.496C100.611 115.957 100.075 115.621 99.5363 115.744C98.9979 115.867 98.6613 116.403 98.7844 116.941L100.734 116.496ZM99.9774 121.042C100.166 121.561 100.739 121.829 101.258 121.641C101.777 121.453 102.046 120.88 101.858 120.361L99.9774 121.042ZM103.505 123.983C103.233 123.502 102.623 123.333 102.142 123.605C101.662 123.878 101.493 124.488 101.765 124.968L103.505 123.983ZM104.316 128.513C104.69 128.919 105.322 128.946 105.729 128.573C106.136 128.2 106.163 127.567 105.789 127.16L104.316 128.513ZM108.768 129.616C108.295 129.33 107.68 129.482 107.395 129.955C107.11 130.428 107.262 131.043 107.735 131.328L108.768 129.616ZM111.837 133.02C112.373 133.152 112.915 132.824 113.047 132.288C113.179 131.752 112.851 131.21 112.315 131.078L111.837 133.02ZM116.168 131.472C115.616 131.488 115.181 131.949 115.198 132.501C115.214 133.053 115.675 133.487 116.227 133.471L116.168 131.472ZM120.558 132.824C121.091 132.68 121.407 132.132 121.264 131.599C121.12 131.065 120.572 130.749 120.038 130.893L120.558 132.824ZM123.674 129.451C123.19 129.716 123.012 130.324 123.277 130.808C123.542 131.293 124.149 131.471 124.634 131.206L123.674 129.451ZM128.214 128.811C128.686 128.524 128.836 127.909 128.549 127.437C128.263 126.965 127.648 126.815 127.176 127.101L128.214 128.811ZM131.307 125.127C130.788 125.315 130.519 125.888 130.707 126.407C130.894 126.927 131.468 127.196 131.987 127.008L131.307 125.127ZM136.009 126.053C136.558 125.997 136.958 125.507 136.902 124.957C136.846 124.408 136.356 124.008 135.806 124.064L136.009 126.053ZM140.566 124.504C140.043 124.326 139.475 124.606 139.297 125.128C139.119 125.651 139.399 126.219 139.921 126.397L140.566 124.504ZM142.824 128.618C143.129 129.079 143.749 129.206 144.21 128.901C144.671 128.596 144.797 127.976 144.493 127.515L142.824 128.618ZM146.063 132.052C145.991 131.504 145.488 131.119 144.941 131.191C144.393 131.263 144.008 131.765 144.08 132.312L146.063 132.052ZM144.247 136.464C144.268 137.016 144.732 137.447 145.284 137.426C145.836 137.406 146.266 136.942 146.246 136.39L144.247 136.464ZM146.556 140.389C146.49 139.841 145.991 139.45 145.443 139.516C144.895 139.583 144.504 140.081 144.57 140.629L146.556 140.389ZM145.278 144.766C145.4 145.305 145.936 145.642 146.474 145.521C147.013 145.399 147.351 144.863 147.229 144.324L145.278 144.766ZM148.342 148.126C148.151 147.608 147.576 147.343 147.058 147.533C146.54 147.724 146.274 148.299 146.465 148.817L148.342 148.126ZM148.267 152.685C148.545 153.162 149.158 153.323 149.635 153.044C150.111 152.766 150.272 152.153 149.994 151.676L148.267 152.685ZM152.303 154.717C151.909 154.33 151.276 154.337 150.889 154.732C150.503 155.126 150.509 155.759 150.904 156.146L152.303 154.717ZM154.346 158.378C154.863 158.573 155.44 158.313 155.635 157.796C155.83 157.279 155.57 156.702 155.053 156.507L154.346 158.378ZM157.974 157.024C157.422 157.025 156.976 157.474 156.977 158.027C156.979 158.579 157.428 159.025 157.98 159.024L157.974 157.024ZM161.57 158.443C162.097 158.276 162.388 157.714 162.222 157.188C162.055 156.661 161.493 156.369 160.966 156.536L161.57 158.443ZM163.788 155.243C163.315 155.528 163.161 156.142 163.446 156.615C163.73 157.089 164.345 157.242 164.818 156.958L163.788 155.243ZM167.656 154.871C168.071 154.507 168.113 153.875 167.749 153.46C167.385 153.044 166.754 153.003 166.338 153.366L167.656 154.871ZM168.592 151.087C168.231 151.504 168.276 152.136 168.693 152.497C169.111 152.859 169.742 152.814 170.104 152.397L168.592 151.087ZM172.28 149.146C172.511 148.644 172.292 148.051 171.79 147.82C171.288 147.589 170.694 147.808 170.463 148.31L172.28 149.146ZM171.897 144.626C171.716 145.148 171.993 145.718 172.515 145.899C173.037 146.079 173.606 145.803 173.787 145.281L171.897 144.626ZM175.053 141.379C175.215 140.851 174.919 140.292 174.391 140.129C173.863 139.967 173.304 140.264 173.141 140.791L175.053 141.379ZM174.28 136.946C174.128 137.477 174.435 138.031 174.966 138.183C175.497 138.335 176.051 138.028 176.203 137.497L174.28 136.946ZM177.297 133.585C177.442 133.052 177.128 132.502 176.596 132.357C176.063 132.211 175.513 132.525 175.367 133.058L177.297 133.585ZM176.415 129.154C176.274 129.688 176.593 130.235 177.127 130.376C177.661 130.517 178.208 130.198 178.349 129.664L176.415 129.154ZM179.37 125.74C179.507 125.205 179.185 124.66 178.65 124.522C178.115 124.385 177.57 124.707 177.433 125.242L179.37 125.74ZM178.428 121.325C178.293 121.861 178.618 122.404 179.154 122.539C179.689 122.674 180.233 122.349 180.368 121.813L178.428 121.325ZM181.347 117.884C181.48 117.348 181.153 116.806 180.617 116.673C180.081 116.54 179.539 116.868 179.406 117.404L181.347 117.884ZM180.37 113.477C180.239 114.014 180.568 114.555 181.105 114.686C181.641 114.816 182.182 114.488 182.313 113.951L180.37 113.477ZM183.268 110.015C183.398 109.478 183.068 108.938 182.531 108.809C181.994 108.679 181.454 109.009 181.324 109.546L183.268 110.015ZM182.269 105.612C182.141 106.149 182.472 106.689 183.009 106.817C183.546 106.946 184.086 106.614 184.214 106.077L182.269 105.612ZM185.153 102.138C185.28 101.601 184.948 101.062 184.411 100.934C183.874 100.807 183.335 101.139 183.207 101.676L185.153 102.138ZM184.139 97.7399C184.012 98.2774 184.345 98.816 184.883 98.9431C185.42 99.0701 185.959 98.7373 186.086 98.1998L184.139 97.7399ZM187.014 94.2637C187.141 93.7261 186.808 93.1877 186.27 93.0611C185.733 92.9345 185.194 93.2676 185.067 93.8052L187.014 94.2637ZM185.994 89.8674C185.867 90.405 186.201 90.9433 186.738 91.0697C187.276 91.1961 187.814 90.8627 187.941 90.3251L185.994 89.8674ZM188.867 86.3841C188.993 85.8464 188.66 85.3082 188.122 85.1818C187.585 85.0554 187.046 85.3888 186.92 85.9264L188.867 86.3841ZM187.847 81.9847C187.721 82.5223 188.054 83.0607 188.592 83.1873C189.129 83.3139 189.668 82.9808 189.794 82.4432L187.847 81.9847ZM190.724 78.5037C190.851 77.9662 190.518 77.4275 189.981 77.3003C189.443 77.1732 188.904 77.5059 188.777 78.0434L190.724 78.5037ZM189.712 74.1032C189.584 74.6405 189.916 75.1798 190.453 75.3077C190.991 75.4357 191.53 75.1039 191.658 74.5666L189.712 74.1032ZM192.599 70.6338C192.728 70.0969 192.398 69.5568 191.861 69.4276C191.324 69.2983 190.784 69.6288 190.655 70.1657L192.599 70.6338ZM191.608 66.2342C191.477 66.7707 191.806 67.312 192.342 67.4433C192.879 67.5745 193.42 67.246 193.551 66.7095L191.608 66.2342ZM194.517 62.8051C194.652 62.2694 194.326 61.7263 193.79 61.592C193.255 61.4577 192.712 61.7831 192.577 62.3188L194.517 62.8051ZM193.588 58.3604C193.449 58.8948 193.769 59.4411 194.303 59.5806C194.838 59.72 195.384 59.3999 195.523 58.8655L193.588 58.3604ZM196.568 54.992C196.718 54.4604 196.408 53.9082 195.876 53.7587C195.345 53.6092 194.792 53.9189 194.643 54.4506L196.568 54.992ZM195.836 50.5442C195.655 51.0659 195.932 51.6357 196.453 51.8168C196.975 51.9979 197.545 51.7218 197.726 51.2L195.836 50.5442ZM199.543 48.1339C199.902 47.7149 199.854 47.0836 199.435 46.7238C199.016 46.364 198.385 46.412 198.025 46.831L199.543 48.1339ZM201.219 44.0678C200.74 44.3412 200.572 44.9519 200.846 45.4317C201.119 45.9116 201.73 46.079 202.209 45.8056L201.219 44.0678ZM205.27 45.2227C205.812 45.3297 206.338 44.9772 206.445 44.4353C206.552 43.8935 206.199 43.3676 205.658 43.2606L205.27 45.2227ZM209.521 45.3208C209.106 44.9567 208.474 44.998 208.11 45.4132C207.745 45.8284 207.787 46.4602 208.202 46.8244L209.521 45.3208ZM210.629 49.5688C210.953 50.0158 211.578 50.1153 212.025 49.791C212.472 49.4667 212.572 48.8414 212.248 48.3943L210.629 49.5688ZM214.396 51.7812C214.125 51.3001 213.515 51.1299 213.034 51.401C212.553 51.6722 212.382 52.2821 212.654 52.7632L214.396 51.7812ZM214.413 56.1799C214.65 56.6789 215.246 56.8914 215.745 56.6546C216.244 56.4179 216.457 55.8214 216.22 55.3225L214.413 56.1799ZM217.821 58.9283C217.609 58.4187 217.023 58.178 216.513 58.3907C216.004 58.6034 215.763 59.189 215.976 59.6987L217.821 58.9283ZM217.328 63.2148C217.502 63.7392 218.068 64.0237 218.592 63.8502C219.116 63.6768 219.401 63.1112 219.227 62.5868L217.328 63.2148ZM220.252 66.3272C220.132 65.788 219.598 65.4479 219.059 65.5676C218.52 65.6872 218.18 66.2212 218.3 66.7604L220.252 66.3272ZM218.943 70.3996C219.017 70.9469 219.521 71.3304 220.069 71.2562C220.616 71.1821 220.999 70.6783 220.925 70.131L218.943 70.3996ZM221.308 73.9621C221.271 73.4111 220.794 72.9943 220.243 73.0313C219.692 73.0682 219.276 73.5449 219.313 74.0959L221.308 73.9621ZM219.457 77.8171C219.465 78.3693 219.918 78.8112 220.47 78.804C221.022 78.7968 221.464 78.3434 221.457 77.7911L219.457 77.8171ZM221.423 81.6141C221.439 81.0621 221.004 80.6014 220.452 80.5853C219.9 80.5691 219.44 81.0036 219.424 81.5556L221.423 81.6141ZM219.251 85.3009C219.217 85.8522 219.636 86.3265 220.188 86.3603C220.739 86.3942 221.213 85.9748 221.247 85.4235L219.251 85.3009ZM220.967 89.2169C221.014 88.6666 220.606 88.1827 220.055 88.1362C219.505 88.0896 219.021 88.498 218.974 89.0483L220.967 89.2169ZM218.627 92.7983C218.572 93.3478 218.973 93.8377 219.523 93.8923C220.072 93.947 220.562 93.5458 220.617 92.9962L218.627 92.7983ZM220.227 96.7642C220.285 96.215 219.887 95.7225 219.338 95.6643C218.789 95.606 218.297 96.0039 218.238 96.5531L220.227 96.7642ZM217.84 100.316C217.782 100.865 218.181 101.357 218.731 101.414C219.28 101.471 219.772 101.072 219.829 100.523L217.84 100.316ZM219.456 104.271C219.507 103.721 219.103 103.234 218.553 103.183C218.003 103.131 217.516 103.536 217.465 104.086L219.456 104.271ZM217.151 107.88C217.113 108.431 217.528 108.909 218.079 108.947C218.63 108.986 219.108 108.571 219.146 108.02L217.151 107.88ZM218.948 111.76C218.966 111.208 218.533 110.746 217.981 110.728C217.43 110.709 216.967 111.142 216.949 111.694L218.948 111.76ZM216.922 115.531C216.935 116.083 217.393 116.52 217.945 116.507C218.497 116.494 218.935 116.036 218.922 115.484L216.922 115.531ZM219.154 119.171C219.094 118.622 218.601 118.225 218.052 118.285C217.503 118.345 217.106 118.838 217.166 119.387L219.154 119.171ZM217.819 123.238C217.949 123.775 218.489 124.106 219.026 123.976C219.563 123.847 219.893 123.307 219.764 122.77L217.819 123.238ZM220.906 126.167C220.678 125.664 220.086 125.44 219.583 125.668C219.079 125.895 218.856 126.488 219.083 126.991L220.906 126.167ZM221.115 130.527C221.414 130.992 222.033 131.125 222.497 130.826C222.962 130.527 223.096 129.908 222.797 129.444L221.115 130.527ZM225.077 132.764C224.75 132.319 224.124 132.223 223.679 132.549C223.234 132.876 223.137 133.502 223.464 133.947L225.077 132.764ZM226.038 137.216C226.395 137.638 227.026 137.69 227.448 137.332C227.869 136.975 227.921 136.344 227.564 135.923L226.038 137.216ZM230.276 138.871C229.885 138.481 229.252 138.482 228.862 138.873C228.472 139.265 228.473 139.898 228.864 140.288L230.276 138.871ZM231.974 143.096C232.403 143.444 233.033 143.378 233.381 142.949C233.729 142.521 233.663 141.891 233.234 141.543L231.974 143.096ZM236.456 143.849C235.987 143.558 235.371 143.702 235.079 144.171C234.788 144.64 234.932 145.256 235.401 145.548L236.456 143.849ZM239.162 147.511C239.67 147.726 240.257 147.489 240.472 146.98C240.688 146.472 240.45 145.885 239.942 145.669L239.162 147.511ZM243.653 146.859C243.114 146.741 242.581 147.084 242.463 147.623C242.346 148.163 242.688 148.696 243.228 148.813L243.653 146.859ZM247.493 149.287C248.046 149.29 248.496 148.845 248.498 148.292C248.501 147.74 248.056 147.29 247.503 147.287L247.493 149.287ZM251.355 146.895C250.814 147.008 250.467 147.538 250.58 148.079C250.693 148.619 251.223 148.966 251.764 148.853L251.355 146.895ZM255.73 147.578C256.233 147.35 256.455 146.757 256.226 146.254C255.998 145.751 255.405 145.529 254.902 145.758L255.73 147.578ZM258.102 143.952C257.642 144.257 257.517 144.878 257.822 145.338C258.128 145.798 258.749 145.923 259.209 145.617L258.102 143.952ZM262.358 143.265C262.784 142.913 262.844 142.283 262.492 141.857C262.14 141.431 261.51 141.372 261.084 141.723L262.358 143.265ZM263.879 139.216C263.482 139.6 263.472 140.233 263.856 140.63C264.24 141.027 264.873 141.037 265.27 140.653L263.879 139.216ZM267.979 137.85C268.35 137.44 268.319 136.808 267.91 136.437C267.5 136.066 266.868 136.097 266.497 136.507L267.979 137.85ZM268.946 133.636C268.6 134.067 268.668 134.696 269.099 135.042C269.529 135.388 270.159 135.319 270.505 134.889L268.946 133.636ZM272.853 131.787C273.173 131.337 273.069 130.713 272.619 130.393C272.169 130.072 271.545 130.177 271.224 130.627L272.853 131.787ZM273.322 127.491C273.029 127.959 273.171 128.576 273.639 128.869C274.107 129.162 274.724 129.02 275.017 128.552L273.322 127.491ZM276.979 125.184C277.241 124.698 277.059 124.092 276.573 123.83C276.086 123.568 275.48 123.75 275.218 124.236L276.979 125.184ZM276.875 120.866C276.651 121.371 276.879 121.962 277.384 122.186C277.888 122.41 278.479 122.182 278.703 121.678L276.875 120.866ZM280.13 118.023C280.305 117.499 280.023 116.933 279.499 116.757C278.975 116.582 278.408 116.865 278.233 117.389L280.13 118.023ZM279.196 113.809C279.088 114.351 279.441 114.877 279.982 114.984C280.524 115.092 281.05 114.739 281.158 114.198L279.196 113.809ZM281.596 110.212C281.602 109.66 281.16 109.207 280.608 109.2C280.055 109.194 279.602 109.636 279.596 110.188L281.596 110.212ZM279.183 106.669C279.328 107.202 279.878 107.516 280.411 107.371C280.943 107.226 281.258 106.677 281.113 106.144L279.183 106.669ZM279.451 102.361C279.189 101.875 278.582 101.693 278.096 101.955C277.61 102.217 277.428 102.823 277.69 103.309L279.451 102.361ZM275.692 99.7583C275.969 100.236 276.581 100.399 277.059 100.123C277.537 99.846 277.7 99.2342 277.423 98.7563L275.692 99.7583ZM275.358 95.2439C275.075 94.7694 274.462 94.6137 273.987 94.8962C273.513 95.1787 273.357 95.7924 273.639 96.267L275.358 95.2439ZM271.532 92.7562C271.818 93.2289 272.432 93.3804 272.905 93.0947C273.378 92.809 273.529 92.1943 273.244 91.7216L271.532 92.7562ZM271.113 88.2144C270.825 87.743 270.21 87.594 269.738 87.8816C269.267 88.1693 269.118 88.7847 269.406 89.2561L271.113 88.2144ZM267.273 85.7717C267.562 86.2424 268.177 86.3897 268.648 86.1008C269.119 85.8119 269.266 85.1961 268.977 84.7254L267.273 85.7717ZM266.836 81.2454C266.547 80.7752 265.93 80.629 265.46 80.9188C264.99 81.2085 264.844 81.8246 265.134 82.2947L266.836 81.2454ZM262.992 78.8238C263.282 79.2937 263.898 79.4392 264.368 79.1489C264.838 78.8586 264.983 78.2424 264.693 77.7726L262.992 78.8238ZM262.547 74.3026C262.257 73.833 261.64 73.6878 261.171 73.9784C260.701 74.269 260.556 74.8853 260.847 75.355L262.547 74.3026ZM258.699 71.8851C258.99 72.3547 259.606 72.4997 260.075 72.2089C260.545 71.9182 260.69 71.3019 260.399 70.8323L258.699 71.8851ZM258.25 67.3602C257.959 66.8906 257.343 66.7455 256.873 67.0362C256.404 67.3269 256.258 67.9432 256.549 68.4128L258.25 67.3602ZM254.399 64.9378C254.689 65.4075 255.306 65.5528 255.775 65.2623C256.245 64.9718 256.39 64.3555 256.1 63.8858L254.399 64.9378ZM253.952 60.4096C253.661 59.9397 253.045 59.794 252.575 60.0842C252.105 60.3743 251.96 60.9905 252.25 61.4604L253.952 60.4096ZM250.104 57.9815C250.393 58.4517 251.01 58.598 251.48 58.3083C251.95 58.0185 252.096 57.4025 251.806 56.9323L250.104 57.9815ZM249.667 53.455C249.377 52.9845 248.762 52.8374 248.291 53.1266C247.82 53.4157 247.673 54.0316 247.963 54.5021L249.667 53.455ZM245.826 51.0193C246.114 51.4903 246.73 51.6383 247.201 51.3499C247.672 51.0615 247.82 50.4459 247.532 49.9749L245.826 51.0193ZM245.401 46.4886C245.114 46.0171 244.499 45.8679 244.027 46.1554C243.555 46.4429 243.406 47.0582 243.694 47.5297L245.401 46.4886ZM241.568 44.0347C241.855 44.507 242.47 44.6576 242.942 44.3712C243.414 44.0848 243.565 43.4698 243.278 42.9976L241.568 44.0347ZM241.165 39.5021C240.88 39.0291 240.265 38.8767 239.792 39.1618C239.319 39.4469 239.167 40.0614 239.452 40.5345L241.165 39.5021ZM237.347 37.0282C237.63 37.5022 238.244 37.6567 238.718 37.3733C239.192 37.0898 239.347 36.4758 239.063 36.0018L237.347 37.0282ZM236.976 32.4951C236.695 32.0199 236.081 31.8628 235.606 32.1442C235.131 32.4257 234.974 33.039 235.255 33.5142L236.976 32.4951ZM233.18 29.9894C233.459 30.4661 234.071 30.6264 234.548 30.3475C235.025 30.0686 235.185 29.4561 234.906 28.9794L233.18 29.9894ZM232.857 25.4512C232.581 24.9726 231.97 24.8081 231.491 25.0838C231.013 25.3595 230.848 25.9709 231.124 26.4495L232.857 25.4512ZM229.093 22.8891C229.365 23.3702 229.975 23.5402 230.456 23.2688C230.937 22.9975 231.107 22.3876 230.835 21.9065L229.093 22.8891ZM228.854 18.3443C228.589 17.8598 227.981 17.6821 227.496 17.9473C227.012 18.2125 226.834 18.8202 227.099 19.3047L228.854 18.3443ZM225.168 15.7004C225.424 16.1899 226.028 16.3795 226.517 16.1238C227.007 15.868 227.197 15.2639 226.941 14.7744L225.168 15.7004ZM225.114 11.1392C224.876 10.6408 224.279 10.4297 223.781 10.6677C223.283 10.9057 223.072 11.5027 223.31 12.001L225.114 11.1392ZM221.653 8.15232C221.84 8.67203 222.413 8.94186 222.933 8.75499C223.452 8.56812 223.722 7.99533 223.535 7.47562L221.653 8.15232ZM4.61446 39.9356C4.95336 40.6059 5.39405 41.329 5.93096 42.0459L7.53179 40.847C7.06527 40.2241 6.68603 39.6003 6.39931 39.0332L4.61446 39.9356ZM9.5915 45.433C10.9847 46.2769 12.6274 46.8492 14.4866 46.8727L14.5119 44.8729C13.0624 44.8545 11.7644 44.4109 10.6277 43.7223L9.5915 45.433ZM19.3977 45.6996C20.0955 45.3623 20.8064 44.9475 21.5295 44.4486L20.3939 42.8023C19.7483 43.2477 19.1258 43.6097 18.5273 43.899L19.3977 45.6996ZM21.5295 44.4486C22.0659 44.0786 22.5985 43.7176 23.1269 43.3658L22.0184 41.701C21.4807 42.0591 20.9391 42.4262 20.3939 42.8023L21.5295 44.4486ZM26.3682 41.2908C27.4981 40.5975 28.6047 39.9511 29.6853 39.3531L28.717 37.6032C27.6083 38.2167 26.4758 38.8783 25.3222 39.5861L26.3682 41.2908ZM33.085 37.5909C34.2913 37.0103 35.4558 36.5004 36.5742 36.0635L35.8464 34.2006C34.6756 34.658 33.4645 35.1887 32.2176 35.7887L33.085 37.5909ZM40.1556 34.8719C41.4664 34.5204 42.6819 34.2985 43.7951 34.206L43.6295 32.2128C42.3758 32.317 41.041 32.5638 39.6376 32.9402L40.1556 34.8719ZM47.33 34.4279C47.9067 34.5734 48.429 34.7763 48.8986 35.0345L49.8621 33.2819C49.2303 32.9345 48.5466 32.6722 47.8192 32.4887L47.33 34.4279ZM48.8986 35.0345C49.4107 35.316 50.0156 35.626 50.6899 35.9677L51.5939 34.1837C50.9186 33.8415 50.3413 33.5453 49.8621 33.2819L48.8986 35.0345ZM54.2111 37.7754C55.2743 38.3392 56.4287 38.9742 57.6551 39.6946L58.6681 37.9701C57.4116 37.232 56.2311 36.5828 55.148 36.0085L54.2111 37.7754ZM60.9944 41.7699C62.0387 42.4567 63.1168 43.2032 64.2191 44.0159L65.406 42.4061C64.2731 41.5709 63.1656 40.8041 62.0934 40.0989L60.9944 41.7699ZM67.3082 46.4262C68.2866 47.2336 69.2767 48.0946 70.2723 49.0133L71.6286 47.5434C70.605 46.5989 69.5871 45.7138 68.5812 44.8836L67.3082 46.4262ZM73.0788 51.7489C73.9689 52.6653 74.8592 53.6305 75.7452 54.6475L77.2532 53.3337C76.343 52.289 75.4283 51.2972 74.5134 50.3554L73.0788 51.7489ZM78.2417 57.6712C79.0288 58.6772 79.8094 59.7277 80.5803 60.8247L82.2167 59.6747C81.4259 58.5495 80.6249 57.4716 79.8169 56.4388L78.2417 57.6712ZM82.761 64.0984C83.4459 65.1837 84.1203 66.3097 84.7819 67.4781L86.5223 66.4927C85.845 65.2966 85.1542 64.1432 84.4523 63.031L82.761 64.0984ZM86.6439 70.9505C87.2258 72.0972 87.795 73.2809 88.3496 74.5028L90.1708 73.6762C89.6042 72.4279 89.0225 71.2181 88.4275 70.0455L86.6439 70.9505ZM89.9031 78.1239C90.3862 79.3167 90.8555 80.543 91.3096 81.8039L93.1913 81.1261C92.7284 79.841 92.2498 78.5903 91.7568 77.3731L89.9031 78.1239ZM92.5751 85.5347C92.9667 86.7625 93.3441 88.0208 93.7062 89.3101L95.6317 88.7694C95.2634 87.4578 94.8793 86.1773 94.4806 84.927L92.5751 85.5347ZM94.7095 93.1257C95.018 94.3821 95.3123 95.6662 95.5914 96.9786L97.5477 96.5625C97.2642 95.23 96.9653 93.9256 96.6518 92.6488L94.7095 93.1257ZM96.3584 100.868C96.5906 102.143 96.8089 103.444 97.0125 104.77L98.9893 104.467C98.783 103.122 98.5616 101.804 98.326 100.51L96.3584 100.868ZM97.5589 108.671C97.6424 109.329 97.7224 109.993 97.7988 110.663L99.7859 110.437C99.7086 109.758 99.6275 109.086 99.5429 108.419L97.5589 108.671ZM97.7969 110.645C97.8658 111.37 97.9461 112.074 98.0373 112.757L100.02 112.493C99.932 111.835 99.8545 111.156 99.7879 110.455L97.7969 110.645ZM98.7844 116.941C99.1233 118.424 99.5234 119.788 99.9774 121.042L101.858 120.361C101.434 119.19 101.056 117.905 100.734 116.496L98.7844 116.941ZM101.765 124.968C102.537 126.332 103.394 127.508 104.316 128.513L105.789 127.16C104.976 126.274 104.208 125.223 103.505 123.983L101.765 124.968ZM107.735 131.328C109.062 132.129 110.445 132.678 111.837 133.02L112.315 131.078C111.107 130.781 109.913 130.307 108.768 129.616L107.735 131.328ZM116.227 133.471C117.74 133.426 119.203 133.189 120.558 132.824L120.038 130.893C118.82 131.221 117.511 131.432 116.168 131.472L116.227 133.471ZM124.634 131.206C125.332 130.824 125.963 130.412 126.507 129.985L125.272 128.412C124.826 128.762 124.289 129.115 123.674 129.451L124.634 131.206ZM126.507 129.985C127.016 129.585 127.59 129.189 128.214 128.811L127.176 127.101C126.49 127.518 125.849 127.958 125.272 128.412L126.507 129.985ZM131.987 127.008C133.32 126.526 134.691 126.187 136.009 126.053L135.806 124.064C134.297 124.217 132.764 124.6 131.307 125.127L131.987 127.008ZM139.921 126.397C141.092 126.796 142.088 127.503 142.824 128.618L144.493 127.515C143.491 126 142.12 125.033 140.566 124.504L139.921 126.397ZM144.08 132.312C144.162 132.94 144.207 133.626 144.208 134.376L146.208 134.374C146.207 133.546 146.157 132.773 146.063 132.052L144.08 132.312ZM144.208 134.376C144.208 135.09 144.222 135.786 144.247 136.464L146.246 136.39C146.221 135.736 146.208 135.064 146.208 134.374L144.208 134.376ZM144.57 140.629C144.749 142.11 144.989 143.487 145.278 144.766L147.229 144.324C146.955 143.115 146.727 141.805 146.556 140.389L144.57 140.629ZM146.465 148.817C147.006 150.286 147.617 151.572 148.267 152.685L149.994 151.676C149.407 150.671 148.845 149.492 148.342 148.126L146.465 148.817ZM150.904 156.146C151.496 156.726 152.092 157.195 152.675 157.555L153.726 155.854C153.284 155.581 152.803 155.206 152.303 154.717L150.904 156.146ZM152.675 157.555C153.203 157.882 153.762 158.157 154.346 158.378L155.053 156.507C154.589 156.332 154.146 156.113 153.726 155.854L152.675 157.555ZM157.98 159.024C159.144 159.02 160.349 158.83 161.57 158.443L160.966 156.536C159.926 156.866 158.923 157.021 157.974 157.024L157.98 159.024ZM164.818 156.958C165.769 156.386 166.719 155.692 167.656 154.871L166.338 153.366C165.484 154.115 164.63 154.737 163.788 155.243L164.818 156.958ZM170.104 152.397C170.472 151.971 170.838 151.524 171.199 151.055L169.615 149.834C169.276 150.274 168.935 150.691 168.592 151.087L170.104 152.397ZM171.199 151.055C171.562 150.585 171.921 149.925 172.28 149.146L170.463 148.31C170.125 149.044 169.84 149.543 169.615 149.834L171.199 151.055ZM173.787 145.281C174.191 144.116 174.614 142.809 175.053 141.379L173.141 140.791C172.707 142.205 172.291 143.489 171.897 144.626L173.787 145.281ZM176.203 137.497C176.559 136.254 176.924 134.947 177.297 133.585L175.367 133.058C174.997 134.413 174.634 135.712 174.28 136.946L176.203 137.497ZM178.349 129.664C178.685 128.391 179.025 127.081 179.37 125.74L177.433 125.242C177.089 126.58 176.749 127.885 176.415 129.154L178.349 129.664ZM180.368 121.813C180.692 120.525 181.019 119.213 181.347 117.884L179.406 117.404C179.078 118.731 178.752 120.039 178.428 121.325L180.368 121.813ZM182.313 113.951C182.631 112.651 182.949 111.337 183.268 110.015L181.324 109.546C181.005 110.867 180.687 112.178 180.37 113.477L182.313 113.951ZM184.214 106.077C184.527 104.768 184.84 103.454 185.153 102.138L183.207 101.676C182.895 102.991 182.582 104.304 182.269 105.612L184.214 106.077ZM186.086 98.1998C186.397 96.8849 186.706 95.5716 187.014 94.2637L185.067 93.8052C184.76 95.1128 184.45 96.4255 184.139 97.7399L186.086 98.1998ZM187.941 90.3251C188.252 89.0014 188.561 87.6857 188.867 86.3841L186.92 85.9264C186.614 87.2289 186.305 88.5431 185.994 89.8674L187.941 90.3251ZM189.794 82.4432C190.108 81.1101 190.418 79.7955 190.724 78.5037L188.777 78.0434C188.472 79.336 188.161 80.6512 187.847 81.9847L189.794 82.4432ZM191.658 74.5666C191.978 73.2218 192.292 71.9091 192.599 70.6338L190.655 70.1657C190.347 71.4428 190.033 72.7572 189.712 74.1032L191.658 74.5666ZM193.551 66.7095C193.884 65.3484 194.207 64.0442 194.517 62.8051L192.577 62.3188C192.266 63.5621 191.942 64.8701 191.608 66.2342L193.551 66.7095ZM195.523 58.8655C195.896 57.4365 196.246 56.1392 196.568 54.992L194.643 54.4506C194.316 55.6131 193.963 56.923 193.588 58.3604L195.523 58.8655ZM197.726 51.2C198.053 50.2582 198.281 49.7652 198.397 49.604L196.77 48.441C196.46 48.8734 196.15 49.6411 195.836 50.5442L197.726 51.2ZM198.397 49.604C198.772 49.0787 199.154 48.5863 199.543 48.1339L198.025 46.831C197.592 47.3352 197.174 47.8754 196.77 48.441L198.397 49.604ZM202.209 45.8056C203.222 45.2289 204.228 45.017 205.27 45.2227L205.658 43.2606C204.059 42.9451 202.567 43.3002 201.219 44.0678L202.209 45.8056ZM208.202 46.8244C208.969 47.4969 209.779 48.3971 210.629 49.5688L212.248 48.3943C211.332 47.1319 210.424 46.1131 209.521 45.3208L208.202 46.8244ZM212.654 52.7632C213.228 53.7827 213.815 54.9187 214.413 56.1799L216.22 55.3225C215.604 54.0246 214.996 52.8465 214.396 51.7812L212.654 52.7632ZM215.976 59.6987C216.217 60.2764 216.46 60.8741 216.704 61.4922L218.564 60.7566C218.315 60.1274 218.068 59.5181 217.821 58.9283L215.976 59.6987ZM216.704 61.4922C216.928 62.0582 217.136 62.6325 217.328 63.2148L219.227 62.5868C219.023 61.9696 218.802 61.3593 218.564 60.7566L216.704 61.4922ZM218.3 66.7604C218.563 67.9491 218.776 69.1634 218.943 70.3996L220.925 70.131C220.751 68.8447 220.529 67.5751 220.252 66.3272L218.3 66.7604ZM219.313 74.0959C219.395 75.3217 219.441 76.5633 219.457 77.8171L221.457 77.7911C221.44 76.5054 221.393 75.2277 221.308 73.9621L219.313 74.0959ZM219.424 81.5556C219.387 82.7977 219.328 84.0472 219.251 85.3009L221.247 85.4235C221.325 84.1517 221.386 82.8806 221.423 81.6141L219.424 81.5556ZM218.974 89.0483C218.869 90.2993 218.751 91.5502 218.627 92.7983L220.617 92.9962C220.742 91.7413 220.86 90.4802 220.967 89.2169L218.974 89.0483ZM218.238 96.5531C218.104 97.8147 217.969 99.0719 217.84 100.316L219.829 100.523C219.958 99.2817 220.093 98.0292 220.227 96.7642L218.238 96.5531ZM217.465 104.086C217.346 105.367 217.239 106.634 217.151 107.88L219.146 108.02C219.233 106.793 219.338 105.542 219.456 104.271L217.465 104.086ZM216.949 111.694C216.905 113.002 216.893 114.284 216.922 115.531L218.922 115.484C218.894 114.281 218.905 113.038 218.948 111.76L216.949 111.694ZM217.166 119.387C217.311 120.723 217.524 122.01 217.819 123.238L219.764 122.77C219.491 121.638 219.292 120.436 219.154 119.171L217.166 119.387ZM219.083 126.991C219.361 127.606 219.671 128.199 220.016 128.768L221.726 127.731C221.425 127.235 221.153 126.713 220.906 126.167L219.083 126.991ZM220.016 128.768C220.377 129.364 220.744 129.95 221.115 130.527L222.797 129.444C222.435 128.883 222.078 128.312 221.726 127.731L220.016 128.768ZM223.464 133.947C224.3 135.087 225.158 136.179 226.038 137.216L227.564 135.923C226.716 134.923 225.886 133.869 225.077 132.764L223.464 133.947ZM228.864 140.288C229.877 141.297 230.914 142.235 231.974 143.096L233.234 141.543C232.231 140.728 231.244 139.836 230.276 138.871L228.864 140.288ZM235.401 145.548C236.628 146.311 237.882 146.969 239.162 147.511L239.942 145.669C238.766 145.171 237.603 144.562 236.456 143.849L235.401 145.548ZM243.228 148.813C244.629 149.118 246.052 149.28 247.493 149.287L247.503 147.287C246.207 147.281 244.923 147.135 243.653 146.859L243.228 148.813ZM251.764 148.853C252.454 148.708 253.146 148.528 253.839 148.309L253.239 146.402C252.607 146.6 251.979 146.765 251.355 146.895L251.764 148.853ZM253.839 148.309C254.461 148.114 255.092 147.868 255.73 147.578L254.902 145.758C254.329 146.018 253.774 146.233 253.239 146.402L253.839 148.309ZM259.209 145.617C260.252 144.924 261.306 144.134 262.358 143.265L261.084 141.723C260.079 142.554 259.08 143.301 258.102 143.952L259.209 145.617ZM265.27 140.653C266.185 139.768 267.091 138.83 267.979 137.85L266.497 136.507C265.637 137.456 264.761 138.362 263.879 139.216L265.27 140.653ZM270.505 134.889C271.313 133.883 272.098 132.846 272.853 131.787L271.224 130.627C270.492 131.654 269.73 132.66 268.946 133.636L270.505 134.889ZM275.017 128.552C275.713 127.442 276.369 126.316 276.979 125.184L275.218 124.236C274.63 125.327 273.996 126.415 273.322 127.491L275.017 128.552ZM278.703 121.678C279.246 120.454 279.726 119.232 280.13 118.023L278.233 117.389C277.851 118.532 277.395 119.695 276.875 120.866L278.703 121.678ZM281.158 114.198C281.427 112.835 281.58 111.5 281.596 110.212L279.596 110.188C279.582 111.336 279.445 112.548 279.196 113.809L281.158 114.198ZM281.113 106.144C280.928 105.465 280.688 104.81 280.387 104.182L278.584 105.047C278.829 105.558 279.028 106.1 279.183 106.669L281.113 106.144ZM280.387 104.182C280.141 103.668 279.826 103.057 279.451 102.361L277.69 103.309C278.057 103.99 278.356 104.571 278.584 105.047L280.387 104.182ZM277.423 98.7563C276.803 97.6845 276.111 96.5097 275.358 95.2439L273.639 96.267C274.39 97.5276 275.077 98.6953 275.692 99.7583L277.423 98.7563ZM273.244 91.7216C272.566 90.6014 271.855 89.4303 271.113 88.2144L269.406 89.2561C270.146 90.4701 270.856 91.6387 271.532 92.7562L273.244 91.7216ZM268.977 84.7254C268.283 83.5943 267.568 82.433 266.836 81.2454L265.134 82.2947C265.865 83.4815 266.579 84.6418 267.273 85.7717L268.977 84.7254ZM264.693 77.7726C263.99 76.634 263.274 75.4764 262.547 74.3026L260.847 75.355C261.573 76.5285 262.288 77.6858 262.992 78.8238L264.693 77.7726ZM260.399 70.8323C259.69 69.6859 258.972 68.5277 258.25 67.3602L256.549 68.4128C257.272 69.5804 257.989 70.7388 258.699 71.8851L260.399 70.8323ZM256.1 63.8858C255.387 62.7325 254.67 61.5729 253.952 60.4096L252.25 61.4604C252.969 62.6242 253.685 63.7842 254.399 64.9378L256.1 63.8858ZM251.806 56.9323C251.092 55.7736 250.379 54.6137 249.667 53.455L247.963 54.5021C248.675 55.6616 249.389 56.8222 250.104 57.9815L251.806 56.9323ZM247.532 49.9749C246.817 48.8082 246.107 47.6453 245.401 46.4886L243.694 47.5297C244.4 48.6877 245.111 49.8517 245.826 51.0193L247.532 49.9749ZM243.278 42.9976C242.565 41.8222 241.86 40.6562 241.165 39.5021L239.452 40.5345C240.148 41.6902 240.855 42.8579 241.568 44.0347L243.278 42.9976ZM239.063 36.0018C238.354 34.8153 237.657 33.6454 236.976 32.4951L235.255 33.5142C235.938 34.6672 236.636 35.8396 237.347 37.0282L239.063 36.0018ZM234.906 28.9794C234.201 27.7746 233.517 26.5971 232.857 25.4512L231.124 26.4495C231.787 27.5998 232.473 28.7811 233.18 29.9894L234.906 28.9794ZM230.835 21.9065C230.137 20.6691 229.475 19.4796 228.854 18.3443L227.099 19.3047C227.726 20.4484 228.392 21.6454 229.093 22.8891L230.835 21.9065ZM226.941 14.7744C226.249 13.4498 225.637 12.2336 225.114 11.1392L223.31 12.001C223.845 13.1222 224.468 14.3604 225.168 15.7004L226.941 14.7744ZM223.535 7.47562C223.257 6.70247 223.114 6.14487 223.075 5.78434L221.086 6.00209C221.152 6.59924 221.359 7.333 221.653 8.15232L223.535 7.47562Z" fill="#9F9F9F"/>
</svg>
