<svg width="398" height="205" viewBox="0 0 398 205" fill="none" xmlns="http://www.w3.org/2000/svg">
<path d="M72.1667 37.4811C72.1667 40.4266 74.5545 42.8144 77.5001 42.8144C80.4456 42.8144 82.8334 40.4266 82.8334 37.4811C82.8334 34.5356 80.4456 32.1478 77.5001 32.1478C74.5545 32.1478 72.1667 34.5356 72.1667 37.4811ZM75.0001 25.4811L74.2318 24.8409L75.0001 25.4811ZM100.5 53.9809H101.5V53.9465L101.498 53.9121L100.5 53.9809ZM106 10.4809L105.006 10.5874L106 10.4809ZM390 18.4809L390.032 19.4804L390.06 19.4795L390.089 19.477L390 18.4809ZM322.5 80.9809L321.933 80.1571L321.854 80.2115L321.787 80.2801L322.5 80.9809ZM272 80.9809L271.068 81.3439L272 80.9809ZM255 64.9809V65.9809H255.09L255.179 65.9648L255 64.9809ZM189.5 62.4809L189.82 63.4284L189.5 62.4809ZM157 89.9809L156.171 89.4218L156.018 89.6486L156.002 89.9218L157 89.9809ZM135 96.4809L135.167 95.4949L135 96.4809ZM118 116.481L118.388 115.559L118 116.481ZM60 141.481L61 141.471L60 141.481ZM60 198.481H61V198.456L60.9988 198.43L60 198.481ZM0.666667 141.481C0.666667 144.426 3.05448 146.814 6 146.814C8.94552 146.814 11.3333 144.426 11.3333 141.481C11.3333 138.535 8.94552 136.148 6 136.148C3.05448 136.148 0.666667 138.535 0.666667 141.481ZM5.16179 142.026C5.51478 142.569 5.87466 143.12 6.24103 143.679L7.91382 142.583C7.54865 142.026 7.18998 141.476 6.83821 140.936L5.16179 142.026ZM8.44057 147.012C9.16172 148.098 9.9024 149.206 10.66 150.331L12.3193 149.215C11.5639 148.092 10.8254 146.988 10.1065 145.905L8.44057 147.012ZM12.8915 153.627C13.6302 154.711 14.3816 155.807 15.1438 156.912L16.79 155.776C16.0301 154.675 15.2808 153.582 14.5443 152.501L12.8915 153.627ZM17.4164 160.185C18.1733 161.268 18.9384 162.356 19.7096 163.445L21.3418 162.289C20.5731 161.204 19.8104 160.119 19.0558 159.039L17.4164 160.185ZM22.0242 166.691C22.7997 167.771 23.5795 168.849 24.3616 169.922L25.9777 168.744C25.1985 167.675 24.4216 166.601 23.6487 165.525L22.0242 166.691ZM26.7237 173.136C27.5203 174.21 28.3174 175.276 29.113 176.33L30.7092 175.125C29.9173 174.076 29.1237 173.015 28.3304 171.945L26.7237 173.136ZM31.5326 179.503C32.355 180.57 33.1738 181.62 33.9866 182.65L35.5564 181.411C34.7487 180.388 33.9347 179.343 33.1167 178.282L31.5326 179.503ZM36.4796 185.765C37.3361 186.82 38.1834 187.846 39.0187 188.84L40.5497 187.553C39.7223 186.569 38.8822 185.551 38.0321 184.504L36.4796 185.765ZM41.6338 191.887C42.5501 192.93 43.4478 193.925 44.3227 194.865L45.7865 193.502C44.9264 192.579 44.0418 191.598 43.1366 190.567L41.6338 191.887ZM47.1094 197.743C48.145 198.766 49.1407 199.691 50.0879 200.502L51.3893 198.984C50.4851 198.209 49.5243 197.317 48.5145 196.32L47.1094 197.743ZM53.3827 202.977C54.8926 203.917 56.3885 204.526 57.7165 204.382L57.5017 202.394C56.8734 202.462 55.8689 202.169 54.4398 201.279L53.3827 202.977ZM60.8441 200.65C60.9491 200.008 61 199.285 61 198.481H59C59 199.204 58.954 199.816 58.8703 200.328L60.8441 200.65ZM60.9988 198.43C60.9633 197.729 60.9289 197.038 60.8956 196.358L58.898 196.456C58.9314 197.137 58.9658 197.829 59.0013 198.531L60.9988 198.43ZM60.7021 192.294C60.6374 190.889 60.5775 189.535 60.5219 188.227L58.5237 188.312C58.5794 189.622 58.6394 190.979 58.7042 192.386L60.7021 192.294ZM60.3573 184.159C60.3031 182.744 60.2545 181.39 60.2114 180.095L58.2125 180.161C58.2558 181.46 58.3044 182.817 58.3588 184.236L60.3573 184.159ZM60.0882 176.048C60.0488 174.606 60.0169 173.247 59.9917 171.965L57.9921 172.004C58.0174 173.292 58.0494 174.656 58.0889 176.102L60.0882 176.048ZM59.9311 167.923C59.9165 166.45 59.9122 165.099 59.9165 163.853L57.9165 163.846C57.9122 165.101 57.9165 166.462 57.9312 167.942L59.9311 167.923ZM59.9661 159.797C60.0001 158.264 60.0493 156.935 60.1078 155.759L58.1103 155.66C58.0508 156.855 58.001 158.203 57.9666 159.752L59.9661 159.797ZM60.3805 151.727C60.5154 150.154 60.6413 149.018 60.7595 147.675L58.7672 147.499C58.6622 148.694 58.5145 150.079 58.3878 151.556L60.3805 151.727ZM60.9912 143.54C61.0041 142.901 61.0077 142.217 61 141.471L59.0001 141.491C59.0076 142.219 59.0041 142.882 58.9916 143.5L60.9912 143.54ZM61 141.471C60.9942 140.91 61.0473 140.35 61.1565 139.79L59.1936 139.407C59.0594 140.094 58.9929 140.79 59.0001 141.491L61 141.471ZM62.3919 136.574C62.9426 135.605 63.6496 134.641 64.4991 133.688L63.0057 132.357C62.0791 133.397 61.2848 134.475 60.6534 135.585L62.3919 136.574ZM67.1197 131.15C68.019 130.386 69.0003 129.637 70.0526 128.907L68.9126 127.264C67.8132 128.027 66.7791 128.815 65.8244 129.627L67.1197 131.15ZM73.1922 126.905C74.2378 126.29 75.329 125.693 76.4571 125.117L75.5476 123.336C74.3866 123.929 73.2603 124.545 72.1778 125.182L73.1922 126.905ZM79.8344 123.502C80.9622 122.997 82.1147 122.513 83.2844 122.051L82.55 120.191C81.3535 120.663 80.1732 121.159 79.0168 121.677L79.8344 123.502ZM86.8005 120.748C87.9832 120.338 89.1749 119.951 90.3681 119.591L89.7893 117.676C88.5705 118.045 87.3532 118.439 86.1447 118.859L86.8005 120.748ZM93.9756 118.579C95.2025 118.262 96.4226 117.975 97.6279 117.718L97.2116 115.762C95.9775 116.025 94.7294 116.319 93.4753 116.643L93.9756 118.579ZM101.3 117.026C102.567 116.819 103.806 116.651 105.006 116.525L104.796 114.536C103.556 114.667 102.279 114.84 100.978 115.052L101.3 117.026ZM108.717 116.263C110.025 116.22 111.259 116.239 112.402 116.321L112.545 114.326C111.323 114.238 110.019 114.219 108.652 114.264L108.717 116.263ZM115.969 116.862C116.573 117.016 117.121 117.196 117.612 117.403L118.388 115.559C117.791 115.308 117.146 115.098 116.461 114.924L115.969 116.862ZM117.612 117.403C118.352 117.714 119.097 117.821 119.833 117.734L119.598 115.748C119.224 115.792 118.826 115.743 118.388 115.559L117.612 117.403ZM123.403 115.713C124.201 114.891 124.946 113.869 125.646 112.755L123.952 111.691C123.293 112.741 122.632 113.636 121.967 114.321L123.403 115.713ZM127.408 109.634C127.947 108.596 128.472 107.523 128.981 106.468L127.18 105.598C126.672 106.65 126.158 107.701 125.633 108.712L127.408 109.634ZM130.506 103.322C131.06 102.206 131.594 101.179 132.117 100.295L130.396 99.2768C129.836 100.223 129.275 101.302 128.715 102.433L130.506 103.322ZM134.024 97.8022C134.434 97.4711 134.684 97.4416 134.833 97.4668L135.167 95.4949C134.242 95.3382 133.425 95.7154 132.768 96.2456L134.024 97.8022ZM134.833 97.4668C135.326 97.5503 135.873 97.6713 136.471 97.8197L136.953 95.8786C136.329 95.7237 135.728 95.59 135.167 95.4949L134.833 97.4668ZM139.84 98.7329C140.945 99.0375 142.113 99.3488 143.295 99.6108L143.728 97.6581C142.597 97.4074 141.468 97.1072 140.371 96.8048L139.84 98.7329ZM146.886 100.2C148.16 100.318 149.434 100.318 150.645 100.116L150.316 98.1431C149.323 98.3086 148.23 98.3158 147.07 98.2083L146.886 100.2ZM154.301 98.6284C155.308 97.8807 156.144 96.8598 156.767 95.5283L154.955 94.6812C154.462 95.7359 153.83 96.4873 153.109 97.0223L154.301 98.6284ZM157.809 91.8886C157.896 91.3074 157.96 90.6918 157.998 90.04L156.002 89.9218C155.966 90.5191 155.909 91.0749 155.831 91.5918L157.809 91.8886ZM157.829 90.54C158.238 89.934 158.645 89.3401 159.05 88.7579L157.409 87.6149C156.997 88.2057 156.585 88.8079 156.171 89.4218L157.829 90.54ZM161.57 85.2673C162.457 84.0843 163.34 82.9563 164.222 81.8804L162.675 80.6128C161.774 81.7124 160.873 82.8631 159.97 84.0674L161.57 85.2673ZM167.024 78.632C168.012 77.5469 169.002 76.5236 169.999 75.5579L168.608 74.1214C167.579 75.1177 166.56 76.1712 165.545 77.2853L167.024 78.632ZM173.169 72.6985C174.279 71.7702 175.402 70.9054 176.544 70.0988L175.391 68.4652C174.203 69.304 173.037 70.2022 171.886 71.1644L173.169 72.6985ZM180.122 67.7965C181.347 67.0812 182.6 66.4217 183.886 65.8126L183.03 64.005C181.693 64.6382 180.39 65.3244 179.114 66.0692L180.122 67.7965ZM187.809 64.1477C188.469 63.8976 189.139 63.658 189.82 63.4284L189.18 61.5334C188.477 61.7705 187.784 62.0183 187.1 62.2774L187.809 64.1477ZM189.82 63.4284C190.48 63.2057 191.128 63.0423 191.766 62.9323L191.426 60.9614C190.685 61.0893 189.936 61.2783 189.18 61.5334L189.82 63.4284ZM195.736 62.9047C197.045 63.1076 198.332 63.511 199.605 64.0742L200.414 62.2451C199.009 61.6234 197.552 61.1624 196.042 60.9283L195.736 62.9047ZM203.223 66.092C204.365 66.85 205.49 67.7019 206.605 68.6109L207.869 67.061C206.719 66.1234 205.54 65.2297 204.33 64.4259L203.223 66.092ZM209.839 71.3983C210.924 72.3713 211.969 73.333 213.036 74.2955L214.376 72.8106C213.338 71.8738 212.252 70.8762 211.174 69.9093L209.839 71.3983ZM216.331 77.1578C217.522 78.1342 218.718 79.0307 219.921 79.7776L220.976 78.0788C219.873 77.3937 218.75 76.5551 217.598 75.6109L216.331 77.1578ZM224.116 81.6669C224.9 81.869 225.695 81.9809 226.5 81.9809V79.9809C225.882 79.9809 225.255 79.8951 224.616 79.7302L224.116 81.6669ZM226.5 81.9809C227.267 81.9809 228.018 81.9095 228.754 81.7767L228.4 79.8084C227.774 79.9212 227.142 79.9809 226.5 79.9809V81.9809ZM232.958 80.3446C234.235 79.7137 235.466 78.9366 236.656 78.0808L235.489 76.4569C234.36 77.2683 233.225 77.9821 232.072 78.5517L232.958 80.3446ZM239.993 75.444C241.064 74.5374 242.123 73.5983 243.157 72.6926L241.84 71.1878C240.792 72.1049 239.755 73.0252 238.701 73.9178L239.993 75.444ZM246.31 70.0271C247.424 69.1398 248.519 68.3483 249.609 67.7045L248.591 65.9827C247.394 66.6901 246.22 67.5422 245.064 68.4626L246.31 70.0271ZM253.16 66.2002C253.774 66.0566 254.386 65.9809 255 65.9809V63.9809C254.22 63.9809 253.455 64.0773 252.704 64.2527L253.16 66.2002ZM255.179 65.9648C255.946 65.8252 256.671 65.7282 257.355 65.6697L257.185 63.677C256.433 63.7413 255.646 63.847 254.821 63.997L255.179 65.9648ZM261.604 65.8518C263.133 66.1586 264.36 66.7282 265.358 67.4616L266.542 65.8499C265.302 64.9385 263.804 64.2532 261.998 63.8909L261.604 65.8518ZM268.045 70.5654C268.753 71.8151 269.247 73.1925 269.615 74.5606L271.546 74.0418C271.152 72.5731 270.603 71.0232 269.784 69.5789L268.045 70.5654ZM270.507 78.9396C270.667 79.8513 270.83 80.732 271.068 81.3439L272.932 80.6179C272.781 80.2299 272.648 79.5668 272.477 78.5946L270.507 78.9396ZM271.068 81.3439C271.349 82.0654 271.898 82.6864 272.56 83.2185L273.813 81.6603C273.3 81.247 273.038 80.891 272.932 80.6179L271.068 81.3439ZM276.172 85.1993C277.281 85.6462 278.537 86.0605 279.905 86.436L280.434 84.5073C279.124 84.1478 277.943 83.7569 276.92 83.3443L276.172 85.1993ZM283.706 87.324C284.932 87.5661 286.214 87.7811 287.538 87.9655L287.814 85.9846C286.525 85.8052 285.28 85.5963 284.094 85.3619L283.706 87.324ZM291.391 88.4029C292.661 88.5155 293.954 88.5994 295.259 88.6519L295.339 86.6535C294.067 86.6024 292.806 86.5205 291.567 86.4107L291.391 88.4029ZM299.137 88.712C300.434 88.6995 301.731 88.6532 303.017 88.5704L302.888 86.5745C301.641 86.6549 300.38 86.6999 299.117 86.7121L299.137 88.712ZM306.89 88.2006C308.202 88.0319 309.491 87.8191 310.74 87.5584L310.332 85.6006C309.138 85.8496 307.901 86.0542 306.635 86.2169L306.89 88.2006ZM314.543 86.5716C315.844 86.1587 317.083 85.6782 318.237 85.1234L317.37 83.321C316.313 83.8294 315.163 84.2765 313.938 84.6651L314.543 86.5716ZM321.679 83.0353C322.228 82.6133 322.741 82.1626 323.213 81.6817L321.787 80.2801C321.384 80.6902 320.941 81.0801 320.46 81.4499L321.679 83.0353ZM323.067 81.8047C323.625 81.421 324.18 81.0383 324.734 80.6568L323.599 79.0099C323.046 79.3912 322.491 79.7736 321.933 80.1571L323.067 81.8047ZM328.031 78.3813C329.146 77.6109 330.252 76.8453 331.348 76.0848L330.208 74.4414C329.113 75.2013 328.008 75.9662 326.894 76.736L328.031 78.3813ZM334.65 73.7908C335.755 73.0215 336.85 72.2575 337.934 71.4992L336.788 69.8601C335.705 70.6176 334.611 71.3808 333.507 72.1494L334.65 73.7908ZM341.239 69.1838C342.348 68.4049 343.445 67.6324 344.529 66.8664L343.376 65.2327C342.292 65.9977 341.197 66.7692 340.089 67.5471L341.239 69.1838ZM347.804 64.5477C348.908 63.7634 349.999 62.9864 351.076 62.2169L349.913 60.5898C348.838 61.3581 347.749 62.1339 346.646 62.9171L347.804 64.5477ZM354.353 59.8655C355.457 59.0706 356.545 58.2843 357.616 57.507L356.44 55.8886C355.372 56.6643 354.287 57.4491 353.185 58.2425L354.353 59.8655ZM360.862 55.1389C361.959 54.3349 363.036 53.5413 364.093 52.7582L362.903 51.1512C361.849 51.9321 360.774 52.7237 359.68 53.5257L360.862 55.1389ZM367.315 50.3569C368.413 49.5335 369.486 48.7229 370.534 47.9255L369.322 46.334C368.279 47.1284 367.209 47.9362 366.115 48.757L367.315 50.3569ZM373.732 45.4711C374.822 44.627 375.88 43.7992 376.905 42.9885L375.665 41.4196C374.645 42.2259 373.592 43.0495 372.507 43.8898L373.732 45.4711ZM380.05 40.4714C381.129 39.596 382.164 38.743 383.154 37.913L381.87 36.3801C380.888 37.2027 379.861 38.0489 378.79 38.9182L380.05 40.4714ZM386.235 35.2769C387.31 34.336 388.317 33.4294 389.253 32.5587L387.89 31.0946C386.971 31.9497 385.98 32.8426 384.918 33.772L386.235 35.2769ZM392.151 29.7419C393.209 28.6599 394.131 27.6433 394.906 26.6965L393.359 25.4296C392.63 26.3201 391.749 27.2923 390.721 28.3436L392.151 29.7419ZM397.276 23.1315C397.7 22.2203 397.942 21.3064 397.84 20.4476C397.731 19.5324 397.245 18.7961 396.461 18.2894L395.376 19.9694C395.696 20.1761 395.82 20.4009 395.854 20.6832C395.894 21.0219 395.81 21.5417 395.462 22.2886L397.276 23.1315ZM392.006 17.3772C391.363 17.3817 390.665 17.4178 389.911 17.4848L390.089 19.477C390.798 19.4139 391.441 19.3812 392.02 19.3771L392.006 17.3772ZM389.968 17.4814C389.297 17.5027 388.627 17.5231 387.956 17.5426L388.014 19.5417C388.687 19.5222 389.359 19.5017 390.032 19.4804L389.968 17.4814ZM383.937 17.649C382.598 17.681 381.261 17.7095 379.924 17.7347L379.962 19.7343C381.302 19.7091 382.643 19.6805 383.985 19.6484L383.937 17.649ZM375.919 17.8001C374.575 17.8187 373.233 17.8339 371.892 17.8459L371.91 19.8458C373.254 19.8338 374.6 19.8185 375.946 19.7999L375.919 17.8001ZM367.875 17.8721C366.537 17.8777 365.201 17.88 363.866 17.8792L363.865 19.8792C365.203 19.88 366.542 19.8776 367.883 19.8721L367.875 17.8721ZM359.848 17.8677C358.506 17.8607 357.165 17.8507 355.825 17.8376L355.806 19.8375C357.148 19.8506 358.492 19.8607 359.838 19.8676L359.848 17.8677ZM351.813 17.7897C350.476 17.7707 349.141 17.7489 347.807 17.7242L347.77 19.7239C349.107 19.7486 350.445 19.7705 351.785 19.7895L351.813 17.7897ZM343.779 17.641C342.438 17.6104 341.099 17.577 339.763 17.541L339.709 19.5403C341.048 19.5764 342.389 19.6098 343.733 19.6404L343.779 17.641ZM335.76 17.4248C334.417 17.383 333.076 17.3386 331.737 17.2916L331.667 19.2904C333.008 19.3375 334.352 19.382 335.698 19.4238L335.76 17.4248ZM327.717 17.1426C326.379 17.0904 325.044 17.0356 323.712 16.9785L323.626 18.9767C324.961 19.0339 326.299 19.0887 327.639 19.141L327.717 17.1426ZM319.702 16.799C318.358 16.7363 317.016 16.6711 315.677 16.6037L315.576 18.6012C316.918 18.6687 318.262 18.734 319.609 18.7968L319.702 16.799ZM311.67 16.3948C310.335 16.3228 309.004 16.2486 307.676 16.1723L307.561 18.169C308.892 18.2454 310.225 18.3197 311.562 18.3918L311.67 16.3948ZM303.645 15.9337C302.305 15.8521 300.968 15.7684 299.635 15.6827L299.507 17.6786C300.842 17.7644 302.181 17.8483 303.523 17.93L303.645 15.9337ZM295.646 15.4199C294.3 15.3291 292.959 15.2363 291.621 15.1417L291.48 17.1368C292.82 17.2315 294.164 17.3244 295.511 17.4154L295.646 15.4199ZM287.608 14.8517C286.274 14.7533 284.944 14.6531 283.619 14.5513L283.466 16.5455C284.793 16.6474 286.125 16.7477 287.46 16.8463L287.608 14.8517ZM279.605 14.2372C278.262 14.1301 276.923 14.0214 275.589 13.9113L275.424 15.9045C276.76 16.0148 278.101 16.1236 279.446 16.2308L279.605 14.2372ZM271.6 13.5765C270.261 13.4622 268.926 13.3466 267.596 13.2296L267.421 15.222C268.752 15.339 270.089 15.4548 271.43 15.5692L271.6 13.5765ZM263.578 12.8711C262.243 12.7504 260.914 12.6285 259.591 12.5055L259.406 14.4969C260.731 14.62 262.062 14.7421 263.397 14.863L263.578 12.8711ZM255.593 12.1293C254.248 12.0011 252.908 11.8719 251.574 11.7418L251.38 13.7324C252.715 13.8626 254.056 13.9919 255.404 14.1203L255.593 12.1293ZM247.59 11.3491C246.252 11.2158 244.92 11.0817 243.594 10.947L243.392 12.9367C244.719 13.0716 246.052 13.2058 247.392 13.3392L247.59 11.3491ZM239.576 10.5347C238.244 10.3968 236.918 10.2582 235.598 10.1193L235.389 12.1083C236.709 12.2474 238.036 12.386 239.37 12.5241L239.576 10.5347ZM231.598 9.69487C230.253 9.55103 228.915 9.40693 227.585 9.26272L227.369 11.2511C228.7 11.3954 230.039 11.5396 231.386 11.6835L231.598 9.69487ZM223.617 8.82989C222.271 8.68215 220.933 8.53446 219.603 8.38697L219.382 10.3748C220.713 10.5223 222.052 10.6701 223.399 10.818L223.617 8.82989ZM215.599 7.94083C214.273 7.79243 212.956 7.64441 211.648 7.49692L211.424 9.48433C212.733 9.63187 214.05 9.77996 215.377 9.92842L215.599 7.94083ZM207.609 7.04018C206.27 6.88846 204.942 6.7375 203.623 6.58748L203.397 8.57466C204.716 8.7247 206.045 8.87569 207.383 9.02745L207.609 7.04018ZM199.643 6.13426C198.29 5.98017 196.949 5.8273 195.619 5.67589L195.393 7.66306C196.723 7.81445 198.064 7.9673 199.416 8.1214L199.643 6.13426ZM191.663 5.2262C190.307 5.07232 188.963 4.92022 187.632 4.77014L187.407 6.75755C188.738 6.90756 190.081 7.05961 191.437 7.21345L191.663 5.2262ZM183.643 4.32242C182.3 4.17241 180.97 4.02478 179.655 3.8798L179.436 5.86776C180.75 6.01262 182.079 6.16014 183.421 6.31006L183.643 4.32242ZM175.633 3.4402C174.3 3.29586 172.982 3.15464 171.68 3.01683L171.47 5.00572C172.77 5.14334 174.086 5.28439 175.417 5.42858L175.633 3.4402ZM167.626 2.59371C166.292 2.45666 164.976 2.32372 163.678 2.19521L163.48 4.18548C164.776 4.31372 166.089 4.44642 167.421 4.58324L167.626 2.59371ZM159.613 1.80204C158.273 1.67567 156.954 1.55472 155.657 1.4396L155.48 3.43178C156.773 3.54655 158.089 3.66716 159.425 3.79321L159.613 1.80204ZM151.588 1.0924C150.247 0.982752 148.93 0.880285 147.639 0.785498L147.493 2.78013C148.778 2.87448 150.089 2.97652 151.425 3.08575L151.588 1.0924ZM143.548 0.505896C142.186 0.420237 140.855 0.344581 139.557 0.27961L139.457 2.27711C140.746 2.34162 142.068 2.41678 143.423 2.50195L143.548 0.505896ZM135.505 0.108576C134.108 0.0614963 132.754 0.0292059 131.444 0.0127305L131.419 2.01257C132.713 2.02885 134.053 2.06079 135.438 2.10744L135.505 0.108576ZM127.439 0.0147505C126.026 0.0358534 124.673 0.0798653 123.384 0.148499L123.49 2.14567C124.751 2.07856 126.078 2.0353 127.469 2.01453L127.439 0.0147505ZM119.291 0.474225C117.833 0.634533 116.476 0.838314 115.226 1.08992L115.621 3.05061C116.802 2.81276 118.1 2.6173 119.51 2.46225L119.291 0.474225ZM111.229 2.19673C109.717 2.76378 108.432 3.46732 107.422 4.33976L108.73 5.85296C109.511 5.17788 110.57 4.57985 111.931 4.06932L111.229 2.19673ZM105.085 8.26178C104.943 9.0002 104.919 9.77656 105.006 10.5874L106.994 10.3744C106.926 9.7375 106.949 9.16205 107.049 8.64033L105.085 8.26178ZM105.006 10.5874C105.055 11.048 105.246 11.8141 105.512 12.7431L107.435 12.1916C107.162 11.2404 107.022 10.6364 106.994 10.3744L105.006 10.5874ZM106.763 16.7138C107.161 17.9064 107.615 19.2241 108.113 20.6265L109.998 19.9579C109.504 18.5657 109.054 17.26 108.66 16.0808L106.763 16.7138ZM109.523 24.5122C109.99 25.7738 110.48 27.07 110.985 28.3778L112.851 27.6576C112.349 26.3583 111.863 25.0705 111.398 23.817L109.523 24.5122ZM112.501 32.2228C113.021 33.5144 113.549 34.796 114.077 36.0457L115.919 35.2665C115.396 34.0286 114.872 32.7577 114.356 31.4757L112.501 32.2228ZM115.734 39.8444C116.336 41.1793 116.931 42.4435 117.507 43.6024L119.298 42.7122C118.735 41.5803 118.151 40.3394 117.557 39.022L115.734 39.8444ZM119.505 47.2974C119.919 47.9831 120.322 48.5892 120.707 49.0906L122.293 47.8712C121.967 47.4482 121.607 46.9093 121.216 46.2632L119.505 47.2974ZM120.707 49.0906C121.087 49.5843 121.413 50.0789 121.69 50.5706L123.432 49.589C123.108 49.0132 122.73 48.4393 122.293 47.8712L120.707 49.0906ZM122.905 53.8496C123.145 55.0911 123.14 56.2744 122.987 57.3343L124.967 57.6189C125.148 56.3588 125.154 54.9501 124.869 53.4705L122.905 53.8496ZM121.913 60.5975C121.719 60.9334 121.532 61.1839 121.377 61.3505C121.203 61.536 121.132 61.5495 121.184 61.5322L121.816 63.4296C122.228 63.2925 122.573 62.9994 122.838 62.7158C123.121 62.4132 123.394 62.0319 123.645 61.5975L121.913 60.5975ZM121.184 61.5322C121.197 61.5277 121.166 61.5383 121.06 61.5557C120.965 61.5714 120.837 61.5883 120.675 61.6048C120.352 61.6378 119.921 61.6666 119.403 61.6847L119.473 63.6835C120.023 63.6643 120.499 63.6331 120.878 63.5945C121.223 63.5593 121.574 63.5103 121.816 63.4296L121.184 61.5322ZM115.338 61.6049C114.058 61.5176 112.68 61.3662 111.305 61.1254L110.96 63.0954C112.416 63.3504 113.864 63.5091 115.202 63.6003L115.338 61.6049ZM107.418 60.1531C106.097 59.6992 104.916 59.1333 103.965 58.441L102.788 60.0581C103.947 60.9015 105.322 61.5478 106.769 62.0446L107.418 60.1531ZM101.783 55.6973C101.601 55.1829 101.5 54.6143 101.5 53.9809H99.5C99.5 54.8324 99.637 55.6265 99.8963 56.3621L101.783 55.6973ZM101.498 53.9121C101.454 53.2838 101.399 52.6671 101.333 52.0621L99.3446 52.2803C99.408 52.8585 99.4609 53.4483 99.5024 54.0497L101.498 53.9121ZM100.774 48.3957C100.526 47.1348 100.23 45.9322 99.8966 44.7862L97.9763 45.3451C98.2935 46.435 98.575 47.5799 98.8112 48.7815L100.774 48.3957ZM98.6954 41.2683C98.2205 40.0624 97.7083 38.9329 97.1751 37.8769L95.3898 38.7784C95.8966 39.7821 96.3833 40.8553 96.8345 42.0011L98.6954 41.2683ZM95.3513 34.6399C94.6456 33.5092 93.9356 32.4911 93.2544 31.5799L91.6526 32.7773C92.3049 33.65 92.9825 34.6218 93.6546 35.6988L95.3513 34.6399ZM90.9418 28.7026C90.5077 28.1938 90.0834 27.7084 89.7593 27.3303L88.2408 28.6319C88.5986 29.0493 88.9724 29.4757 89.4203 30.0007L90.9418 28.7026ZM89.7593 27.3303C89.306 26.8015 88.7581 26.3179 88.1537 25.8832L86.986 27.507C87.4883 27.8682 87.9109 28.2471 88.2408 28.6319L89.7593 27.3303ZM84.4839 24.002C83.1878 23.5372 81.8146 23.2165 80.4949 23.0847L80.2961 25.0748C81.4403 25.1891 82.6537 25.4704 83.8087 25.8846L84.4839 24.002ZM76.2401 23.4826C75.4683 23.7664 74.7632 24.2033 74.2318 24.8409L75.7683 26.1213C76.0254 25.8127 76.4072 25.5521 76.9304 25.3597L76.2401 23.4826ZM74.2318 24.8409C73.7677 25.3979 73.5168 26.0719 73.3995 26.7638L75.3714 27.0982C75.4474 26.6498 75.5897 26.3356 75.7683 26.1213L74.2318 24.8409ZM73.6037 30.3051C73.8325 31.3633 74.1772 32.4552 74.5665 33.4938L76.4392 32.7918C76.0733 31.8155 75.7612 30.8198 75.5585 29.8825L73.6037 30.3051ZM75.8677 36.5073C76.1311 37.047 76.3889 37.5402 76.6259 37.9667L78.3742 36.9954C78.1554 36.6017 77.9139 36.14 77.6651 35.6301L75.8677 36.5073Z" fill="#9F9F9F"/>
</svg>
