<svg width="46" height="45" viewBox="0 0 46 45" fill="none" xmlns="http://www.w3.org/2000/svg">
<g clip-path="url(#clip0_48_10)">
<path d="M23 10.9404L22.5599 11.074L4.98173 16.9634L0.985168 18.2811L3.31251 19.0264V31.3311C2.47298 31.819 1.90626 32.7092 1.90626 33.7498C1.90626 34.4957 2.20258 35.2111 2.73002 35.7385C3.25747 36.266 3.97284 36.5623 4.71876 36.5623C5.46468 36.5623 6.18005 36.266 6.7075 35.7385C7.23495 35.2111 7.53126 34.4957 7.53126 33.7498C7.53126 32.7092 6.96454 31.819 6.12501 31.3311V19.9967L8.93751 20.9178V28.1248C8.93751 29.2779 9.64064 30.2342 10.476 30.8951C11.3113 31.5518 12.3491 32.0159 13.595 32.4321C16.0897 33.2618 19.3775 33.7498 23 33.7498C26.6225 33.7498 29.9103 33.2632 32.405 32.4307C33.651 32.0159 34.6888 31.5518 35.5241 30.8937C36.3594 30.2342 37.0625 29.2779 37.0625 28.1248V20.9178L41.0183 19.5987L45.0149 18.2811L41.0169 16.962L23.4388 11.074L23 10.9404ZM23 13.8865L36.1836 18.2811L23 22.6756L9.81642 18.2811L23 13.8865ZM11.75 21.8853L22.5613 25.4881L23 25.6203L23.4402 25.4867L34.25 21.8839V28.1248C34.25 28.1389 34.2556 28.302 33.8099 28.6521C33.3655 29.0037 32.5681 29.4467 31.5247 29.7954C29.4406 30.4887 26.368 30.9373 23 30.9373C19.632 30.9373 16.5594 30.4901 14.4739 29.794C13.4333 29.4467 12.6345 29.0023 12.1902 28.6521C11.743 28.3006 11.75 28.1389 11.75 28.1248V21.8853Z" fill="#939393"/>
</g>
<defs>
<clipPath id="clip0_48_10">
<rect width="45" height="45" fill="white" transform="translate(0.5)"/>
</clipPath>
</defs>
</svg>
