<svg width="46" height="45" viewBox="0 0 46 45" fill="none" xmlns="http://www.w3.org/2000/svg">
<path d="M37.9975 22.9981V22.9906C37.9975 18.5521 36.0652 14.566 32.9967 11.8249L32.9817 11.8124C32.9438 11.7715 32.9014 11.735 32.8554 11.7036L32.8529 11.7024C30.1276 9.30938 26.623 7.99296 22.9963 8.00003C19.2066 8.00003 15.7469 9.40747 13.1096 11.7299L13.1258 11.7161C13.094 11.7402 13.0647 11.7674 13.0383 11.7974C11.4529 13.2013 10.1838 14.9273 9.31522 16.8588C8.44662 18.7902 7.99832 20.8841 8 23.0019C8 27.4392 9.92984 31.4253 12.9958 34.1676L13.0108 34.1801C13.0505 34.2252 13.095 34.2658 13.1433 34.3014L13.1458 34.3026C15.8704 36.6921 19.3724 38.0066 22.9963 38C26.637 38.0056 30.1541 36.6789 32.8842 34.2701L32.8679 34.2839C34.4809 32.8815 35.7738 31.1491 36.6592 29.2037C37.5446 27.2584 38.0018 25.1455 38 23.0081V22.9994L37.9975 22.9981ZM32.4205 32.754C31.6775 32.1529 30.8785 31.6247 30.0344 31.1765L29.9532 31.1365C30.7194 28.9279 31.1806 26.3817 31.2243 23.7331V23.7131H36.5501C36.3705 27.1397 34.8957 30.37 32.4242 32.7502L32.4205 32.754ZM23.7137 30.8728C25.3173 30.959 26.8159 31.3115 28.1983 31.8852L28.1083 31.8527C27.0009 34.3776 25.4423 36.1126 23.7137 36.4938V30.8728ZM23.7137 29.4428V23.7131H29.7982C29.7499 26.0858 29.3385 28.4371 28.5783 30.6853L28.627 30.5215C27.0752 29.8837 25.4248 29.5192 23.7487 29.4441L23.7149 29.4428H23.7137ZM23.7137 22.2832V16.5534C25.435 16.4748 27.1296 16.098 28.722 15.4397L28.6233 15.476C29.317 17.4996 29.7432 19.832 29.7982 22.2569V22.2832H23.7137ZM23.7137 15.1235V9.50496C25.4423 9.8862 27.0009 11.6136 28.1083 14.146C26.8159 14.6835 25.3173 15.0347 23.7499 15.1222L23.7137 15.1235ZM27.2809 10.1237C28.7537 10.615 30.1311 11.3557 31.3531 12.3136L31.3243 12.2911C30.7706 12.7261 30.1494 13.1361 29.4945 13.4923L29.4245 13.5273C28.8952 12.2783 28.1676 11.123 27.2696 10.1062L27.2809 10.1199V10.1237ZM22.2813 9.50871V15.1235C20.7396 15.0448 19.2227 14.7024 17.7967 14.111L17.8867 14.1435C18.9991 11.6186 20.5552 9.88495 22.2838 9.50371L22.2813 9.50871ZM16.5718 13.5235C15.8943 13.159 15.2487 12.7379 14.6419 12.2648L14.6719 12.2873C15.8583 11.3576 17.1926 10.6342 18.6191 10.1474L18.7141 10.1187C17.8397 11.1079 17.1272 12.2292 16.603 13.441L16.5718 13.5235ZM22.2838 16.5522V22.2819H16.1993C16.2543 19.8308 16.6805 17.4984 17.423 15.311L17.3742 15.4747C18.9254 16.1115 20.5749 16.4756 22.2501 16.5509L22.2838 16.5522ZM22.2838 23.7118V29.4416C20.5625 29.5202 18.8679 29.897 17.2755 30.5553L17.3742 30.5191C16.6805 28.4966 16.2543 26.163 16.1993 23.7381V23.7118H22.2838ZM22.2838 30.8715V36.49C20.5552 36.1088 18.9966 34.3814 17.8892 31.849C19.1816 31.3115 20.6802 30.9615 22.2476 30.874L22.2838 30.8715ZM18.7216 35.8713C17.2492 35.3815 15.8718 34.6424 14.6494 33.6864L14.6794 33.7089C15.2331 33.2739 15.8543 32.8639 16.5093 32.5077L16.5793 32.4727C17.1041 33.7223 17.8318 34.8765 18.7329 35.8888L18.7216 35.8763V35.8713ZM29.4257 32.4715C30.1507 32.8652 30.7719 33.2739 31.3556 33.7302L31.3256 33.7077C30.1392 34.6374 28.8049 35.3608 27.3784 35.8476L27.2834 35.8763C28.1578 34.8875 28.8703 33.7666 29.3945 32.5552L29.4257 32.474V32.4715ZM36.5501 22.2832H31.2243C31.186 19.697 30.7397 17.133 29.9019 14.686L29.9532 14.8585C30.8361 14.3936 31.672 13.8444 32.4492 13.2186L32.4192 13.241C34.8856 15.6122 36.3609 18.8306 36.5476 22.2469L36.5501 22.2832ZM13.577 13.2423C14.297 13.8273 15.1057 14.3635 15.9631 14.8197L16.0443 14.8597C15.2781 17.0684 14.8169 19.6145 14.7732 22.2632V22.2832H9.44613C9.62573 18.8566 11.1006 15.6262 13.572 13.246L13.577 13.2423ZM9.44738 23.7131H14.7732C14.8115 26.2993 15.2578 28.8632 16.0956 31.3103L16.0443 31.1378C15.1057 31.6365 14.2982 32.1727 13.5483 32.7777L13.5783 32.7552C11.1119 30.384 9.63657 27.1656 9.44988 23.7493L9.44863 23.7143L9.44738 23.7131Z" fill="#939393"/>
</svg>
