<svg width="46" height="45" viewBox="0 0 46 45" fill="none" xmlns="http://www.w3.org/2000/svg">
<path d="M8.125 12.981C10.0056 12.2187 12.7023 11.3966 15.3245 11.1411C18.1508 10.865 20.5478 11.2709 21.9375 12.6905V32.7716C19.9506 31.6795 17.4325 31.5291 15.1099 31.7558C12.6024 32.003 10.0736 32.7056 8.125 33.4268V12.981ZM24.0625 12.6905C25.4522 11.2709 27.8493 10.865 30.6755 11.1411C33.2978 11.3966 35.9944 12.2187 37.875 12.981V33.4268C35.9242 32.7056 33.3976 32.001 30.8901 31.7578C28.5654 31.5291 26.0494 31.6775 24.0625 32.7716V12.6905ZM23 10.8279C20.9069 9.08268 17.8724 8.82307 15.1099 9.09092C11.8926 9.40617 8.64563 10.4755 6.62263 11.3677C6.437 11.4496 6.2796 11.5815 6.16919 11.7477C6.05879 11.914 6.00006 12.1075 6 12.3052V34.9701C6.00005 35.1424 6.0447 35.312 6.12987 35.4633C6.21504 35.6147 6.33801 35.7428 6.4875 35.8361C6.63699 35.9294 6.80823 35.9848 6.98554 35.9973C7.16285 36.0098 7.34055 35.9789 7.50238 35.9076C9.37663 35.0834 12.3963 34.0923 15.3224 33.8059C18.3165 33.5133 20.8261 33.9852 22.1712 35.6129C22.2708 35.7332 22.397 35.8304 22.5404 35.8971C22.6838 35.9638 22.8409 35.9985 23 35.9985C23.1591 35.9985 23.3162 35.9638 23.4596 35.8971C23.603 35.8304 23.7292 35.7332 23.8288 35.6129C25.1739 33.9852 27.6835 33.5133 30.6755 33.8059C33.6038 34.0923 36.6255 35.0834 38.4976 35.9076C38.6595 35.9789 38.8372 36.0098 39.0145 35.9973C39.1918 35.9848 39.363 35.9294 39.5125 35.8361C39.662 35.7428 39.785 35.6147 39.8701 35.4633C39.9553 35.312 40 35.1424 40 34.9701V12.3052C39.9999 12.1075 39.9412 11.914 39.8308 11.7477C39.7204 11.5815 39.563 11.4496 39.3774 11.3677C37.3544 10.4755 34.1074 9.40617 30.8901 9.09092C28.1276 8.82101 25.0931 9.08268 23 10.8279Z" fill="#939393"/>
</svg>
