<svg width="76" height="76" viewBox="0 0 76 76" fill="none" xmlns="http://www.w3.org/2000/svg">
<circle cx="38" cy="38" r="38" fill="#FFFFFF"/>
<path d="M12.4751 52.568C12.4751 52.6471 12.4832 52.7394 12.4994 52.8448C12.5318 52.9635 12.5399 53.0689 12.5237 53.1612C12.5075 53.2666 12.467 53.3523 12.4021 53.4182C12.3373 53.4973 12.2156 53.5368 12.0373 53.5368C11.7779 53.5368 11.5752 53.4973 11.4293 53.4182C11.2996 53.3391 11.2185 53.1875 11.1861 52.9635C11.1374 52.5416 11.0807 52.0935 11.0158 51.6189C10.951 51.1312 10.8942 50.6369 10.8456 50.136C10.4889 50.4655 10.1808 50.6699 9.92136 50.749C9.67815 50.828 9.45116 50.8676 9.24037 50.8676C8.86745 50.8676 8.56749 50.7753 8.34049 50.5908C8.1135 50.4062 8 50.1756 8 49.8987C8 49.6747 8.07296 49.4638 8.21889 49.266C8.38103 49.0683 8.5837 48.8969 8.82692 48.7519C9.08634 48.607 9.37009 48.4949 9.67815 48.4158C10.0024 48.3235 10.3267 48.2774 10.651 48.2774C10.5213 46.9197 10.4078 45.4829 10.3105 43.967C10.2294 42.4512 10.1889 40.876 10.1889 39.2415C10.1889 38.2001 10.1889 37.2115 10.1889 36.2756C10.1889 35.3265 10.2051 34.3445 10.2375 33.3295C10.27 32.3014 10.3267 31.1875 10.4078 29.988C10.4889 28.7885 10.6024 27.4044 10.7483 25.8358C10.7807 25.6908 10.805 25.5392 10.8212 25.3811C10.8375 25.2229 10.8456 25.1306 10.8456 25.1043C10.8456 24.9988 10.8375 24.8933 10.8212 24.7879C10.805 24.6824 10.8618 24.6297 10.9915 24.6297C11.0726 24.6297 11.2023 24.6495 11.3806 24.689C11.559 24.7154 11.7373 24.7549 11.9157 24.8077C12.094 24.8472 12.2481 24.8999 12.3778 24.9658C12.5075 25.0318 12.5724 25.0911 12.5724 25.1438C12.4102 27.0156 12.2805 28.6567 12.1832 30.0671C12.0859 31.4775 12.013 32.7298 11.9643 33.8238C11.9157 34.9047 11.8833 35.8736 11.867 36.7304C11.8508 37.574 11.8427 38.3715 11.8427 39.1228C11.8427 39.6896 11.8427 40.3223 11.8427 41.021C11.8589 41.7064 11.8752 42.4314 11.8914 43.1959C11.9076 43.9605 11.9319 44.7448 11.9643 45.5488C11.9968 46.3529 12.0373 47.1504 12.0859 47.9413C12.7831 47.1372 13.5776 46.1552 14.4694 44.9952C15.3774 43.822 16.3664 42.55 17.4366 41.1791C18.5229 39.8083 19.6741 38.3847 20.8902 36.9083C22.1062 35.432 23.3709 33.982 24.6842 32.5584C25.9976 31.1348 27.3433 29.7903 28.7215 28.5249C30.1159 27.2463 31.5184 26.1258 32.9291 25.1636C34.3397 24.1881 35.7503 23.417 37.1609 22.8502C38.5715 22.2834 39.9578 22 41.3198 22C42.0008 22 42.6007 22.0857 43.1196 22.257C43.6546 22.4284 44.1005 22.6591 44.4572 22.9491C44.8139 23.2259 45.0815 23.5554 45.2598 23.9377C45.4544 24.32 45.5517 24.722 45.5517 25.1438C45.5517 25.737 45.4139 26.3104 45.1382 26.864C44.8626 27.4176 44.5464 27.9185 44.1897 28.3667C43.8492 28.8149 43.5168 29.1839 43.1925 29.4739C42.8845 29.7507 42.6899 29.9155 42.6088 29.9682L42.317 29.8101C42.4791 29.6519 42.6575 29.4739 42.852 29.2762C43.0628 29.0785 43.2574 28.8346 43.4358 28.5446C43.6141 28.2415 43.76 27.8856 43.8735 27.4769C44.0032 27.0551 44.0681 26.5476 44.0681 25.9545C44.0681 25.5986 43.987 25.2624 43.8249 24.9461C43.679 24.6297 43.4682 24.3529 43.1925 24.1156C42.9169 23.8784 42.5764 23.6938 42.1711 23.562C41.7819 23.4302 41.336 23.3643 40.8334 23.3643C39.6336 23.3643 38.3851 23.6279 37.088 24.1552C35.8071 24.6824 34.5099 25.4008 33.1966 26.3104C31.8833 27.2067 30.5618 28.2546 29.2323 29.4542C27.9189 30.6537 26.6218 31.9323 25.3409 33.29C24.0762 34.6345 22.8358 36.0186 21.6198 37.4422C20.4037 38.8658 19.2444 40.2498 18.1419 41.5944C17.0393 42.9257 16.0016 44.1845 15.0288 45.3709C14.0722 46.5572 13.2047 47.592 12.4264 48.4751C13.1561 48.6333 13.8452 48.8706 14.4937 49.1869C15.1423 49.4901 15.7665 49.8262 16.3664 50.1953C16.9826 50.5644 17.5744 50.9467 18.1419 51.3421C18.7256 51.7244 19.3093 52.0737 19.893 52.3901C20.4929 52.6932 21.0928 52.9437 21.6927 53.1414C22.3089 53.3523 22.9574 53.4578 23.6384 53.4578C24.2383 53.4578 24.741 53.3655 25.1463 53.1809C25.5679 53.0096 25.9084 52.7987 26.1678 52.5482C26.4435 52.2846 26.6623 52.0012 26.8245 51.698C27.0028 51.3948 27.1569 51.118 27.2866 50.8676L27.6271 50.9862C27.546 51.1444 27.4487 51.3421 27.3352 51.5794C27.2379 51.8167 27.1001 52.0737 26.9218 52.3505C26.7596 52.6141 26.5651 52.8778 26.3381 53.1414C26.1111 53.4182 25.8354 53.6621 25.5111 53.873C25.1869 54.0971 24.8139 54.275 24.3924 54.4068C23.987 54.5518 23.5168 54.6243 22.9818 54.6243C22.1873 54.6243 21.4414 54.5189 20.7442 54.308C20.047 54.1102 19.3822 53.8466 18.7499 53.5171C18.1338 53.2007 17.542 52.8382 16.9745 52.4296C16.407 52.021 15.8557 51.6189 15.3206 51.2235C14.7856 50.828 14.2586 50.459 13.7398 50.1162C13.2209 49.7735 12.7021 49.4967 12.1832 49.2858C12.2156 49.879 12.2481 50.4524 12.2805 51.006C12.3291 51.5596 12.394 52.0803 12.4751 52.568ZM9.53223 49.8987C9.74301 49.8987 9.94568 49.8592 10.1403 49.7801C10.351 49.6878 10.5699 49.5362 10.7969 49.3253C10.7645 49.2594 10.7483 49.2001 10.7483 49.1474C10.7483 49.0947 10.7483 49.0354 10.7483 48.9694C10.6996 48.9694 10.6429 48.9629 10.578 48.9497C10.5294 48.9365 10.4807 48.9299 10.4321 48.9299C9.88083 48.9299 9.5079 49.009 9.31334 49.1672C9.13498 49.3122 9.0458 49.444 9.0458 49.5626C9.0458 49.7867 9.20794 49.8987 9.53223 49.8987Z" fill="#E19C57"/>
<path d="M68 49.4835C67.9514 49.6285 67.8379 49.8658 67.6595 50.1953C67.4812 50.5117 67.2542 50.8742 66.9785 51.2828C66.7191 51.6914 66.4191 52.1198 66.0786 52.568C65.7381 53.003 65.3814 53.3984 65.0085 53.7543C64.6356 54.1234 64.2465 54.42 63.8411 54.6441C63.4358 54.8814 63.0466 55 62.6737 55C62.1062 55 61.6198 54.7891 61.2144 54.3673C60.8253 53.9455 60.5091 53.4182 60.2659 52.7855C60.0227 52.1528 59.8443 51.4608 59.7308 50.7094C59.6336 49.9581 59.5849 49.2528 59.5849 48.5938C59.5849 46.5506 59.7471 44.5339 60.0713 42.5434C60.3956 40.5398 60.8172 38.556 61.336 36.592C61.8711 34.6279 62.471 32.6836 63.1358 30.7591C63.8168 28.8214 64.4978 26.8969 65.1788 24.9856C64.8383 24.9856 64.36 25.3152 63.7438 25.9742C63.1439 26.6333 62.4548 27.5033 61.6765 28.5842C60.8983 29.6651 60.0551 30.9041 59.1471 32.3014C58.2392 33.6986 57.3231 35.1354 56.3989 36.6117C55.4747 38.0749 54.5586 39.5249 53.6506 40.9617C52.7426 42.3853 51.8995 43.6771 51.1212 44.837C51.0401 44.9557 50.9347 45.1073 50.805 45.2918C50.6753 45.4632 50.5213 45.6279 50.3429 45.7861C50.1808 45.9443 49.9943 46.0827 49.7835 46.2013C49.5728 46.32 49.3539 46.3793 49.1269 46.3793C48.8837 46.3793 48.7134 46.3134 48.6161 46.1815C48.5188 46.0497 48.454 45.8718 48.4216 45.6477C48.3405 44.87 48.2675 43.9934 48.2027 43.018C48.1378 42.0294 48.0649 41.0276 47.9838 40.0126C47.9189 38.9844 47.846 37.976 47.7649 36.9874C47.6838 35.9856 47.5947 35.0761 47.4974 34.2588C47.4001 33.4284 47.2866 32.7298 47.1569 32.163C47.0272 31.583 46.8731 31.2007 46.6948 31.0162C46.6948 31.1216 46.7029 31.2403 46.7191 31.3721C46.7191 31.4775 46.7191 31.6093 46.7191 31.7675C46.7353 31.9257 46.7434 32.0971 46.7434 32.2816C46.7434 32.9407 46.6623 33.7513 46.5002 34.7136C46.3381 35.6759 46.0949 36.7238 45.7706 37.8574C45.4463 38.9778 45.0409 40.151 44.5545 41.3769C44.0843 42.5896 43.533 43.7825 42.9007 44.9557C42.2683 46.1288 41.563 47.2493 40.7848 48.317C40.0065 49.3715 39.1471 50.3008 38.2067 51.1049C37.2663 51.8957 36.2529 52.5219 35.1666 52.9832C34.0965 53.4578 32.9534 53.695 31.7373 53.695C30.9104 53.695 30.2213 53.5632 29.67 53.2996C29.1188 53.0491 28.6729 52.746 28.3324 52.3901C27.9919 52.021 27.7325 51.6453 27.5541 51.263C27.3758 50.8676 27.246 50.5446 27.165 50.2942L27.4082 50.2151C27.6028 50.5974 27.8703 50.9137 28.2108 51.1642C28.5513 51.4146 28.9242 51.6123 29.3295 51.7573C29.7511 51.9023 30.1889 52.0078 30.6429 52.0737C31.1131 52.1264 31.5833 52.1528 32.0535 52.1528C33.1236 52.1528 34.1451 51.9551 35.118 51.5596C36.0908 51.151 36.9988 50.604 37.8419 49.9185C38.7013 49.2199 39.4957 48.4092 40.2254 47.4865C40.9712 46.5506 41.6441 45.5554 42.244 44.5009C42.8602 43.4464 43.3952 42.3589 43.8492 41.2385C44.3194 40.1049 44.7086 38.991 45.0166 37.8969C45.3409 36.8029 45.576 35.7549 45.7219 34.7531C45.8841 33.7513 45.957 32.8484 45.9408 32.0443C45.9408 31.8598 45.9246 31.6489 45.8922 31.4116C45.8597 31.1744 45.8273 30.9503 45.7949 30.7394C45.8111 30.6866 45.8435 30.6141 45.8922 30.5219C45.957 30.4296 46.0381 30.3373 46.1354 30.2451C46.2327 30.1528 46.3462 30.0803 46.4759 30.0276C46.6218 29.9617 46.7921 29.9287 46.9866 29.9287C47.4406 29.9287 47.8135 30.1923 48.1054 30.7196C48.4135 31.2469 48.6567 31.9389 48.835 32.7957C49.0134 33.6525 49.1512 34.6279 49.2485 35.722C49.3458 36.8029 49.4268 37.9035 49.4917 39.024C49.5565 40.1444 49.6133 41.2319 49.6619 42.2864C49.7106 43.3409 49.7835 44.257 49.8808 45.0348C49.9781 45.0348 50.1646 44.8304 50.4402 44.4218C50.7321 44.0132 51.0969 43.4661 51.5347 42.7807C51.9724 42.0821 52.4751 41.2714 53.0426 40.3487C53.6101 39.4128 54.21 38.4242 54.8423 37.3829C55.4909 36.3415 56.1638 35.2672 56.861 34.16C57.5744 33.0527 58.2797 31.9784 58.9769 30.9371C59.6903 29.8957 60.3956 28.9137 61.0928 27.991C61.79 27.0551 62.4548 26.2445 63.0872 25.559C63.7195 24.8604 64.3113 24.3068 64.8626 23.8981C65.4139 23.4895 65.9003 23.2852 66.3218 23.2852C66.4516 23.3511 66.5813 23.4302 66.711 23.5225C66.8407 23.6016 66.9056 23.7004 66.9056 23.8191C66.3056 25.5986 65.6733 27.4901 65.0085 29.4937C64.3437 31.4841 63.7276 33.5273 63.1601 35.6231C62.6088 37.719 62.1467 39.8346 61.7738 41.97C61.4171 44.1055 61.2388 46.2079 61.2388 48.2774C61.2388 48.7783 61.2874 49.3319 61.3847 49.9383C61.482 50.5315 61.6279 51.0851 61.8225 51.5992C62.017 52.1132 62.2521 52.5416 62.5278 52.8844C62.8034 53.2403 63.1196 53.4182 63.4763 53.4182C63.7844 53.4182 64.1492 53.26 64.5707 52.9437C64.9923 52.6273 65.4139 52.2582 65.8354 51.8364C66.257 51.4014 66.638 50.9599 66.9785 50.5117C67.3352 50.0503 67.5947 49.6812 67.7568 49.4044L68 49.4835Z" fill="#E19C57"/>
</svg>
