<svg width="60" height="34" viewBox="0 0 60 34" fill="none" xmlns="http://www.w3.org/2000/svg">
<path d="M4.47507 30.6852C4.47507 30.7643 4.48318 30.8566 4.49939 30.962C4.53182 31.0806 4.53993 31.1861 4.52371 31.2784C4.5075 31.3838 4.46696 31.4695 4.40211 31.5354C4.33725 31.6145 4.21565 31.654 4.03729 31.654C3.77787 31.654 3.57519 31.6145 3.42927 31.5354C3.29955 31.4563 3.21848 31.3047 3.18606 31.0806C3.13741 30.6588 3.08066 30.2107 3.01581 29.7361C2.95095 29.2484 2.8942 28.7541 2.84556 28.2532C2.48885 28.5827 2.18079 28.7871 1.92136 28.8661C1.67815 28.9452 1.45116 28.9848 1.24037 28.9848C0.86745 28.9848 0.567491 28.8925 0.340495 28.708C0.113498 28.5234 0 28.2927 0 28.0159C0 27.7918 0.0729631 27.5809 0.218889 27.3832C0.38103 27.1855 0.583705 27.0141 0.826915 26.8691C1.08634 26.7241 1.37009 26.6121 1.67815 26.533C2.00243 26.4407 2.32671 26.3946 2.65099 26.3946C2.52128 25.0369 2.40778 23.6001 2.3105 22.0842C2.22943 20.5684 2.18889 18.9932 2.18889 17.3587C2.18889 16.3173 2.18889 15.3287 2.18889 14.3928C2.18889 13.4437 2.20511 12.4617 2.23754 11.4467C2.26996 10.4186 2.32671 9.30472 2.40778 8.1052C2.48885 6.90568 2.60235 5.52162 2.74828 3.95302C2.78071 3.80802 2.80503 3.65643 2.82124 3.49825C2.83745 3.34008 2.84556 3.2478 2.84556 3.22144C2.84556 3.11599 2.83745 3.01054 2.82124 2.90508C2.80503 2.79963 2.86178 2.74691 2.99149 2.74691C3.07256 2.74691 3.20227 2.76668 3.38062 2.80622C3.55898 2.83259 3.73733 2.87213 3.91569 2.92486C4.09404 2.9644 4.24807 3.01713 4.37779 3.08304C4.5075 3.14894 4.57236 3.20826 4.57236 3.26099C4.41021 5.13277 4.2805 6.77387 4.18322 8.18429C4.08593 9.59472 4.01297 10.847 3.96433 11.941C3.91569 13.0219 3.88326 13.9908 3.86704 14.8476C3.85083 15.6912 3.84272 16.4887 3.84272 17.24C3.84272 17.8068 3.84272 18.4395 3.84272 19.1382C3.85894 19.8236 3.87515 20.5486 3.89137 21.3131C3.90758 22.0776 3.9319 22.8619 3.96433 23.666C3.99676 24.4701 4.03729 25.2676 4.08593 26.0585C4.78314 25.2544 5.57762 24.2724 6.4694 23.1124C7.37738 21.9392 8.36644 20.6672 9.43656 19.2963C10.5229 17.9255 11.6741 16.5018 12.8902 15.0255C14.1062 13.5492 15.3709 12.0992 16.6842 10.6756C17.9976 9.252 19.3433 7.90748 20.7215 6.64205C22.1159 5.36344 23.5184 4.24301 24.9291 3.28076C26.3397 2.30532 27.7503 1.5342 29.1609 0.967397C30.5715 0.400591 31.9578 0.117188 33.3198 0.117188C34.0008 0.117188 34.6007 0.202868 35.1196 0.374228C35.6546 0.545588 36.1005 0.776265 36.4572 1.06626C36.8139 1.34307 37.0815 1.67261 37.2598 2.05487C37.4544 2.43714 37.5517 2.83918 37.5517 3.26099C37.5517 3.85416 37.4139 4.42755 37.1382 4.98118C36.8626 5.5348 36.5464 6.0357 36.1897 6.48387C35.8492 6.93205 35.5168 7.30113 35.1925 7.59112C34.8845 7.86794 34.6899 8.03271 34.6088 8.08543L34.317 7.92725C34.4791 7.76907 34.6575 7.59112 34.852 7.3934C35.0628 7.19568 35.2574 6.95182 35.4358 6.66183C35.6141 6.35865 35.76 6.00275 35.8735 5.59412C36.0032 5.17231 36.0681 4.66482 36.0681 4.07165C36.0681 3.71575 35.987 3.37962 35.8249 3.06326C35.679 2.74691 35.4682 2.47009 35.1925 2.23283C34.9169 1.99556 34.5764 1.81102 34.1711 1.6792C33.7819 1.54739 33.336 1.48148 32.8334 1.48148C31.6336 1.48148 30.3851 1.74511 29.088 2.27237C27.8071 2.79963 26.5099 3.51803 25.1966 4.42755C23.8833 5.3239 22.5618 6.37183 21.2323 7.57135C19.9189 8.77087 18.6218 10.0495 17.3409 11.4072C16.0762 12.7517 14.8358 14.1358 13.6198 15.5594C12.4037 16.983 11.2444 18.367 10.1419 19.7116C9.03932 21.0429 8.00162 22.3017 7.02878 23.4881C6.07215 24.6744 5.2047 25.7092 4.42643 26.5923C5.15606 26.7505 5.84516 26.9878 6.49372 27.3041C7.14228 27.6073 7.76652 27.9434 8.36644 28.3125C8.98257 28.6816 9.57438 29.0639 10.1419 29.4593C10.7256 29.8416 11.3093 30.1909 11.893 30.5072C12.4929 30.8104 13.0928 31.0609 13.6927 31.2586C14.3089 31.4695 14.9574 31.5749 15.6384 31.5749C16.2383 31.5749 16.741 31.4827 17.1463 31.2981C17.5679 31.1268 17.9084 30.9159 18.1678 30.6654C18.4435 30.4018 18.6623 30.1184 18.8245 29.8152C19.0028 29.512 19.1569 29.2352 19.2866 28.9848L19.6271 29.1034C19.546 29.2616 19.4487 29.4593 19.3352 29.6966C19.2379 29.9338 19.1001 30.1909 18.9218 30.4677C18.7596 30.7313 18.5651 30.995 18.3381 31.2586C18.1111 31.5354 17.8354 31.7793 17.5111 31.9902C17.1869 32.2143 16.8139 32.3922 16.3924 32.524C15.987 32.669 15.5168 32.7415 14.9818 32.7415C14.1873 32.7415 13.4414 32.6361 12.7442 32.4252C12.047 32.2274 11.3822 31.9638 10.7499 31.6343C10.1338 31.3179 9.54195 30.9554 8.97446 30.5468C8.40697 30.1382 7.8557 29.7361 7.32063 29.3407C6.78557 28.9452 6.25861 28.5761 5.73977 28.2334C5.22092 27.8907 4.70207 27.6139 4.18322 27.403C4.21565 27.9962 4.24807 28.5696 4.2805 29.1232C4.32914 29.6768 4.394 30.1975 4.47507 30.6852ZM1.53223 28.0159C1.74301 28.0159 1.94568 27.9764 2.14025 27.8973C2.35103 27.805 2.56992 27.6534 2.79692 27.4425C2.76449 27.3766 2.74828 27.3173 2.74828 27.2646C2.74828 27.2119 2.74828 27.1525 2.74828 27.0866C2.69964 27.0866 2.64289 27.08 2.57803 27.0669C2.52939 27.0537 2.48075 27.0471 2.4321 27.0471C1.88083 27.0471 1.5079 27.1262 1.31334 27.2844C1.13498 27.4293 1.0458 27.5612 1.0458 27.6798C1.0458 27.9039 1.20794 28.0159 1.53223 28.0159Z" fill="#E19C57"/>
<path d="M60 27.6007C59.9514 27.7457 59.8379 27.983 59.6595 28.3125C59.4812 28.6289 59.2542 28.9914 58.9785 29.4C58.7191 29.8086 58.4191 30.237 58.0786 30.6852C57.7381 31.1202 57.3814 31.5156 57.0085 31.8715C56.6356 32.2406 56.2465 32.5372 55.8411 32.7613C55.4358 32.9986 55.0466 33.1172 54.6737 33.1172C54.1062 33.1172 53.6198 32.9063 53.2144 32.4845C52.8253 32.0627 52.5091 31.5354 52.2659 30.9027C52.0227 30.27 51.8443 29.5779 51.7308 28.8266C51.6336 28.0752 51.5849 27.37 51.5849 26.711C51.5849 24.6678 51.7471 22.651 52.0713 20.6606C52.3956 18.657 52.8172 16.6732 53.336 14.7092C53.8711 12.7451 54.471 10.8008 55.1358 8.87632C55.8168 6.93864 56.4978 5.01413 57.1788 3.10281C56.8383 3.10281 56.36 3.43235 55.7438 4.09142C55.1439 4.7505 54.4548 5.62048 53.6765 6.70137C52.8983 7.78226 52.0551 9.02132 51.1471 10.4186C50.2392 11.8158 49.3231 13.2526 48.3989 14.7289C47.4747 16.1921 46.5586 17.6421 45.6506 19.0788C44.7426 20.5024 43.8995 21.7942 43.1212 22.9542C43.0401 23.0728 42.9347 23.2244 42.805 23.409C42.6753 23.5803 42.5213 23.7451 42.3429 23.9033C42.1808 24.0615 41.9943 24.1999 41.7835 24.3185C41.5728 24.4371 41.3539 24.4965 41.1269 24.4965C40.8837 24.4965 40.7134 24.4305 40.6161 24.2987C40.5188 24.1669 40.454 23.989 40.4216 23.7649C40.3405 22.9872 40.2675 22.1106 40.2027 21.1352C40.1378 20.1465 40.0649 19.1447 39.9838 18.1298C39.9189 17.1016 39.846 16.0932 39.7649 15.1046C39.6838 14.1028 39.5947 13.1933 39.4974 12.376C39.4001 11.5456 39.2866 10.847 39.1569 10.2802C39.0272 9.70017 38.8731 9.31791 38.6948 9.13336C38.6948 9.23882 38.7029 9.35745 38.7191 9.48927C38.7191 9.59472 38.7191 9.72653 38.7191 9.88471C38.7353 10.0429 38.7434 10.2143 38.7434 10.3988C38.7434 11.0579 38.6623 11.8685 38.5002 12.8308C38.3381 13.793 38.0949 14.841 37.7706 15.9746C37.4463 17.095 37.0409 18.2682 36.5545 19.4941C36.0843 20.7068 35.533 21.8997 34.9007 23.0728C34.2683 24.246 33.563 25.3664 32.7848 26.4341C32.0065 27.4887 31.1471 28.418 30.2067 29.222C29.2663 30.0129 28.2529 30.6391 27.1666 31.1004C26.0965 31.5749 24.9534 31.8122 23.7373 31.8122C22.9104 31.8122 22.2213 31.6804 21.67 31.4168C21.1188 31.1663 20.6729 30.8631 20.3324 30.5072C19.9919 30.1382 19.7325 29.7625 19.5541 29.3802C19.3758 28.9848 19.246 28.6618 19.165 28.4114L19.4082 28.3323C19.6028 28.7146 19.8703 29.0309 20.2108 29.2814C20.5513 29.5318 20.9242 29.7295 21.3295 29.8745C21.7511 30.0195 22.1889 30.125 22.6429 30.1909C23.1131 30.2436 23.5833 30.27 24.0535 30.27C25.1236 30.27 26.1451 30.0723 27.118 29.6768C28.0908 29.2682 28.9988 28.7211 29.8419 28.0357C30.7013 27.3371 31.4957 26.5264 32.2254 25.6037C32.9712 24.6678 33.6441 23.6726 34.244 22.6181C34.8602 21.5636 35.3952 20.4761 35.8492 19.3557C36.3194 18.222 36.7086 17.1082 37.0166 16.0141C37.3409 14.9201 37.576 13.8721 37.7219 12.8703C37.8841 11.8685 37.957 10.9656 37.9408 10.1615C37.9408 9.97698 37.9246 9.76608 37.8922 9.52881C37.8597 9.29154 37.8273 9.06746 37.7949 8.85655C37.8111 8.80383 37.8435 8.73133 37.8922 8.63906C37.957 8.54679 38.0381 8.45452 38.1354 8.36224C38.2327 8.26997 38.3462 8.19748 38.4759 8.14475C38.6218 8.07884 38.7921 8.04589 38.9866 8.04589C39.4406 8.04589 39.8135 8.30952 40.1054 8.83678C40.4135 9.36404 40.6567 10.0561 40.835 10.9129C41.0134 11.7697 41.1512 12.7451 41.2485 13.8392C41.3458 14.9201 41.4268 16.0207 41.4917 17.1412C41.5565 18.2616 41.6133 19.3491 41.6619 20.4036C41.7106 21.4581 41.7835 22.3742 41.8808 23.1519C41.9781 23.1519 42.1646 22.9476 42.4402 22.539C42.7321 22.1304 43.0969 21.5833 43.5347 20.8979C43.9724 20.1993 44.4751 19.3886 45.0426 18.4659C45.6101 17.53 46.21 16.5414 46.8423 15.5001C47.4909 14.4587 48.1638 13.3844 48.861 12.2772C49.5744 11.1699 50.2797 10.0956 50.9769 9.05428C51.6903 8.01293 52.3956 7.03091 53.0928 6.1082C53.79 5.17231 54.4548 4.36165 55.0872 3.6762C55.7195 2.97758 56.3113 2.42396 56.8626 2.01533C57.4139 1.6067 57.9003 1.40239 58.3218 1.40239C58.4516 1.4683 58.5813 1.54739 58.711 1.63966C58.8407 1.71875 58.9056 1.81761 58.9056 1.93624C58.3056 3.71575 57.6733 5.6073 57.0085 7.6109C56.3437 9.60131 55.7276 11.6444 55.1601 13.7403C54.6088 15.8362 54.1467 17.9518 53.7738 20.0872C53.4171 22.2226 53.2388 24.3251 53.2388 26.3946C53.2388 26.8955 53.2874 27.4491 53.3847 28.0555C53.482 28.6486 53.6279 29.2023 53.8225 29.7163C54.017 30.2304 54.2521 30.6588 54.5278 31.0015C54.8034 31.3575 55.1196 31.5354 55.4763 31.5354C55.7844 31.5354 56.1492 31.3772 56.5707 31.0609C56.9923 30.7445 57.4139 30.3754 57.8354 29.9536C58.257 29.5186 58.638 29.077 58.9785 28.6289C59.3352 28.1675 59.5947 27.7984 59.7568 27.5216L60 27.6007Z" fill="#E19C57"/>
</svg>
