<svg width="1297" height="1774" viewBox="0 0 1297 1774" fill="none" xmlns="http://www.w3.org/2000/svg">
<path fill-rule="evenodd" clip-rule="evenodd" d="M831.667 5.99994C831.667 8.94546 834.055 11.3333 837 11.3333C839.945 11.3333 842.333 8.94546 842.333 5.99994C842.333 3.05442 839.945 0.666608 837 0.666608C834.055 0.666608 831.667 3.05442 831.667 5.99994ZM819.183 6.67103C820.529 6.66399 821.856 6.66376 823.162 6.67001L823.172 4.67004C821.859 4.66375 820.525 4.66399 819.172 4.67106L819.183 6.67103ZM827.107 6.70926C828.445 6.7296 829.758 6.75686 831.045 6.79065L831.097 4.79134C829.803 4.75735 828.482 4.72994 827.137 4.70949L827.107 6.70926ZM811.29 6.78742C812.624 6.75529 813.942 6.72974 815.245 6.71051L815.215 4.71073C813.906 4.73005 812.582 4.75572 811.242 4.788L811.29 6.78742ZM803.385 7.04981C804.708 6.99395 806.02 6.94454 807.318 6.90134L807.252 4.90245C805.947 4.94584 804.63 4.99548 803.3 5.05159L803.385 7.04981ZM795.479 7.45406C796.801 7.37472 798.113 7.30184 799.415 7.23521L799.312 5.23782C798.005 5.30476 796.687 5.37796 795.359 5.45766L795.479 7.45406ZM787.581 7.99873C788.903 7.89572 790.218 7.79926 791.525 7.70914L791.387 5.71388C790.074 5.8044 788.754 5.9013 787.426 6.00477L787.581 7.99873ZM779.695 8.6846C781.016 8.55769 782.331 8.43743 783.639 8.32364L783.466 6.33116C782.151 6.44547 780.83 6.56628 779.504 6.69377L779.695 8.6846ZM771.825 9.51437C773.142 9.36306 774.456 9.21852 775.764 9.08059L775.555 7.09161C774.24 7.23018 772.92 7.3754 771.597 7.52744L771.825 9.51437ZM763.974 10.4925C765.287 10.316 766.597 10.1464 767.904 9.98363L767.657 7.99896C766.344 8.16254 765.027 8.33293 763.708 8.51031L763.974 10.4925ZM756.146 11.625C757.453 11.4222 758.759 11.2267 760.064 11.038L759.777 9.05863C758.467 9.24821 757.154 9.44481 755.84 9.64859L756.146 11.625ZM748.346 12.9194C749.646 12.6892 750.947 12.4663 752.247 12.2507L751.92 10.2776C750.613 10.4945 749.305 10.7186 747.998 10.9501L748.346 12.9194ZM740.578 14.3855C741.87 14.1261 743.164 13.8744 744.459 13.6301L744.089 11.6647C742.786 11.9104 741.485 12.1637 740.184 12.4246L740.578 14.3855ZM732.848 16.0345C734.131 15.744 735.418 15.4613 736.707 15.1865L736.29 13.2305C734.993 13.507 733.698 13.7914 732.406 14.0838L732.848 16.0345ZM725.163 17.8797C726.437 17.5556 727.715 17.2398 728.997 16.9322L728.53 14.9874C727.24 15.2971 725.953 15.6151 724.67 15.9414L725.163 17.8797ZM717.535 19.9367C718.797 19.5763 720.065 19.2246 721.338 18.8814L720.818 16.9503C719.535 17.296 718.258 17.6503 716.986 18.0135L717.535 19.9367ZM709.974 22.2236C711.224 21.8236 712.48 21.4327 713.743 21.0509L713.164 19.1365C711.891 19.5214 710.624 19.9155 709.364 20.3189L709.974 22.2236ZM702.498 24.7616C703.731 24.3181 704.973 23.8843 706.223 23.4602L705.581 21.5662C704.32 21.9941 703.066 22.4319 701.821 22.8796L702.498 24.7616ZM695.124 27.575C696.339 27.0834 697.564 26.6023 698.799 26.1315L698.086 24.2627C696.839 24.7383 695.602 25.2243 694.374 25.721L695.124 27.575ZM687.88 30.6914C689.071 30.1467 690.275 29.6131 691.491 29.0906L690.701 27.2532C689.472 27.7816 688.254 28.3213 687.048 28.8725L687.88 30.6914ZM680.796 34.1423C681.959 33.5385 683.137 32.9467 684.328 32.3667L683.453 30.5685C682.247 31.1557 681.053 31.7553 679.875 32.3673L680.796 34.1423ZM673.916 37.9623C675.04 37.2948 676.181 36.6403 677.338 35.9985L676.367 34.2496C675.194 34.9006 674.036 35.5649 672.895 36.2428L673.916 37.9623ZM667.293 42.1884C668.366 41.4524 669.458 40.7302 670.569 40.0219L669.494 38.3355C668.365 39.0556 667.253 39.7901 666.162 40.5393L667.293 42.1884ZM660.992 46.8601C662.003 46.0493 663.035 45.2535 664.089 44.4724L662.899 42.8655C661.824 43.6615 660.771 44.473 659.741 45.3004L660.992 46.8601ZM655.083 52.0273C656.021 51.1309 656.986 50.2508 657.974 49.3867L656.659 47.8806C655.648 48.7637 654.662 49.6637 653.702 50.5811L655.083 52.0273ZM649.688 57.7005C650.535 56.7149 651.412 55.7468 652.318 54.796L650.869 53.4169C649.941 54.3915 649.042 55.3845 648.171 56.3962L649.688 57.7005ZM644.919 63.8873C645.654 62.8152 646.422 61.7616 647.221 60.7264L645.637 59.5047C644.816 60.569 644.026 61.6527 643.27 62.7564L644.919 63.8873ZM640.894 70.571C641.497 69.4178 642.135 68.284 642.807 67.1694L641.094 66.1369C640.402 67.2856 639.744 68.4546 639.122 69.6441L640.894 70.571ZM638.426 75.8786C638.673 75.274 638.929 74.6744 639.195 74.0798L637.368 73.2646C637.094 73.8783 636.83 74.4972 636.574 75.1213C636.317 75.7512 636.069 76.3818 635.831 77.0132L637.703 77.7185C637.934 77.1046 638.175 76.4913 638.426 75.8786ZM635.363 85.1635C635.681 83.9093 636.035 82.658 636.428 81.4093L634.52 80.8096C634.116 82.0942 633.751 83.3817 633.424 84.6721L635.363 85.1635ZM633.872 92.8239C634.049 91.5367 634.261 90.2528 634.511 88.972L632.547 88.5901C632.291 89.9075 632.073 91.2278 631.89 92.551L633.872 92.8239ZM633.22 100.607C633.261 99.3037 633.335 98.0041 633.443 96.7079L631.45 96.5418C631.339 97.8729 631.263 99.2069 631.221 100.544L633.22 100.607ZM633.354 108.428C633.27 107.123 633.216 105.823 633.194 104.526L631.194 104.562C631.217 105.89 631.272 107.221 631.358 108.555L633.354 108.428ZM634.188 116.219C633.995 114.925 633.829 113.634 633.691 112.347L631.702 112.561C631.844 113.876 632.013 115.193 632.209 116.513L634.188 116.219ZM635.624 123.938C635.339 122.657 635.078 121.38 634.84 120.108L632.874 120.475C633.116 121.771 633.382 123.07 633.672 124.371L635.624 123.938ZM637.564 131.558C637.204 130.295 636.862 129.036 636.542 127.78L634.604 128.275C634.929 129.55 635.276 130.827 635.641 132.107L637.564 131.558ZM639.919 139.073C639.496 137.829 639.09 136.588 638.702 135.351L636.794 135.95C637.187 137.203 637.598 138.458 638.025 139.716L639.919 139.073ZM642.61 146.486C642.137 145.259 641.679 144.036 641.236 142.817L639.356 143.5C639.804 144.732 640.267 145.967 640.743 147.204L642.61 146.486ZM645.57 153.805C645.057 152.592 644.556 151.381 644.067 150.174L642.213 150.925C642.706 152.142 643.211 153.361 643.728 154.584L645.57 153.805ZM648.744 161.045C648.198 159.841 647.662 158.64 647.137 157.443L645.305 158.246C645.834 159.451 646.373 160.659 646.922 161.87L648.744 161.045ZM652.083 168.219C651.512 167.022 650.949 165.828 650.395 164.637L648.582 165.482C649.139 166.678 649.705 167.878 650.278 169.08L652.083 168.219ZM655.548 175.342C654.958 174.149 654.374 172.96 653.797 171.774L651.998 172.649C652.578 173.84 653.164 175.033 653.756 176.229L655.548 175.342ZM659.096 182.414C658.495 181.229 657.898 180.047 657.306 178.868L655.519 179.765C656.112 180.947 656.71 182.132 657.312 183.319L659.096 182.414ZM662.7 189.459C662.093 188.281 661.49 187.106 660.89 185.934L659.109 186.845C659.71 188.019 660.314 189.195 660.921 190.375L662.7 189.459ZM666.335 196.498C665.728 195.324 665.122 194.152 664.518 192.984L662.741 193.902C662.985 194.374 663.229 194.846 663.473 195.318C663.834 196.017 664.197 196.716 664.559 197.417L666.335 196.498ZM669.977 203.542C669.372 202.368 668.767 201.198 668.163 200.031L666.387 200.949C666.99 202.116 667.595 203.286 668.2 204.459L669.977 203.542ZM673.6 210.602C672.998 209.422 672.396 208.245 671.793 207.072L670.014 207.985C670.616 209.157 671.218 210.333 671.818 211.511L673.6 210.602ZM677.18 217.689C676.587 216.502 675.991 215.318 675.395 214.137L673.61 215.039C674.205 216.218 674.799 217.399 675.392 218.583L677.18 217.689ZM680.691 224.803C680.111 223.611 679.529 222.422 678.943 221.237L677.15 222.122C677.734 223.304 678.315 224.49 678.893 225.678L680.691 224.803ZM684.115 231.966C683.553 230.767 682.986 229.571 682.416 228.379L680.612 229.242C681.18 230.43 681.744 231.621 682.305 232.815L684.115 231.966ZM687.43 239.186C686.888 237.978 686.341 236.773 685.789 235.572L683.972 236.406C684.521 237.602 685.066 238.802 685.605 240.004L687.43 239.186ZM690.611 246.469C690.093 245.249 689.569 244.033 689.039 242.82L687.206 243.62C687.734 244.827 688.255 246.037 688.77 247.251L690.611 246.469ZM693.635 253.822C693.145 252.59 692.648 251.361 692.144 250.135L690.294 250.896C690.795 252.115 691.289 253.336 691.776 254.561L693.635 253.822ZM696.476 261.249C696.018 260.004 695.553 258.763 695.079 257.525L693.211 258.24C693.682 259.469 694.144 260.702 694.598 261.938L696.476 261.249ZM699.109 268.756C698.689 267.498 698.259 266.243 697.82 264.992L695.933 265.655C696.368 266.896 696.795 268.141 697.212 269.389L699.109 268.756ZM701.507 276.344C701.129 275.072 700.739 273.805 700.339 272.54L698.432 273.144C698.829 274.397 699.215 275.654 699.591 276.915L701.507 276.344ZM703.645 284.013C703.312 282.728 702.967 281.447 702.611 280.169L700.684 280.706C701.037 281.972 701.379 283.242 701.709 284.515L703.645 284.013ZM705.494 291.762C705.211 290.463 704.916 289.168 704.607 287.877L702.662 288.341C702.967 289.62 703.26 290.902 703.54 292.188L705.494 291.762ZM707.027 299.578C706.799 298.268 706.557 296.962 706.301 295.659L704.339 296.044C704.592 297.333 704.831 298.625 705.057 299.921L707.027 299.578ZM708.219 307.455C708.05 306.136 707.866 304.821 707.667 303.51L705.69 303.81C705.886 305.106 706.068 306.406 706.235 307.709L708.219 307.455ZM709.046 315.382C708.94 314.058 708.818 312.738 708.68 311.422L706.691 311.63C706.827 312.93 706.947 314.234 707.052 315.542L709.046 315.382ZM709.487 323.348C709.447 322.016 709.39 320.688 709.316 319.363L707.319 319.474C707.392 320.782 707.448 322.093 707.488 323.409L709.487 323.348ZM709.527 331.33C709.554 329.992 709.565 328.658 709.558 327.327L707.558 327.337C707.565 328.651 707.555 329.967 707.527 331.288L709.527 331.33ZM709.153 339.283C709.251 337.952 709.33 336.625 709.392 335.301L707.394 335.207C707.333 336.514 707.255 337.824 707.158 339.137L709.153 339.283ZM708.361 347.213C708.528 345.895 708.677 344.582 708.808 343.271L706.818 343.072C706.688 344.365 706.542 345.662 706.377 346.962L708.361 347.213ZM707.486 353.165C707.597 352.501 707.704 351.838 707.806 351.176L705.829 350.872C705.728 351.525 705.623 352.18 705.514 352.835C705.403 353.497 705.287 354.156 705.165 354.811L707.131 355.177C707.255 354.509 707.374 353.839 707.486 353.165ZM705.378 363.042C705.714 361.755 706.028 360.456 706.321 359.146L704.369 358.71C704.081 359.998 703.773 361.273 703.443 362.537L705.378 363.042ZM703.049 370.788C703.482 369.519 703.893 368.238 704.282 366.945L702.367 366.369C701.985 367.639 701.581 368.896 701.156 370.142L703.049 370.788ZM700.159 378.323C700.688 377.085 701.194 375.835 701.678 374.572L699.811 373.856C699.335 375.095 698.838 376.323 698.32 377.538L700.159 378.323ZM696.723 385.62C697.34 384.426 697.936 383.219 698.51 382L696.7 381.148C696.137 382.345 695.552 383.53 694.946 384.702L696.723 385.62ZM692.764 392.652C693.466 391.504 694.146 390.345 694.806 389.173L693.064 388.192C692.415 389.343 691.747 390.482 691.058 391.609L692.764 392.652ZM688.321 399.387C689.101 398.288 689.862 397.178 690.603 396.055L688.933 394.954C688.205 396.057 687.458 397.149 686.69 398.23L688.321 399.387ZM683.443 405.801C684.292 404.756 685.123 403.7 685.935 402.633L684.343 401.422C683.545 402.472 682.727 403.511 681.891 404.539L683.443 405.801ZM678.17 411.893C679.078 410.905 679.969 409.907 680.843 408.899L679.331 407.589C678.471 408.583 677.593 409.566 676.698 410.539L678.17 411.893ZM672.541 417.668C673.508 416.73 674.459 415.781 675.394 414.823L673.962 413.427C673.041 414.372 672.103 415.307 671.149 416.232L672.541 417.668ZM666.606 423.125C667.626 422.235 668.631 421.335 669.62 420.426L668.266 418.953C667.29 419.851 666.298 420.739 665.291 421.618L666.606 423.125ZM660.428 428.257C661.484 427.421 662.526 426.577 663.554 425.723L662.276 424.184C661.261 425.028 660.231 425.862 659.187 426.688L660.428 428.257ZM654.012 433.104C655.097 432.321 656.169 431.529 657.229 430.729L656.023 429.133C654.976 429.924 653.915 430.707 652.841 431.482L654.012 433.104ZM647.383 437.684C648.507 436.94 649.619 436.188 650.72 435.428L649.583 433.783C648.494 434.535 647.392 435.28 646.279 436.016L647.383 437.684ZM640.599 441.993C641.752 441.29 642.893 440.58 644.024 439.862L642.952 438.173C641.832 438.885 640.7 439.589 639.558 440.286L640.599 441.993ZM633.681 446.052C634.848 445.393 636.006 444.727 637.153 444.054L636.141 442.329C635.004 442.996 633.856 443.656 632.698 444.31L633.681 446.052ZM626.616 449.894C627.803 449.272 628.982 448.643 630.151 448.007L629.195 446.25C628.035 446.881 626.866 447.505 625.688 448.123L626.616 449.894ZM619.441 453.526C620.654 452.933 621.858 452.334 623.054 451.729L622.151 449.944C620.964 450.545 619.767 451.14 618.563 451.729L619.441 453.526ZM612.2 456.946C613.418 456.389 614.63 455.827 615.833 455.259L614.979 453.45C613.783 454.015 612.58 454.574 611.369 455.127L612.2 456.946ZM604.851 460.196C606.081 459.669 607.305 459.137 608.521 458.599L607.713 456.77C606.503 457.304 605.287 457.833 604.064 458.357L604.851 460.196ZM597.432 463.275C598.681 462.772 599.925 462.264 601.161 461.751L600.395 459.904C599.165 460.414 597.928 460.919 596.685 461.419L597.432 463.275ZM589.973 466.187C591.224 465.713 592.469 465.234 593.709 464.75L592.981 462.887C591.748 463.368 590.509 463.845 589.265 464.317L589.973 466.187ZM582.435 468.962C583.696 468.511 584.953 468.055 586.204 467.594L585.514 465.717C584.268 466.176 583.017 466.63 581.761 467.079L582.435 468.962ZM574.863 471.595C576.134 471.165 577.401 470.731 578.663 470.292L578.006 468.403C576.75 468.84 575.488 469.273 574.222 469.701L574.863 471.595ZM567.252 474.101C568.523 473.693 569.79 473.282 571.053 472.866L570.428 470.967C569.17 471.381 567.908 471.79 566.642 472.196L567.252 474.101ZM559.583 476.495C560.868 476.104 562.149 475.71 563.426 475.311L562.83 473.402C561.558 473.799 560.281 474.192 559.001 474.581L559.583 476.495ZM551.911 478.77C553.196 478.398 554.479 478.023 555.757 477.644L555.189 475.726C553.914 476.104 552.637 476.478 551.355 476.849L551.911 478.77ZM544.193 480.948C545.48 480.593 546.764 480.236 548.045 479.874L547.502 477.949C546.225 478.309 544.945 478.666 543.663 479.019L544.193 480.948ZM536.45 483.03C537.746 482.69 539.039 482.346 540.33 481.999L539.81 480.068C538.524 480.414 537.234 480.756 535.942 481.095L536.45 483.03ZM528.693 485.021C529.989 484.696 531.282 484.368 532.572 484.037L532.075 482.099C530.788 482.43 529.498 482.757 528.207 483.081L528.693 485.021ZM520.904 486.932C522.205 486.62 523.505 486.305 524.802 485.986L524.325 484.044C523.031 484.362 521.735 484.676 520.438 484.988L520.904 486.932ZM513.109 488.764C514.412 488.465 515.712 488.162 517.012 487.857L516.554 485.91C515.258 486.214 513.96 486.516 512.661 486.815L513.109 488.764ZM505.292 490.526C506.595 490.238 507.898 489.948 509.199 489.654L508.759 487.703C507.461 487.996 506.161 488.286 504.861 488.573L505.292 490.526ZM497.463 492.221C498.769 491.944 500.075 491.664 501.38 491.381L500.957 489.427C499.654 489.709 498.351 489.988 497.047 490.265L497.463 492.221ZM489.62 493.856C490.928 493.588 492.235 493.318 493.542 493.046L493.134 491.088C491.83 491.36 490.524 491.629 489.219 491.896L489.62 493.856ZM481.768 495.433C483.077 495.174 484.386 494.914 485.695 494.651L485.302 492.69C484.512 492.849 483.722 493.007 482.931 493.164C482.415 493.266 481.898 493.369 481.381 493.471L481.768 495.433ZM473.903 496.959C475.214 496.709 476.524 496.457 477.835 496.202L477.454 494.239C476.145 494.493 474.837 494.745 473.529 494.994L473.903 496.959ZM466.031 498.437C467.345 498.194 468.659 497.949 469.974 497.702L469.605 495.737C468.292 495.983 466.98 496.228 465.668 496.47L466.031 498.437ZM458.158 499.871C459.468 499.636 460.779 499.399 462.092 499.16L461.733 497.192C460.423 497.431 459.113 497.667 457.804 497.902L458.158 499.871ZM450.264 501.268C451.579 501.039 452.895 500.807 454.213 500.574L453.864 498.605C452.548 498.838 451.233 499.069 449.92 499.298L450.264 501.268ZM442.384 502.628C443.696 502.404 445.009 502.179 446.325 501.952L445.985 499.981C445.222 500.113 444.46 500.244 443.699 500.374C443.148 500.468 442.598 500.562 442.048 500.656L442.384 502.628ZM434.48 503.96C435.793 503.741 437.108 503.521 438.426 503.299L438.093 501.326C436.777 501.548 435.463 501.768 434.151 501.987L434.48 503.96ZM426.579 505.265C427.899 505.049 429.221 504.832 430.547 504.613L430.221 502.639C428.897 502.858 427.575 503.075 426.256 503.291L426.579 505.265ZM418.693 506.545C420.001 506.335 421.313 506.122 422.627 505.909L422.307 503.935C420.993 504.148 419.682 504.36 418.375 504.571L418.693 506.545ZM410.769 507.814L411.956 507.625C412.878 507.478 413.801 507.331 414.726 507.182L414.41 505.208C413.088 505.419 411.769 505.63 410.454 505.839L410.769 507.814ZM402.871 509.066C404.187 508.859 405.508 508.65 406.833 508.44L406.52 506.464C405.195 506.674 403.875 506.883 402.559 507.091L402.871 509.066ZM397.37 509.934L398.908 509.692L398.596 507.716C397.28 507.924 395.968 508.13 394.66 508.336L394.971 510.312L397.37 509.934ZM387.047 511.558L388.439 511.339L391.014 510.934L390.703 508.958C389.376 509.167 388.053 509.375 386.736 509.583L387.047 511.558ZM381.156 512.488L383.111 512.179L382.8 510.203L380.844 510.512L378.881 510.822L379.193 512.798L381.156 512.488ZM371.263 514.05L375.244 513.422L374.932 511.446L370.951 512.074L371.263 514.05ZM363.346 515.302C364.666 515.093 365.983 514.884 367.295 514.677L366.983 512.701L365.879 512.876C365.411 512.95 364.943 513.024 364.474 513.099L363.032 513.327L363.346 515.302ZM355.399 516.568C356.727 516.355 358.05 516.144 359.37 515.934L359.056 513.959C357.735 514.169 356.411 514.38 355.083 514.593L355.399 516.568ZM347.483 517.842C348.809 517.627 350.132 517.413 351.452 517.201L351.134 515.227C349.814 515.439 348.49 515.653 347.163 515.868L347.483 517.842ZM342.416 518.667C342.78 518.607 343.144 518.548 343.508 518.488L343.185 516.515C341.873 516.729 340.558 516.944 339.239 517.161L339.564 519.135C340.516 518.978 341.467 518.822 342.416 518.667ZM331.625 520.454C332.954 520.231 334.279 520.01 335.603 519.79L335.275 517.817C333.951 518.037 332.624 518.259 331.294 518.482L331.625 520.454ZM323.732 521.794C324.198 521.714 324.664 521.634 325.129 521.555C325.982 521.409 326.835 521.264 327.686 521.119L327.351 519.148C326.034 519.371 324.715 519.596 323.394 519.823L323.732 521.794ZM318.077 522.773C318.64 522.675 319.202 522.577 319.764 522.479L319.422 520.509C318.951 520.591 318.481 520.672 318.01 520.755C317.165 520.902 316.319 521.05 315.473 521.199L315.819 523.169C316.572 523.037 317.325 522.905 318.077 522.773ZM307.917 524.579C309.237 524.34 310.556 524.103 311.873 523.868L311.522 521.899C310.203 522.134 308.883 522.372 307.561 522.611L307.917 524.579ZM300.03 526.026C301.344 525.781 302.657 525.539 303.968 525.298L303.607 523.331C302.294 523.572 300.979 523.815 299.663 524.06L300.03 526.026ZM292.135 527.52C293.452 527.267 294.769 527.016 296.084 526.767L295.712 524.802L294.962 524.944C294.631 525.007 294.299 525.07 293.967 525.133C293.231 525.273 292.494 525.414 291.758 525.556L292.135 527.52ZM284.269 529.058C285.582 528.797 286.894 528.538 288.205 528.282L287.821 526.319C286.508 526.576 285.194 526.835 283.879 527.096L284.269 529.058ZM276.403 530.648C277.712 530.379 279.021 530.112 280.329 529.847L279.933 527.887C278.622 528.152 277.311 528.42 275.999 528.69L276.403 530.648ZM268.55 532.294C269.859 532.015 271.169 531.738 272.477 531.464L272.067 529.506C270.756 529.781 269.444 530.058 268.133 530.338L268.55 532.294ZM260.713 533.999C262.018 533.71 263.323 533.423 264.628 533.139L264.203 531.185C262.895 531.47 261.588 531.757 260.28 532.047L260.713 533.999ZM252.886 535.769C254.19 535.468 255.494 535.17 256.799 534.876L256.358 532.925C255.051 533.22 253.744 533.519 252.437 533.82L252.886 535.769ZM245.081 537.605C246.38 537.293 247.681 536.984 248.982 536.678L248.524 534.731C247.22 535.038 245.917 535.348 244.614 535.66L245.081 537.605ZM237.29 539.514C238.587 539.19 239.885 538.868 241.183 538.55L240.707 536.608C239.406 536.927 238.105 537.249 236.805 537.574L237.29 539.514ZM229.521 541.5C230.814 541.163 232.108 540.828 233.402 540.497L232.907 538.56C231.609 538.892 230.312 539.227 229.016 539.565L229.521 541.5ZM221.772 543.568C223.061 543.217 224.352 542.868 225.645 542.523L225.129 540.591C223.833 540.937 222.539 541.286 221.245 541.639L221.772 543.568ZM214.053 545.721C215.336 545.355 216.621 544.993 217.908 544.634L217.37 542.708C216.08 543.067 214.792 543.431 213.505 543.798L214.053 545.721ZM206.351 547.968C207.631 547.586 208.913 547.208 210.197 546.833L209.637 544.914C208.349 545.289 207.063 545.669 205.779 546.052L206.351 547.968ZM198.687 550.31C199.962 549.912 201.239 549.517 202.518 549.126L201.934 547.213C200.65 547.605 199.369 548.001 198.09 548.401L198.687 550.31ZM191.053 552.756C192.32 552.34 193.59 551.928 194.862 551.521L194.252 549.616C192.975 550.025 191.701 550.438 190.43 550.855L191.053 552.756ZM183.452 555.31C184.716 554.875 185.983 554.444 187.253 554.017L186.616 552.121C185.342 552.549 184.07 552.982 182.801 553.419L183.452 555.31ZM175.906 557.974C177.157 557.521 178.412 557.073 179.67 556.629L179.004 554.743C177.741 555.188 176.482 555.638 175.225 556.093L175.906 557.974ZM168.382 560.766C169.629 560.291 170.88 559.821 172.135 559.356L171.439 557.481C170.179 557.948 168.923 558.42 167.671 558.897L168.382 560.766ZM160.924 563.679C162.163 563.183 163.406 562.691 164.652 562.204L163.925 560.341C162.673 560.83 161.424 561.324 160.18 561.823L160.924 563.679ZM153.517 566.728C154.743 566.21 155.973 565.697 157.208 565.189L156.446 563.339C155.206 563.85 153.97 564.365 152.738 564.886L153.517 566.728ZM146.164 569.92C147.384 569.376 148.609 568.837 149.838 568.304L149.042 566.469C147.806 567.005 146.575 567.547 145.349 568.094L146.164 569.92ZM138.897 573.253C140.099 572.686 141.306 572.125 142.519 571.569L141.685 569.751C140.467 570.31 139.253 570.874 138.044 571.444L138.897 573.253ZM131.682 576.752C132.874 576.157 134.071 575.569 135.273 574.985L134.401 573.186C133.191 573.772 131.987 574.364 130.789 574.962L131.682 576.752ZM124.561 580.409C125.743 579.785 126.93 579.166 128.123 578.553L127.21 576.774C126.009 577.39 124.815 578.013 123.626 578.641L124.561 580.409ZM117.542 584.233C118.7 583.583 119.863 582.94 121.033 582.303L120.077 580.546C118.899 581.188 117.728 581.835 116.563 582.489L117.542 584.233ZM110.605 588.248C111.749 587.565 112.9 586.889 114.058 586.219L113.056 584.488C111.891 585.162 110.732 585.843 109.58 586.53L110.605 588.248ZM103.797 592.44C104.922 591.725 106.054 591.018 107.193 590.316L106.144 588.613C104.997 589.319 103.857 590.032 102.724 590.752L103.797 592.44ZM97.1135 596.829C98.2124 596.083 99.3189 595.345 100.433 594.614L99.3353 592.942C98.213 593.679 97.0981 594.422 95.9908 595.174L97.1135 596.829ZM90.56 601.426C91.6386 600.643 92.7254 599.868 93.8203 599.1L92.6719 597.463C91.5684 598.237 90.4729 599.018 89.3855 599.807L90.56 601.426ZM84.1727 606.222C85.2229 605.406 86.2817 604.597 87.349 603.795L86.1481 602.196C85.0719 603.004 84.0042 603.82 82.945 604.643L84.1727 606.222ZM77.9488 611.238C78.9681 610.387 79.9965 609.543 81.0339 608.707L79.779 607.15C78.7325 607.993 77.6949 608.844 76.6664 609.704L77.9488 611.238ZM71.9083 616.477C72.8981 615.586 73.8976 614.703 74.9066 613.828L73.5964 612.317C72.5781 613.2 71.5692 614.091 70.5701 614.99L71.9083 616.477ZM66.0789 621.932C67.0319 621.004 67.9951 620.086 68.9682 619.175L67.6017 617.715C66.6192 618.634 65.6466 619.562 64.6841 620.498L66.0789 621.932ZM60.4665 627.617C61.381 626.652 62.3061 625.696 63.2415 624.748L61.8184 623.343C60.8734 624.3 59.9389 625.266 59.0149 626.241L60.4665 627.617ZM55.095 633.526C55.9692 632.523 56.8544 631.528 57.7505 630.542L56.2706 629.197C55.3651 630.193 54.4704 631.198 53.5869 632.213L55.095 633.526ZM49.984 639.657C50.8132 638.617 51.6539 637.586 52.5058 636.564L50.9697 635.284C50.1085 636.317 49.2586 637.359 48.4202 638.411L49.984 639.657ZM45.1476 646.01C45.9303 644.932 46.7247 643.864 47.5309 642.805L45.9396 641.594C45.1245 642.664 44.321 643.745 43.5294 644.834L45.1476 646.01ZM40.6085 652.569C41.3403 651.457 42.0843 650.356 42.8402 649.264L41.1956 648.125C40.431 649.23 39.6785 650.344 38.9382 651.469L40.6085 652.569ZM36.3744 659.336C37.0538 658.191 37.7457 657.056 38.4497 655.931L36.7543 654.87C36.042 656.009 35.342 657.157 34.6546 658.315L36.3744 659.336ZM32.4621 666.294C33.089 665.115 33.7286 663.945 34.3807 662.786L32.6374 661.806C31.9776 662.979 31.3304 664.162 30.6961 665.356L32.4621 666.294ZM28.8895 673.416C29.4579 672.213 30.039 671.02 30.6326 669.836L28.845 668.939C28.2443 670.137 27.6563 671.344 27.0812 672.561L28.8895 673.416ZM20.1667 678.5C20.1667 681.445 22.5545 683.833 25.5 683.833C28.4455 683.833 30.8333 681.445 30.8333 678.5C30.8333 675.555 28.4455 673.167 25.5 673.167C22.5545 673.167 20.1667 675.555 20.1667 678.5ZM1261.67 1347.5C1261.67 1350.45 1264.05 1352.83 1267 1352.83C1269.95 1352.83 1272.33 1350.45 1272.33 1347.5C1272.33 1344.55 1269.95 1342.17 1267 1342.17C1264.05 1342.17 1261.67 1344.55 1261.67 1347.5ZM1273.21 1355.26C1272.52 1354.11 1271.83 1352.99 1271.13 1351.89L1269.45 1352.96C1270.13 1354.05 1270.82 1355.15 1271.5 1356.28L1273.21 1355.26ZM1277.13 1362.2C1276.5 1361.02 1275.87 1359.86 1275.23 1358.72L1273.48 1359.7C1274.12 1360.83 1274.74 1361.97 1275.36 1363.14L1277.13 1362.2ZM1280.69 1369.33C1280.12 1368.12 1279.54 1366.92 1278.95 1365.75L1277.16 1366.64C1277.74 1367.8 1278.31 1368.98 1278.88 1370.18L1280.69 1369.33ZM1283.9 1376.63C1283.68 1376.1 1283.46 1375.58 1283.24 1375.06C1283.09 1374.7 1282.94 1374.34 1282.78 1373.99C1282.63 1373.64 1282.48 1373.3 1282.33 1372.95L1280.5 1373.76C1281.03 1374.95 1281.54 1376.16 1282.05 1377.39L1283.9 1376.63ZM1286.76 1384.06C1286.31 1382.79 1285.84 1381.55 1285.37 1380.31L1283.5 1381.03C1283.97 1382.25 1284.43 1383.48 1284.88 1384.73L1286.76 1384.06ZM1289.28 1391.61C1288.88 1390.33 1288.48 1389.06 1288.06 1387.81L1286.16 1388.44C1286.57 1389.68 1286.98 1390.93 1287.37 1392.2L1289.28 1391.61ZM1291.44 1399.27C1291.11 1397.97 1290.76 1396.69 1290.4 1395.42L1288.48 1395.96C1288.83 1397.22 1289.18 1398.49 1289.51 1399.77L1291.44 1399.27ZM1293.26 1407.01C1292.98 1405.71 1292.69 1404.41 1292.39 1403.12L1290.45 1403.58C1290.74 1404.85 1291.03 1406.13 1291.3 1407.42L1293.26 1407.01ZM1294.71 1414.84C1294.5 1413.52 1294.27 1412.22 1294.03 1410.92L1292.06 1411.28C1292.3 1412.57 1292.52 1413.86 1292.74 1415.16L1294.71 1414.84ZM1295.8 1422.72C1295.65 1421.4 1295.48 1420.09 1295.3 1418.78L1293.32 1419.06C1293.42 1419.8 1293.52 1420.55 1293.61 1421.3C1293.68 1421.85 1293.75 1422.4 1293.81 1422.95L1295.8 1422.72ZM1296.51 1430.65C1296.42 1429.33 1296.32 1428.01 1296.2 1426.7L1294.21 1426.88C1294.33 1428.17 1294.43 1429.47 1294.52 1430.78L1296.51 1430.65ZM1296.85 1438.61C1296.83 1437.28 1296.78 1435.96 1296.73 1434.64L1294.73 1434.73C1294.79 1436.03 1294.83 1437.33 1294.85 1438.64L1296.85 1438.61ZM1296.81 1446.57C1296.84 1445.24 1296.87 1443.91 1296.88 1442.59L1294.88 1442.58C1294.87 1443.89 1294.85 1445.2 1294.81 1446.51L1296.81 1446.57ZM1296.38 1454.53C1296.48 1453.2 1296.57 1451.87 1296.64 1450.54L1294.64 1450.44C1294.57 1451.75 1294.48 1453.06 1294.38 1454.38L1296.38 1454.53ZM1295.56 1462.45C1295.73 1461.12 1295.88 1459.8 1296.02 1458.48L1294.03 1458.27C1293.9 1459.58 1293.74 1460.89 1293.58 1462.2L1295.56 1462.45ZM1294.37 1470.31C1294.6 1469 1294.81 1467.69 1295.01 1466.38L1293.03 1466.08C1292.84 1467.37 1292.63 1468.66 1292.4 1469.96L1294.37 1470.31ZM1292.79 1478.11C1293.08 1476.81 1293.36 1475.52 1293.62 1474.23L1291.66 1473.84C1291.61 1474.11 1291.55 1474.39 1291.49 1474.66C1291.46 1474.81 1291.43 1474.96 1291.4 1475.11C1291.22 1475.96 1291.03 1476.81 1290.84 1477.66L1292.79 1478.11ZM1291.57 1483.1C1291.67 1482.73 1291.76 1482.36 1291.86 1482L1289.92 1481.51C1289.6 1482.77 1289.26 1484.03 1288.91 1485.29L1290.84 1485.83C1291.09 1484.92 1291.34 1484.01 1291.57 1483.1ZM1288.51 1493.47C1288.94 1492.19 1289.34 1490.92 1289.73 1489.65L1287.81 1489.07C1287.43 1490.32 1287.03 1491.58 1286.61 1492.84L1288.51 1493.47ZM1285.85 1500.95C1286.33 1499.7 1286.79 1498.45 1287.23 1497.2L1285.35 1496.53C1284.91 1497.76 1284.45 1499 1283.98 1500.23L1285.85 1500.95ZM1282.84 1508.3C1283.37 1507.08 1283.89 1505.87 1284.38 1504.65L1282.53 1503.89C1282.04 1505.09 1281.53 1506.3 1281.01 1507.5L1282.84 1508.3ZM1279.5 1515.53C1280.08 1514.34 1280.65 1513.14 1281.2 1511.95L1279.39 1511.11C1278.84 1512.29 1278.28 1513.47 1277.7 1514.65L1279.5 1515.53ZM1275.83 1522.62C1276.48 1521.44 1277.1 1520.25 1277.72 1519.07L1275.94 1518.15C1275.33 1519.32 1274.71 1520.49 1274.08 1521.66L1275.83 1522.62ZM1271.9 1529.49C1272.59 1528.35 1273.26 1527.21 1273.91 1526.07L1272.17 1525.07C1271.53 1526.2 1270.87 1527.33 1270.19 1528.46L1271.9 1529.49ZM1267.67 1536.23C1267.95 1535.82 1268.22 1535.4 1268.49 1534.99C1268.93 1534.3 1269.37 1533.61 1269.8 1532.91L1268.11 1531.85C1267.69 1532.53 1267.26 1533.2 1266.82 1533.87C1266.55 1534.3 1266.28 1534.72 1266 1535.14L1267.67 1536.23ZM1263.17 1542.82C1263.95 1541.72 1264.72 1540.63 1265.47 1539.53L1263.82 1538.4C1263.07 1539.49 1262.32 1540.57 1261.54 1541.66L1263.17 1542.82ZM1258.46 1549.17C1259.27 1548.12 1260.07 1547.07 1260.85 1546.02L1259.24 1544.83C1258.47 1545.87 1257.68 1546.91 1256.88 1547.95L1258.46 1549.17ZM1253.48 1555.41C1253.88 1554.92 1254.28 1554.44 1254.68 1553.95C1255.12 1553.41 1255.56 1552.87 1255.99 1552.32L1254.43 1551.08C1253.61 1552.1 1252.78 1553.11 1251.94 1554.13L1253.48 1555.41ZM1248.32 1561.43C1249.21 1560.42 1250.08 1559.42 1250.94 1558.42L1249.43 1557.12C1248.57 1558.11 1247.71 1559.11 1246.83 1560.1L1248.32 1561.43ZM1242.96 1567.27C1243.86 1566.32 1244.75 1565.37 1245.63 1564.41L1244.16 1563.06C1243.62 1563.64 1243.09 1564.22 1242.54 1564.8C1242.32 1565.04 1242.1 1565.27 1241.88 1565.51C1241.75 1565.64 1241.63 1565.77 1241.51 1565.9L1242.96 1567.27ZM1237.38 1572.99C1238.34 1572.04 1239.28 1571.09 1240.21 1570.13L1238.78 1568.74C1237.86 1569.68 1236.92 1570.62 1235.97 1571.57L1237.38 1572.99ZM1231.7 1578.46C1232.66 1577.56 1233.61 1576.66 1234.55 1575.75L1233.17 1574.31C1232.23 1575.21 1231.29 1576.1 1230.33 1577L1231.7 1578.46ZM1225.77 1583.86C1226.78 1582.96 1227.78 1582.06 1228.77 1581.16L1227.43 1579.68C1226.44 1580.58 1225.45 1581.47 1224.44 1582.36L1225.77 1583.86ZM1219.81 1588.98C1220.83 1588.13 1221.83 1587.28 1222.82 1586.43L1221.52 1584.91C1221.35 1585.05 1221.18 1585.2 1221.02 1585.34C1220.84 1585.49 1220.67 1585.64 1220.49 1585.79C1219.84 1586.34 1219.19 1586.9 1218.53 1587.45L1219.81 1588.98ZM1213.59 1594.06C1214.65 1593.22 1215.7 1592.37 1216.74 1591.53L1215.47 1589.98C1214.44 1590.82 1213.4 1591.66 1212.35 1592.49L1213.59 1594.06ZM1207.4 1598.86C1208.45 1598.07 1209.5 1597.27 1210.53 1596.47L1209.3 1594.88C1208.28 1595.68 1207.24 1596.48 1206.19 1597.27L1207.4 1598.86ZM1202.56 1602.46C1203.11 1602.06 1203.65 1601.66 1204.2 1601.26L1203.01 1599.65C1201.94 1600.44 1200.86 1601.23 1199.76 1602.02L1200.93 1603.64C1201.48 1603.25 1202.02 1602.85 1202.56 1602.46ZM1194.53 1608.15C1195.04 1607.79 1195.55 1607.44 1196.06 1607.09C1196.63 1606.69 1197.2 1606.29 1197.76 1605.9L1196.61 1604.26C1195.55 1605.01 1194.48 1605.76 1193.39 1606.5L1194.53 1608.15ZM1187.88 1612.62C1189.01 1611.88 1190.13 1611.13 1191.23 1610.39L1190.12 1608.73C1189.37 1609.23 1188.62 1609.73 1187.87 1610.23C1187.5 1610.47 1187.14 1610.71 1186.78 1610.95L1187.88 1612.62ZM1181.27 1616.87C1182.38 1616.17 1183.49 1615.47 1184.58 1614.76L1183.5 1613.08C1182.41 1613.78 1181.31 1614.48 1180.21 1615.18L1181.27 1616.87ZM1174.48 1621.05C1175.63 1620.36 1176.77 1619.66 1177.91 1618.96L1176.86 1617.26C1175.73 1617.96 1174.59 1618.65 1173.45 1619.34L1174.48 1621.05ZM1167.67 1625.07C1168.8 1624.42 1169.93 1623.76 1171.04 1623.11L1170.02 1621.38C1168.91 1622.04 1167.8 1622.69 1166.67 1623.34L1167.67 1625.07ZM1160.78 1628.98C1161.95 1628.33 1163.11 1627.68 1164.26 1627.03L1163.27 1625.29C1162.13 1625.94 1160.98 1626.58 1159.81 1627.23L1160.78 1628.98ZM1155.47 1631.88C1155.84 1631.69 1156.2 1631.49 1156.56 1631.29C1156.79 1631.17 1157.02 1631.04 1157.26 1630.91L1156.3 1629.16C1155.71 1629.48 1155.12 1629.8 1154.53 1630.12L1152.73 1631.09L1153.68 1632.85L1155.47 1631.88ZM1146.61 1636.65L1150.13 1634.76L1149.18 1633L1145.66 1634.89L1146.61 1636.65ZM1139.71 1640.37L1143.14 1638.52L1142.19 1636.76L1138.76 1638.6L1139.71 1640.37ZM1132.82 1644.07L1136.32 1642.19L1135.37 1640.43L1131.87 1642.31L1132.82 1644.07ZM1125.76 1647.86L1129.27 1645.98L1128.32 1644.21L1124.82 1646.1L1125.76 1647.86ZM1118.89 1651.54L1122.31 1649.71L1121.36 1647.95L1117.95 1649.78L1118.89 1651.54ZM1111.91 1655.29L1115.49 1653.37L1114.54 1651.61L1110.97 1653.52L1111.91 1655.29ZM1104.92 1659.03L1108.39 1657.18L1107.44 1655.41L1103.97 1657.27L1104.92 1659.03ZM1098.11 1662.68L1101.5 1660.87L1100.55 1659.1L1097.16 1660.92L1098.11 1662.68ZM1091 1666.48L1094.52 1664.6L1093.58 1662.83L1090.06 1664.72L1091 1666.48ZM1084.13 1670.15L1087.53 1668.33L1086.59 1666.57L1083.18 1668.39L1084.13 1670.15ZM1077.11 1673.91L1080.67 1672L1079.73 1670.24L1076.16 1672.14L1077.11 1673.91ZM1070.17 1677.61L1073.61 1675.77L1072.66 1674.01L1069.23 1675.84L1070.17 1677.61ZM1063.2 1681.33L1066.79 1679.41L1065.85 1677.65L1062.26 1679.56L1063.2 1681.33ZM1056.25 1685.04L1059.69 1683.2L1058.75 1681.44L1055.31 1683.27L1056.25 1685.04ZM1049.28 1688.76L1052.87 1686.84L1051.92 1685.08L1048.34 1687L1049.28 1688.76ZM1042.36 1692.46L1045.78 1690.63L1044.84 1688.87L1041.42 1690.69L1042.36 1692.46ZM1035.35 1696.2C1036.51 1695.58 1037.7 1694.95 1038.9 1694.3L1037.96 1692.54L1034.4 1694.44L1035.35 1696.2ZM1028.51 1699.86C1029.62 1699.27 1030.75 1698.66 1031.89 1698.05L1030.95 1696.29C1029.8 1696.9 1028.68 1697.5 1027.57 1698.1L1028.51 1699.86ZM1021.46 1703.64C1022.6 1703.03 1023.75 1702.41 1024.93 1701.78L1023.98 1700.02C1022.81 1700.65 1021.65 1701.27 1020.51 1701.88L1021.46 1703.64ZM1014.51 1707.38C1015.68 1706.75 1016.88 1706.11 1018.09 1705.45L1017.14 1703.69C1015.93 1704.34 1014.73 1704.99 1013.56 1705.62L1014.51 1707.38ZM1007.64 1711.09L1008.91 1710.4C1009.62 1710.02 1010.33 1709.64 1011.05 1709.24L1010.1 1707.49C1008.94 1708.11 1007.8 1708.73 1006.69 1709.33L1007.64 1711.09ZM1000.7 1714.86C1001.81 1714.25 1002.94 1713.64 1004.1 1713.01L1003.14 1711.25C1001.99 1711.88 1000.85 1712.5 999.744 1713.1L1000.7 1714.86ZM993.755 1718.67C994.874 1718.05 996.02 1717.42 997.195 1716.78L996.234 1715.02C995.058 1715.67 993.91 1716.3 992.79 1716.92L993.755 1718.67ZM986.859 1722.5C987.978 1721.87 989.128 1721.23 990.311 1720.57L989.341 1718.82C988.155 1719.48 987.003 1720.12 985.883 1720.75L986.859 1722.5ZM980.019 1726.36C981.12 1725.73 982.258 1725.09 983.436 1724.42L982.451 1722.68C981.757 1723.07 981.075 1723.46 980.407 1723.84C979.94 1724.11 979.479 1724.37 979.025 1724.63L980.019 1726.36ZM973.268 1730.3C974.33 1729.67 975.436 1729.02 976.588 1728.35L975.582 1726.62C974.426 1727.29 973.315 1727.94 972.247 1728.58L973.268 1730.3ZM966.493 1734.43C967.55 1733.76 968.665 1733.07 969.84 1732.36L968.799 1730.65C967.616 1731.37 966.493 1732.07 965.425 1732.74L966.493 1734.43ZM959.985 1738.74C960.986 1738.04 962.058 1737.31 963.21 1736.55L962.108 1734.88C960.942 1735.65 959.853 1736.39 958.835 1737.11L959.985 1738.74ZM953.829 1743.5C954.732 1742.72 955.73 1741.9 956.838 1741.05L955.619 1739.46C954.482 1740.34 953.452 1741.18 952.514 1742L953.829 1743.5ZM948.586 1749.06C949.304 1748.09 950.116 1747.13 951.06 1746.14L949.613 1744.76C948.615 1745.8 947.751 1746.83 946.982 1747.86L948.586 1749.06ZM944.804 1755.7C945.351 1754.48 945.908 1753.34 946.523 1752.25L944.779 1751.27C944.127 1752.43 943.544 1753.62 942.98 1754.87L944.804 1755.7ZM942.784 1760.5C942.953 1760.08 943.119 1759.67 943.281 1759.28L941.431 1758.52C941.291 1758.86 941.15 1759.21 941.007 1759.56C940.788 1760.09 940.563 1760.65 940.33 1761.21C940.201 1761.53 940.07 1761.85 939.935 1762.17L941.783 1762.94C942.134 1762.09 942.466 1761.28 942.784 1760.5ZM933.167 1768C933.167 1770.95 935.555 1773.33 938.5 1773.33C941.445 1773.33 943.833 1770.95 943.833 1768C943.833 1765.05 941.445 1762.67 938.5 1762.67C935.555 1762.67 933.167 1765.05 933.167 1768ZM22.4782 683.713C22.0457 684.912 21.612 686.143 21.1779 687.404L23.0691 688.055C23.5 686.802 23.9305 685.581 24.3595 684.391L22.4782 683.713ZM19.9071 691.185C19.5022 692.417 19.0977 693.676 18.6943 694.959L20.6023 695.559C21.0032 694.283 21.405 693.033 21.8072 691.809L19.9071 691.185ZM17.5305 698.743C17.1532 699.997 16.7775 701.272 16.4039 702.568L18.3257 703.122C18.6971 701.833 19.0707 700.566 19.4456 699.32L17.5305 698.743ZM15.3328 706.363C14.983 707.63 14.6355 708.915 14.2909 710.217L16.2244 710.729C16.5671 709.433 16.9127 708.155 17.2606 706.896L15.3328 706.363ZM13.303 714.032C12.98 715.306 12.6601 716.596 12.3437 717.901L14.2873 718.372C14.6021 717.074 14.9204 715.791 15.2417 714.523L13.303 714.032ZM11.4329 721.742C11.1363 723.021 10.8433 724.313 10.5542 725.619L12.5069 726.051C12.7945 724.752 13.0861 723.466 13.3812 722.193L11.4329 721.742ZM9.71721 729.489C9.44648 730.771 9.17979 732.065 8.91746 733.37L10.8782 733.764C11.1393 732.466 11.4047 731.178 11.6741 729.902L9.71721 729.489ZM8.15274 737.272C7.90754 738.556 7.66673 739.85 7.43064 741.154L9.39864 741.51C9.63359 740.213 9.87323 738.925 10.1172 737.647L8.15274 737.272ZM6.73804 745.088C6.51811 746.373 6.30293 747.667 6.09276 748.97L8.06723 749.288C8.27638 747.992 8.49053 746.704 8.70939 745.425L6.73804 745.088ZM5.47759 752.903C5.28125 754.199 5.09002 755.504 4.90418 756.815L6.88441 757.096C7.06935 755.79 7.25965 754.493 7.45504 753.203L5.47759 752.903ZM4.36714 760.742C4.19464 762.05 4.02763 763.366 3.86638 764.688L5.85167 764.93C6.01213 763.615 6.17832 762.305 6.34998 761.004L4.36714 760.742ZM3.40741 768.609C3.26015 769.923 3.11871 771.243 2.98331 772.569L4.97297 772.772C5.10768 771.453 5.24843 770.139 5.39496 768.832L3.40741 768.609ZM2.6012 776.502C2.48036 777.813 2.36557 779.13 2.25707 780.452L4.25036 780.616C4.35831 779.3 4.47252 777.99 4.59276 776.686L2.6012 776.502ZM1.9519 784.416C1.85776 785.726 1.76991 787.04 1.68858 788.359L3.68479 788.482C3.7657 787.17 3.85309 785.862 3.94675 784.559L1.9519 784.416ZM1.46437 792.328C1.39697 793.643 1.33618 794.961 1.2822 796.283L3.28053 796.365C3.33423 795.05 3.3947 793.738 3.46174 792.431L1.46437 792.328ZM1.14148 800.243C1.1015 801.566 1.06848 802.892 1.04261 804.221L3.04223 804.26C3.06796 802.938 3.10081 801.619 3.14057 800.304L1.14148 800.243ZM0.987087 808.173C0.975709 809.493 0.971527 810.816 0.974744 812.142L2.97474 812.138C2.97154 810.819 2.9757 809.503 2.98701 808.19L0.987087 808.173ZM1.00654 816.111C1.02449 817.428 1.04989 818.747 1.08291 820.069L3.08229 820.02C3.04945 818.705 3.02421 817.393 3.00636 816.083L1.00654 816.111ZM1.20509 824.042C1.25325 825.359 1.30914 826.678 1.37294 827.999L3.37061 827.903C3.30719 826.59 3.25164 825.278 3.20376 823.969L1.20509 824.042ZM1.58776 831.959C1.66734 833.279 1.75498 834.602 1.85088 835.925L3.84566 835.781C3.75034 834.465 3.66323 833.151 3.58414 831.838L1.58776 831.959ZM2.16111 839.871C2.27279 841.188 2.39278 842.505 2.52129 843.824L4.51186 843.63C4.38417 842.32 4.26493 841.011 4.15396 839.702L2.16111 839.871ZM2.93159 847.773C3.07633 849.084 3.22966 850.396 3.39176 851.709L5.37667 851.464C5.21565 850.16 5.06332 848.856 4.91952 847.553L2.93159 847.773ZM3.90454 855.647C4.08376 856.956 4.27188 858.264 4.46908 859.573L6.44676 859.275C6.25091 857.975 6.06406 856.675 5.88604 855.375L3.90454 855.647ZM5.08665 863.491C5.30166 864.796 5.52589 866.102 5.75952 867.407L7.72822 867.054C7.49625 865.759 7.27359 864.462 7.06007 863.166L5.08665 863.491ZM6.48568 871.304C6.73699 872.602 6.99778 873.899 7.26824 875.195L9.22606 874.786C8.95759 873.5 8.69869 872.212 8.44919 870.924L6.48568 871.304ZM8.10846 879.079C8.39714 880.367 8.69558 881.654 9.00395 882.94L10.9488 882.474C10.6428 881.198 10.3466 879.92 10.0601 878.641L8.10846 879.079ZM9.95902 886.794C10.287 888.076 10.6251 889.356 10.9734 890.634L12.903 890.109C12.5575 888.84 12.222 887.57 11.8966 886.298L9.95902 886.794ZM12.046 894.453C12.4138 895.724 12.7921 896.993 13.1808 898.26L15.0929 897.674C14.7072 896.417 14.3321 895.158 13.9672 893.897L12.046 894.453ZM14.3761 902.046C14.7843 903.303 15.203 904.558 15.6326 905.81L17.5244 905.161C17.0984 903.919 16.6831 902.675 16.2783 901.428L14.3761 902.046ZM16.9539 909.559C17.4036 910.802 17.8642 912.042 18.3359 913.279L20.2047 912.566C19.7371 911.34 19.2804 910.111 18.8345 908.879L16.9539 909.559ZM19.7822 916.976C20.2754 918.206 20.7798 919.432 21.2956 920.655L23.1384 919.878C22.6272 918.666 22.1273 917.45 21.6384 916.231L19.7822 916.976ZM22.8688 924.295C23.4042 925.504 23.9511 926.71 24.5095 927.912L26.3234 927.07C25.7701 925.879 25.2282 924.684 24.6976 923.485L22.8688 924.295ZM26.2187 931.506C26.7963 932.692 27.3855 933.875 27.9864 935.054L29.7682 934.145C29.1729 932.978 28.5892 931.806 28.0169 930.631L26.2187 931.506ZM29.8244 938.577C30.4478 939.746 31.083 940.91 31.7302 942.07L33.4767 941.095C32.8357 939.946 32.2065 938.793 31.589 937.636L29.8244 938.577ZM33.6945 945.513C34.3613 946.656 35.04 947.795 35.7309 948.929L37.4389 947.888C36.7547 946.765 36.0825 945.637 35.4222 944.505L33.6945 945.513ZM37.8325 952.305C38.5403 953.418 39.2602 954.526 39.9923 955.629L41.6587 954.523C40.9338 953.431 40.221 952.333 39.5201 951.231L37.8325 952.305ZM42.2253 958.923C42.9778 960.01 43.7425 961.092 44.5196 962.169L46.1414 960.998C45.372 959.932 44.6148 958.861 43.8697 957.785L42.2253 958.923ZM46.8709 965.36C47.667 966.418 48.4754 967.471 49.2963 968.519L50.8705 967.285C50.0578 966.248 49.2574 965.206 48.4693 964.158L46.8709 965.36ZM51.7778 971.622C52.6109 972.642 53.4562 973.657 54.3139 974.667L55.838 973.372C54.9889 972.373 54.152 971.368 53.3273 970.357L51.7778 971.622ZM56.9243 977.678C57.3656 978.177 57.8101 978.674 58.2577 979.17C58.7126 979.674 59.1672 980.176 59.6216 980.677L61.1024 979.333C60.6494 978.833 60.196 978.333 59.7424 977.83C59.2993 977.339 58.8593 976.847 58.4223 976.353L56.9243 977.678ZM62.3447 983.659C63.2514 984.646 64.1573 985.626 65.0625 986.6L66.5271 985.238C65.6247 984.267 64.7216 983.29 63.8176 982.306L62.3447 983.659ZM67.7764 989.499C68.7029 990.483 69.629 991.46 70.5547 992.429L72.0012 991.048C71.0786 990.082 70.1557 989.109 69.2322 988.128L67.7764 989.499ZM73.3445 995.33C74.2743 996.29 75.204 997.243 76.1339 998.189L77.5602 996.787C76.6339 995.844 75.7076 994.895 74.7811 993.939L73.3445 995.33ZM78.9442 1001.03C79.8986 1001.98 80.8533 1002.93 81.8086 1003.87L83.2126 1002.45C82.2612 1001.51 81.3103 1000.57 80.3598 999.613L78.9442 1001.03ZM84.6766 1006.68C85.6334 1007.6 86.5911 1008.52 87.5498 1009.44L88.9295 1007.99C87.975 1007.08 87.0215 1006.16 86.0688 1005.24L84.6766 1006.68ZM90.4791 1012.21C91.4606 1013.12 92.4436 1014.04 93.4281 1014.94L94.7811 1013.47C93.8012 1012.57 92.8228 1011.66 91.8457 1010.74L90.4791 1012.21ZM96.387 1017.63C97.3817 1018.53 98.3783 1019.42 99.377 1020.3L100.701 1018.8C99.7074 1017.92 98.7157 1017.04 97.7258 1016.15L96.387 1017.63ZM102.408 1022.95C103.421 1023.83 104.436 1024.7 105.454 1025.56L106.747 1024.03C105.735 1023.17 104.725 1022.31 103.717 1021.44L102.408 1022.95ZM108.519 1028.13C109.554 1028.99 110.591 1029.84 111.632 1030.68L112.892 1029.13C111.857 1028.29 110.825 1027.44 109.796 1026.59L108.519 1028.13ZM114.765 1033.19C115.813 1034.02 116.865 1034.85 117.92 1035.66L119.144 1034.08C118.095 1033.27 117.05 1032.45 116.008 1031.63L114.765 1033.19ZM121.11 1038.1C122.178 1038.91 123.251 1039.71 124.328 1040.51L125.515 1038.9C124.444 1038.11 123.378 1037.31 122.316 1036.51L121.11 1038.1ZM127.572 1042.87C128.658 1043.65 129.748 1044.43 130.843 1045.2L131.992 1043.56C130.903 1042.8 129.82 1042.03 128.74 1041.25L127.572 1042.87ZM134.142 1047.48C135.246 1048.24 136.356 1048.99 137.472 1049.73L138.581 1048.07C137.472 1047.33 136.369 1046.58 135.271 1045.83L134.142 1047.48ZM140.83 1051.94C141.949 1052.66 143.073 1053.38 144.203 1054.1L145.271 1052.41C144.148 1051.7 143.03 1050.98 141.919 1050.26L140.83 1051.94ZM147.611 1056.22C148.753 1056.92 149.901 1057.62 151.056 1058.31L152.083 1056.6C150.935 1055.91 149.794 1055.22 148.659 1054.52L147.611 1056.22ZM154.5 1060.35C155.652 1061.02 156.811 1061.68 157.977 1062.34L158.963 1060.6C157.804 1059.95 156.652 1059.28 155.506 1058.62L154.5 1060.35ZM161.494 1064.31C162.663 1064.95 163.838 1065.59 165.02 1066.22L165.965 1064.46C164.789 1063.83 163.621 1063.2 162.46 1062.56L161.494 1064.31ZM168.554 1068.09C169.739 1068.71 170.932 1069.32 172.132 1069.93L173.036 1068.15C171.843 1067.54 170.657 1066.93 169.479 1066.32L168.554 1068.09ZM175.748 1071.74C176.933 1072.32 178.126 1072.9 179.326 1073.48L180.191 1071.67C178.997 1071.1 177.811 1070.53 176.632 1069.94L175.748 1071.74ZM182.95 1075.19C184.166 1075.76 185.389 1076.32 186.621 1076.88L187.447 1075.06C186.222 1074.5 185.005 1073.94 183.796 1073.38L182.95 1075.19ZM190.279 1078.52C191.489 1079.05 192.708 1079.58 193.934 1080.11L194.724 1078.27C193.503 1077.75 192.291 1077.22 191.086 1076.69L190.279 1078.52ZM197.638 1081.68C198.881 1082.2 200.132 1082.71 201.391 1083.22L202.144 1081.37C200.891 1080.86 199.646 1080.35 198.409 1079.83L197.638 1081.68ZM205.073 1084.7C206.306 1085.19 207.546 1085.67 208.795 1086.16L209.514 1084.29C208.271 1083.81 207.036 1083.33 205.809 1082.84L205.073 1084.7ZM212.566 1087.59C213.822 1088.06 215.087 1088.53 216.36 1089L217.047 1087.12C215.779 1086.66 214.52 1086.19 213.269 1085.72L212.566 1087.59ZM220.085 1090.34C221.335 1090.79 222.593 1091.23 223.859 1091.67L224.516 1089.78C223.255 1089.35 222.002 1088.9 220.757 1088.46L220.085 1090.34ZM227.682 1092.99C228.95 1093.42 230.226 1093.84 231.51 1094.27L232.138 1092.37C230.858 1091.95 229.587 1091.52 228.324 1091.09L227.682 1092.99ZM235.273 1095.5C236.536 1095.9 237.806 1096.31 239.085 1096.71L239.686 1094.8C238.412 1094.4 237.145 1094 235.888 1093.59L235.273 1095.5ZM242.945 1097.91C244.228 1098.31 245.518 1098.7 246.817 1099.09L247.392 1097.17C246.098 1096.79 244.811 1096.39 243.533 1096L242.945 1097.91ZM250.605 1100.21C251.875 1100.59 253.153 1100.96 254.439 1101.33L254.991 1099.41C253.709 1099.04 252.434 1098.67 251.168 1098.3L250.605 1100.21ZM258.322 1102.43C259.624 1102.79 260.935 1103.16 262.254 1103.52L262.783 1101.59C261.468 1101.23 260.161 1100.87 258.862 1100.5L258.322 1102.43ZM266.055 1104.55C267.329 1104.89 268.61 1105.23 269.899 1105.57L270.408 1103.64C269.122 1103.3 267.844 1102.96 266.574 1102.62L266.055 1104.55ZM273.79 1106.59C275.095 1106.92 276.407 1107.26 277.728 1107.59L278.216 1105.65C276.899 1105.32 275.59 1104.98 274.289 1104.65L273.79 1106.59ZM281.612 1108.56C282.885 1108.87 284.165 1109.19 285.453 1109.5L285.924 1107.55C284.639 1107.24 283.362 1106.93 282.092 1106.62L281.612 1108.56ZM289.338 1110.43C290.641 1110.74 291.951 1111.05 293.268 1111.36L293.723 1109.41C292.408 1109.1 291.1 1108.79 289.801 1108.48L289.338 1110.43ZM299.758 1112.85C300.204 1112.95 300.65 1113.05 301.098 1113.15L301.536 1111.2C300.247 1110.91 298.965 1110.62 297.69 1110.32L297.245 1112.27C298.079 1112.46 298.917 1112.66 299.758 1112.85ZM304.966 1114.01C306.263 1114.29 307.567 1114.58 308.878 1114.86L309.301 1112.91C307.993 1112.62 306.691 1112.34 305.397 1112.05L304.966 1114.01ZM314.913 1116.15C315.551 1116.29 316.19 1116.42 316.831 1116.56L317.241 1114.6C316.423 1114.43 315.607 1114.26 314.794 1114.08C314.278 1113.98 313.763 1113.87 313.249 1113.76L312.832 1115.71C313.524 1115.86 314.218 1116.01 314.913 1116.15ZM322.629 1117.76C323.273 1117.89 323.918 1118.02 324.565 1118.15L324.962 1116.19C323.663 1115.93 322.371 1115.66 321.086 1115.4L320.683 1117.36C321.33 1117.49 321.979 1117.62 322.629 1117.76ZM328.489 1118.94C329.803 1119.2 331.125 1119.46 332.453 1119.72L332.839 1117.76C331.512 1117.5 330.192 1117.24 328.88 1116.98L328.489 1118.94ZM337.699 1120.74L338.403 1120.88C339.05 1121 339.698 1121.12 340.349 1121.25L340.723 1119.28C339.901 1119.13 339.083 1118.97 338.267 1118.81C337.79 1118.72 337.314 1118.63 336.839 1118.54L336.46 1120.5C336.872 1120.58 337.286 1120.66 337.699 1120.74ZM344.232 1121.98C345.533 1122.23 346.841 1122.47 348.155 1122.71L348.519 1120.75C347.206 1120.5 345.901 1120.26 344.601 1120.02L344.232 1121.98ZM352.117 1123.44C353.444 1123.68 354.778 1123.92 356.118 1124.17L356.472 1122.2C355.134 1121.96 353.801 1121.71 352.476 1121.47L352.117 1123.44ZM362.053 1125.22C362.688 1125.33 363.324 1125.45 363.962 1125.56L364.307 1123.59C363.644 1123.47 362.981 1123.36 362.32 1123.24C361.691 1123.13 361.064 1123.02 360.438 1122.91L360.088 1124.87C360.741 1124.99 361.396 1125.11 362.053 1125.22ZM367.873 1126.24C369.183 1126.46 370.499 1126.69 371.821 1126.92L372.158 1124.95C370.837 1124.72 369.522 1124.49 368.214 1124.27L367.873 1126.24ZM375.806 1127.59C377.14 1127.82 378.481 1128.04 379.828 1128.27L380.157 1126.3C378.811 1126.07 377.472 1125.85 376.139 1125.62L375.806 1127.59ZM385.972 1129.28C386.53 1129.37 387.09 1129.46 387.65 1129.56L387.971 1127.58C386.67 1127.37 385.375 1127.16 384.085 1126.95L383.76 1128.92C384.496 1129.04 385.233 1129.16 385.972 1129.28ZM392.098 1130.28L393.332 1130.47C394.064 1130.59 394.798 1130.71 395.533 1130.83L395.848 1128.85C394.523 1128.64 393.205 1128.43 391.892 1128.22L391.574 1130.19L392.098 1130.28ZM399.527 1131.46C400.864 1131.67 402.208 1131.88 403.557 1132.09L403.865 1130.11C402.517 1129.9 401.175 1129.69 399.838 1129.48L399.527 1131.46ZM407.5 1132.7C408.792 1132.9 410.089 1133.1 411.392 1133.3L411.695 1131.32L410.784 1131.18C409.788 1131.03 408.795 1130.88 407.805 1130.73L407.5 1132.7ZM415.317 1133.9C416.15 1134.02 416.985 1134.15 417.822 1134.28L419.276 1134.49L419.572 1132.52C418.248 1132.32 416.93 1132.12 415.617 1131.92L415.317 1133.9ZM423.267 1135.09C424.603 1135.29 425.944 1135.49 427.291 1135.69L427.583 1133.71C426.236 1133.51 424.896 1133.31 423.561 1133.11L423.267 1135.09ZM431.3 1136.27C432.59 1136.46 433.885 1136.65 435.185 1136.84L435.471 1134.86C434.763 1134.76 434.055 1134.65 433.349 1134.55C432.761 1134.47 432.175 1134.38 431.589 1134.29L431.3 1136.27ZM439.1 1137.4C439.767 1137.5 440.435 1137.59 441.104 1137.69C441.751 1137.78 442.398 1137.88 443.047 1137.97L443.329 1135.99C442.009 1135.8 440.694 1135.61 439.385 1135.42L439.1 1137.4ZM447.025 1138.53C448.356 1138.72 449.692 1138.91 451.034 1139.1L451.311 1137.12C449.971 1136.93 448.635 1136.74 447.305 1136.55L447.025 1138.53ZM455.074 1139.66C456.389 1139.84 457.708 1140.03 459.033 1140.21L459.306 1138.23C457.983 1138.05 456.664 1137.86 455.35 1137.68L455.074 1139.66ZM462.93 1140.75C464.234 1140.92 465.543 1141.1 466.856 1141.28L467.126 1139.3C465.813 1139.12 464.505 1138.94 463.202 1138.76L462.93 1140.75ZM470.811 1141.82C472.135 1142 473.463 1142.18 474.796 1142.36L475.062 1140.37C473.73 1140.2 472.402 1140.02 471.08 1139.84L470.811 1141.82ZM478.81 1142.89C480.153 1143.07 481.5 1143.25 482.853 1143.43L483.116 1141.45C481.764 1141.27 480.417 1141.09 479.075 1140.91L478.81 1142.89ZM486.822 1143.96C488.117 1144.13 489.416 1144.3 490.72 1144.47L490.98 1142.49L489.456 1142.29L488.889 1142.21L487.084 1141.97L486.822 1143.96ZM494.646 1144.98C495.959 1145.16 497.276 1145.33 498.598 1145.5L498.856 1143.51C497.534 1143.34 496.217 1143.17 494.904 1143L494.646 1144.98ZM502.579 1146.01C503.91 1146.18 505.246 1146.36 506.586 1146.53L506.841 1144.54L505.364 1144.35C504.528 1144.25 503.695 1144.14 502.864 1144.03L502.835 1144.03L502.579 1146.01ZM510.622 1147.04L512.237 1147.25C513.044 1147.35 513.853 1147.46 514.664 1147.56L514.916 1145.58C513.564 1145.4 512.217 1145.23 510.875 1145.06L510.622 1147.04ZM518.554 1148.05C519.854 1148.22 521.159 1148.38 522.469 1148.55L522.718 1146.56C521.409 1146.4 520.105 1146.23 518.804 1146.07L518.554 1148.05ZM526.409 1149.04C527.727 1149.21 529.049 1149.37 530.376 1149.54L530.623 1147.55L529.363 1147.39L527.56 1147.17L526.658 1147.06L526.409 1149.04ZM536.291 1150.27L538.386 1150.53L538.632 1148.55C537.288 1148.38 535.949 1148.21 534.615 1148.05L534.368 1150.03L536.291 1150.27ZM542.431 1151.03C543.762 1151.19 545.098 1151.36 546.438 1151.52L546.682 1149.54C545.342 1149.37 544.006 1149.21 542.675 1149.04L542.431 1151.03ZM550.335 1152C551.638 1152.16 552.945 1152.32 554.256 1152.48L554.497 1150.49L552.94 1150.3L550.998 1150.06L550.577 1150.01L550.335 1152ZM558.2 1152.96C559.519 1153.12 560.842 1153.28 562.169 1153.44L562.409 1151.45C561.082 1151.29 559.76 1151.13 558.441 1150.97L558.2 1152.96ZM566.162 1153.92C567.498 1154.08 568.837 1154.24 570.18 1154.4L570.418 1152.41L568.319 1152.16L566.402 1151.93L566.162 1153.92ZM574.222 1154.89L575.952 1155.09L578.263 1155.37L578.5 1153.38L575.951 1153.08L574.46 1152.9L574.222 1154.89ZM582.157 1155.83C583.459 1155.99 584.764 1156.14 586.074 1156.3L586.309 1154.31L584.749 1154.13L582.393 1153.85L582.157 1155.83ZM590.013 1156.76C591.329 1156.92 592.65 1157.07 593.974 1157.23L594.209 1155.24L592.076 1154.99L590.247 1154.78L590.013 1156.76ZM597.959 1157.7C599.291 1157.86 600.626 1158.01 601.966 1158.17L602.199 1156.19C600.86 1156.03 599.524 1155.87 598.192 1155.71L597.959 1157.7ZM605.996 1158.64C607.344 1158.8 608.695 1158.96 610.049 1159.12L610.281 1157.13L607.908 1156.85L606.229 1156.66L605.996 1158.64ZM614.023 1159.58C615.321 1159.73 616.622 1159.88 617.927 1160.04L618.158 1158.05C616.853 1157.9 615.552 1157.75 614.255 1157.59L614.023 1159.58ZM623.899 1160.73L625.798 1160.95L626.028 1158.96C624.71 1158.81 623.394 1158.66 622.083 1158.5L621.852 1160.49L623.899 1160.73ZM631.836 1161.65L633.755 1161.87L633.984 1159.88L629.996 1159.42L629.766 1161.41L631.836 1161.65ZM637.765 1162.33L641.797 1162.79L642.026 1160.81L640.523 1160.63C639.679 1160.54 638.836 1160.44 637.994 1160.34L637.765 1162.33ZM645.851 1163.26L647.886 1163.49C648.558 1163.57 649.229 1163.65 649.899 1163.72L650.128 1161.74C649.457 1161.66 648.786 1161.58 648.114 1161.51L646.079 1161.27L645.851 1163.26ZM653.911 1164.19L655.572 1164.38L656.729 1164.52L657.907 1164.66L658.141 1162.67L656.748 1162.51C655.88 1162.41 655.012 1162.3 654.142 1162.2L653.911 1164.19ZM661.888 1165.13C663.212 1165.28 664.533 1165.44 665.852 1165.6L666.09 1163.61C664.77 1163.46 663.448 1163.3 662.123 1163.14L661.888 1165.13ZM669.8 1166.07C671.113 1166.23 672.424 1166.39 673.732 1166.55L673.975 1164.57C673.145 1164.47 672.315 1164.37 671.483 1164.26L670.04 1164.09L669.8 1166.07ZM677.648 1167.03C678.951 1167.19 680.251 1167.36 681.548 1167.52L681.795 1165.53L680.64 1165.39C679.725 1165.28 678.81 1165.16 677.893 1165.05L677.648 1167.03ZM685.485 1168.01C686.034 1168.08 686.583 1168.15 687.132 1168.22C687.921 1168.32 688.708 1168.42 689.495 1168.52L689.747 1166.53C688.412 1166.36 687.075 1166.19 685.734 1166.03L685.485 1168.01ZM693.487 1169.03C694.816 1169.2 696.141 1169.37 697.463 1169.54L697.72 1167.55C696.397 1167.38 695.071 1167.21 693.742 1167.04L693.487 1169.03ZM701.422 1170.05C702.739 1170.22 704.053 1170.4 705.364 1170.57L705.625 1168.59C704.313 1168.41 702.999 1168.24 701.681 1168.07L701.422 1170.05ZM709.289 1171.09C710.594 1171.26 711.897 1171.44 713.197 1171.61L713.463 1169.63C712.754 1169.53 712.045 1169.44 711.334 1169.34C710.741 1169.27 710.147 1169.19 709.553 1169.11L709.289 1171.09ZM717.088 1172.14C718.41 1172.32 719.728 1172.5 721.044 1172.68L721.315 1170.7C720.735 1170.62 720.155 1170.54 719.574 1170.46C718.836 1170.36 718.097 1170.26 717.357 1170.16L717.088 1172.14ZM725.044 1173.23C726.375 1173.41 727.703 1173.6 729.027 1173.78L729.304 1171.8C728.667 1171.71 728.03 1171.62 727.391 1171.53C726.701 1171.44 726.01 1171.34 725.318 1171.25L725.044 1173.23ZM732.992 1174.34C733.567 1174.42 734.141 1174.5 734.715 1174.58C735.457 1174.69 736.199 1174.79 736.939 1174.9L737.221 1172.92C736.366 1172.79 735.509 1172.67 734.651 1172.55L733.271 1172.36L732.992 1174.34ZM740.868 1175.46C742.175 1175.65 743.479 1175.83 744.78 1176.02L745.067 1174.04C743.765 1173.85 742.46 1173.67 741.153 1173.48L740.868 1175.46ZM750.869 1176.91C751.433 1176.99 751.997 1177.08 752.559 1177.16L752.852 1175.18C752.111 1175.07 751.37 1174.96 750.627 1174.85C750.073 1174.77 749.518 1174.69 748.963 1174.61L748.673 1176.59C749.406 1176.7 750.138 1176.8 750.869 1176.91ZM756.563 1177.75C757.895 1177.95 759.223 1178.15 760.548 1178.35L760.846 1176.37C759.52 1176.17 758.191 1175.98 756.858 1175.78L756.563 1177.75ZM764.514 1178.95C765.833 1179.15 767.148 1179.35 768.461 1179.55L768.764 1177.58C767.451 1177.38 766.134 1177.17 764.814 1176.97L764.514 1178.95ZM772.389 1180.16C773.695 1180.36 774.998 1180.56 776.298 1180.77L776.607 1178.79C776.055 1178.71 775.503 1178.62 774.95 1178.53C774.199 1178.42 773.448 1178.3 772.695 1178.18L772.389 1180.16ZM780.188 1181.38C781.482 1181.58 782.772 1181.79 784.06 1181.99L784.374 1180.02C783.086 1179.81 781.794 1179.61 780.5 1179.4L780.188 1181.38ZM788.044 1182.63C789.374 1182.84 790.701 1183.06 792.025 1183.27L792.345 1181.3L791.226 1181.12C790.273 1180.96 789.318 1180.81 788.362 1180.65L788.044 1182.63ZM795.986 1183.92C797.302 1184.13 798.616 1184.35 799.926 1184.57L800.252 1182.59C799.64 1182.49 799.027 1182.39 798.413 1182.29C797.713 1182.17 797.011 1182.06 796.309 1181.94L795.986 1183.92ZM805.901 1185.56C806.517 1185.66 807.133 1185.77 807.747 1185.87L808.08 1183.9C806.782 1183.68 805.48 1183.46 804.176 1183.25L803.847 1185.22C804.532 1185.33 805.217 1185.45 805.901 1185.56ZM811.628 1186.53L812.89 1186.74C813.404 1186.83 813.918 1186.92 814.431 1187.01L815.491 1187.19L815.829 1185.22C814.929 1185.06 814.027 1184.91 813.124 1184.75L811.963 1184.56L811.628 1186.53ZM819.482 1187.88C820.809 1188.11 822.132 1188.34 823.452 1188.57L823.796 1186.6L822.972 1186.45C821.924 1186.27 820.875 1186.09 819.823 1185.91L819.482 1187.88ZM828.857 1189.52C829.682 1189.67 830.505 1189.81 831.327 1189.96L831.678 1187.99C830.372 1187.76 829.061 1187.52 827.748 1187.29L827.4 1189.26L828.857 1189.52ZM837.557 1191.08C838.078 1191.17 838.598 1191.27 839.118 1191.36L839.476 1189.39C838.183 1189.16 836.887 1188.92 835.587 1188.69L835.233 1190.66C836.009 1190.8 836.783 1190.94 837.557 1191.08ZM842.982 1192.07C844.289 1192.31 845.591 1192.55 846.891 1192.79L847.255 1190.82C846.404 1190.66 845.552 1190.5 844.698 1190.35C844.247 1190.26 843.795 1190.18 843.343 1190.1L842.982 1192.07ZM850.864 1193.52L851.399 1193.62C852.54 1193.84 853.679 1194.05 854.815 1194.27L855.186 1192.3C853.871 1192.05 852.553 1191.81 851.231 1191.56L850.864 1193.52ZM861.373 1195.51C861.799 1195.6 862.224 1195.68 862.649 1195.76L863.026 1193.79C861.727 1193.54 860.424 1193.3 859.117 1193.05L858.743 1195.01C859.621 1195.18 860.498 1195.35 861.373 1195.51ZM869.016 1196.99C869.476 1197.08 869.935 1197.17 870.393 1197.26L870.778 1195.3C869.493 1195.05 868.205 1194.8 866.913 1194.55L866.532 1196.51C867.362 1196.67 868.19 1196.83 869.016 1196.99ZM874.254 1198.02C875.581 1198.28 876.905 1198.55 878.224 1198.81L878.616 1196.85C877.295 1196.59 875.971 1196.32 874.642 1196.06L874.254 1198.02ZM882.171 1199.6C883.482 1199.87 884.79 1200.13 886.093 1200.4L886.492 1198.44C885.188 1198.17 883.879 1197.91 882.566 1197.64L882.171 1199.6ZM889.992 1201.19C891.288 1201.46 892.579 1201.73 893.867 1201.99L894.273 1200.04C893.636 1199.9 892.998 1199.77 892.359 1199.64C891.705 1199.51 891.051 1199.37 890.395 1199.24L889.992 1201.19ZM897.718 1202.8C899.005 1203.07 900.288 1203.34 901.567 1203.61L901.981 1201.65C901.425 1201.53 900.868 1201.42 900.31 1201.3C899.584 1201.15 898.857 1200.99 898.128 1200.84L897.718 1202.8ZM905.527 1204.45C906.843 1204.73 908.155 1205.01 909.462 1205.29L909.884 1203.34C909.31 1203.22 908.735 1203.09 908.159 1202.97C907.422 1202.81 906.684 1202.65 905.945 1202.49L905.527 1204.45ZM913.372 1206.14C914.67 1206.42 915.965 1206.71 917.256 1206.99L917.685 1205.04C916.393 1204.75 915.097 1204.47 913.797 1204.19L913.372 1206.14ZM921.114 1207.84C922.396 1208.13 923.674 1208.41 924.948 1208.7L925.386 1206.75C924.704 1206.6 924.021 1206.44 923.337 1206.29C922.741 1206.16 922.145 1206.02 921.548 1205.89L921.114 1207.84ZM928.821 1209.57C930.14 1209.87 931.453 1210.17 932.763 1210.47L933.208 1208.52C931.898 1208.22 930.583 1207.92 929.263 1207.62L928.821 1209.57ZM936.677 1211.37C937.977 1211.67 939.273 1211.97 940.564 1212.27L941.018 1210.32C940.505 1210.2 939.991 1210.08 939.477 1209.96C938.695 1209.78 937.912 1209.6 937.127 1209.42L936.677 1211.37ZM944.424 1213.18C945.707 1213.48 946.985 1213.78 948.258 1214.08L948.721 1212.14C947.446 1211.83 946.167 1211.53 944.883 1211.23L944.424 1213.18ZM952.065 1214.99C952.677 1215.14 953.287 1215.29 953.897 1215.43C954.598 1215.6 955.299 1215.77 955.998 1215.94L956.469 1214C955.162 1213.68 953.85 1213.36 952.532 1213.05L952.065 1214.99ZM959.91 1216.9C961.209 1217.22 962.504 1217.53 963.794 1217.85L964.274 1215.91C962.983 1215.59 961.687 1215.27 960.386 1214.95L959.91 1216.9ZM967.649 1218.81C968.929 1219.13 970.205 1219.45 971.475 1219.78L971.965 1217.84C970.693 1217.51 969.416 1217.19 968.134 1216.87L967.649 1218.81ZM978.267 1221.51L979.166 1221.74L979.666 1219.8C978.985 1219.63 978.302 1219.45 977.618 1219.27C977.003 1219.12 976.386 1218.96 975.768 1218.8L975.274 1220.74C976.274 1220.99 977.272 1221.25 978.267 1221.51ZM983.069 1222.75C984.365 1223.09 985.655 1223.43 986.941 1223.76L987.45 1221.83C986.163 1221.49 984.87 1221.15 983.573 1220.81L983.069 1222.75ZM990.782 1224.78C992.058 1225.12 993.328 1225.46 994.594 1225.8L995.113 1223.87C993.846 1223.53 992.574 1223.19 991.296 1222.85L990.782 1224.78ZM998.375 1226.82C999.675 1227.17 1000.97 1227.53 1002.26 1227.88L1002.79 1225.95C1002.02 1225.74 1001.25 1225.53 1000.48 1225.32C999.957 1225.18 999.428 1225.03 998.899 1224.89L998.375 1226.82ZM1006.14 1228.95C1007.43 1229.31 1008.72 1229.67 1009.99 1230.03L1010.53 1228.1C1009.88 1227.92 1009.22 1227.73 1008.56 1227.55C1008.2 1227.45 1007.84 1227.35 1007.48 1227.25L1006.68 1227.03L1006.14 1228.95ZM1013.81 1231.1C1015.08 1231.46 1016.34 1231.82 1017.6 1232.18L1018.15 1230.26C1016.89 1229.9 1015.63 1229.54 1014.36 1229.18L1013.81 1231.1ZM1021.38 1233.27C1022.68 1233.64 1023.97 1234.02 1025.26 1234.4L1025.83 1232.48C1024.53 1232.1 1023.24 1231.72 1021.93 1231.35L1021.38 1233.27ZM1029.12 1235.53C1030.4 1235.91 1031.67 1236.29 1032.94 1236.67L1033.51 1234.75C1032.24 1234.37 1030.97 1233.99 1029.69 1233.61L1029.12 1235.53ZM1036.72 1237.8C1037.98 1238.18 1039.23 1238.56 1040.47 1238.94L1041.06 1237.03C1040.04 1236.72 1039.01 1236.41 1037.98 1236.1L1037.3 1235.89L1036.72 1237.8ZM1044.31 1240.12C1045.59 1240.52 1046.88 1240.92 1048.15 1241.32L1048.75 1239.41C1047.47 1239.01 1046.19 1238.61 1044.9 1238.21L1044.31 1240.12ZM1051.97 1242.52C1053.23 1242.92 1054.49 1243.31 1055.74 1243.72L1056.35 1241.81C1055.1 1241.41 1053.84 1241.01 1052.57 1240.61L1051.97 1242.52ZM1059.48 1244.92C1060 1245.09 1060.53 1245.25 1061.05 1245.42C1061.79 1245.66 1062.53 1245.91 1063.26 1246.15L1063.89 1244.25C1062.63 1243.83 1061.36 1243.42 1060.09 1243.01L1059.48 1244.92ZM1067.1 1247.41C1068.37 1247.83 1069.64 1248.25 1070.89 1248.67L1071.53 1246.77C1070.89 1246.56 1070.26 1246.35 1069.62 1246.14C1068.99 1245.93 1068.36 1245.72 1067.73 1245.51L1067.1 1247.41ZM1074.65 1249.93C1075.9 1250.36 1077.13 1250.78 1078.37 1251.2L1079.01 1249.31C1077.78 1248.88 1076.54 1248.46 1075.29 1248.04L1074.65 1249.93ZM1082.13 1252.5C1083.41 1252.94 1084.68 1253.38 1085.94 1253.83L1086.6 1251.94C1086.24 1251.81 1085.88 1251.68 1085.51 1251.56C1084.61 1251.24 1083.7 1250.92 1082.79 1250.61L1082.13 1252.5ZM1089.71 1255.15C1090.96 1255.6 1092.2 1256.04 1093.43 1256.49L1094.11 1254.6C1093.31 1254.32 1092.51 1254.03 1091.7 1253.74C1091.26 1253.58 1090.82 1253.43 1090.38 1253.27L1089.71 1255.15ZM1097.12 1257.82C1097.68 1258.02 1098.24 1258.23 1098.8 1258.43C1099.5 1258.69 1100.2 1258.94 1100.89 1259.2L1101.58 1257.32C1101.19 1257.18 1100.8 1257.03 1100.4 1256.89C1099.54 1256.57 1098.67 1256.25 1097.8 1255.94L1097.12 1257.82ZM1104.67 1260.6C1105.91 1261.06 1107.16 1261.53 1108.39 1262L1109.1 1260.12C1108.65 1259.96 1108.21 1259.79 1107.76 1259.62C1106.97 1259.32 1106.17 1259.02 1105.36 1258.72L1104.67 1260.6ZM1112.07 1263.39C1113.31 1263.87 1114.53 1264.34 1115.75 1264.81L1116.47 1262.95C1115.25 1262.47 1114.02 1262 1112.79 1261.53L1112.07 1263.39ZM1119.52 1266.28C1120.77 1266.77 1122.01 1267.26 1123.24 1267.75L1123.98 1265.89C1123.51 1265.7 1123.04 1265.52 1122.57 1265.33C1121.8 1265.03 1121.03 1264.72 1120.25 1264.42L1119.52 1266.28ZM1126.91 1269.22C1127.4 1269.41 1127.88 1269.61 1128.36 1269.8C1129.09 1270.1 1129.81 1270.39 1130.53 1270.69L1131.29 1268.84C1130.09 1268.34 1128.88 1267.85 1127.66 1267.36L1126.91 1269.22ZM1137.12 1273.41C1137.41 1273.53 1137.69 1273.65 1137.97 1273.77L1138.75 1271.92C1137.52 1271.41 1136.28 1270.89 1135.04 1270.38L1134.27 1272.22C1135.23 1272.62 1136.18 1273.01 1137.12 1273.41ZM1141.62 1275.31C1142.83 1275.82 1144.03 1276.34 1145.22 1276.85L1146.01 1275.01C1144.82 1274.5 1143.62 1273.98 1142.41 1273.47L1141.62 1275.31ZM1150.88 1279.31C1151.45 1279.57 1152.02 1279.82 1152.59 1280.07L1153.4 1278.24C1152.18 1277.7 1150.95 1277.16 1149.72 1276.62L1148.92 1278.45C1149.57 1278.74 1150.23 1279.03 1150.88 1279.31ZM1156.2 1281.69C1157.4 1282.22 1158.59 1282.76 1159.76 1283.3L1160.6 1281.48C1160.14 1281.27 1159.68 1281.06 1159.22 1280.85C1158.49 1280.52 1157.76 1280.19 1157.02 1279.86L1156.2 1281.69ZM1163.43 1284.99C1164.65 1285.55 1165.86 1286.12 1167.06 1286.68L1167.91 1284.87C1166.71 1284.31 1165.5 1283.74 1164.28 1283.17L1163.43 1284.99ZM1170.63 1288.38C1171.82 1288.94 1173 1289.51 1174.17 1290.08L1175.05 1288.28C1173.87 1287.71 1172.69 1287.14 1171.49 1286.57L1170.63 1288.38ZM1179.92 1292.91C1180.41 1293.15 1180.89 1293.39 1181.37 1293.63L1182.27 1291.84C1181.08 1291.25 1179.89 1290.66 1178.69 1290.06L1177.8 1291.86C1178.51 1292.21 1179.22 1292.56 1179.92 1292.91ZM1184.87 1295.4C1186.07 1296.01 1187.26 1296.62 1188.43 1297.23L1189.35 1295.45C1188.76 1295.14 1188.16 1294.84 1187.57 1294.53C1186.97 1294.22 1186.38 1293.92 1185.78 1293.62L1184.87 1295.4ZM1193.92 1300.1C1194.44 1300.38 1194.96 1300.65 1195.48 1300.93L1196.42 1299.17C1195.26 1298.55 1194.1 1297.93 1192.92 1297.31L1191.99 1299.08C1192.64 1299.42 1193.28 1299.76 1193.92 1300.1ZM1201.07 1303.97C1201.54 1304.23 1202.02 1304.49 1202.48 1304.75L1203.45 1303L1203.09 1302.79C1202.74 1302.6 1202.39 1302.41 1202.03 1302.21C1201.33 1301.83 1200.62 1301.44 1199.91 1301.05L1198.95 1302.81C1199.66 1303.19 1200.37 1303.58 1201.07 1303.97ZM1207.68 1307.67C1208.24 1307.99 1208.8 1308.31 1209.35 1308.62L1210.35 1306.89C1209.22 1306.24 1208.08 1305.59 1206.92 1304.94L1205.94 1306.68C1206.52 1307.01 1207.1 1307.34 1207.68 1307.67ZM1215.04 1311.94C1215.45 1312.19 1215.85 1312.43 1216.26 1312.67L1217.28 1310.95C1216.15 1310.28 1215.01 1309.6 1213.86 1308.93L1212.85 1310.65C1213.58 1311.08 1214.31 1311.51 1215.04 1311.94ZM1219.62 1314.7C1220.78 1315.4 1221.93 1316.11 1223.06 1316.81L1224.12 1315.11C1222.98 1314.41 1221.83 1313.7 1220.66 1312.99L1219.62 1314.7ZM1226.41 1318.91C1227.53 1319.63 1228.64 1320.34 1229.74 1321.04L1230.82 1319.37C1229.72 1318.65 1228.61 1317.94 1227.48 1317.22L1226.41 1318.91ZM1233.1 1323.25C1234.2 1323.98 1235.29 1324.7 1236.37 1325.43L1237.49 1323.77C1236.77 1323.29 1236.04 1322.8 1235.31 1322.31C1234.94 1322.07 1234.57 1321.82 1234.2 1321.58L1233.1 1323.25ZM1239.67 1327.69C1240.77 1328.45 1241.86 1329.21 1242.93 1329.97L1244.09 1328.34C1243.01 1327.58 1241.92 1326.81 1240.81 1326.04L1239.67 1327.69ZM1246.12 1332.26C1247.22 1333.06 1248.3 1333.85 1249.36 1334.64L1250.56 1333.04C1249.49 1332.24 1248.4 1331.44 1247.29 1330.64L1246.12 1332.26ZM1252.5 1337C1253.58 1337.83 1254.63 1338.65 1255.67 1339.46L1256.91 1337.89C1255.86 1337.07 1254.8 1336.24 1253.71 1335.41L1252.5 1337ZM1258.76 1341.92C1259.81 1342.76 1260.84 1343.6 1261.85 1344.44L1263.12 1342.9C1262.11 1342.06 1261.08 1341.21 1260.02 1340.36L1258.76 1341.92Z" fill="#9F9F9F"/>
</svg>
