<svg width="361" height="96" viewBox="0 0 361 96" fill="none" xmlns="http://www.w3.org/2000/svg">
<path d="M336.976 11.4782C335.503 14.0291 332.241 14.9031 329.69 13.4303C327.14 11.9576 326.266 8.69574 327.738 6.14484C329.211 3.59395 332.473 2.71995 335.024 4.19271C337.575 5.66547 338.449 8.92728 336.976 11.4782ZM339.27 17.2796L339.934 18.0279L339.27 17.2796ZM332.574 28.8785L332.104 27.9955L332.574 28.8785ZM271.652 44.1704L271.039 43.3806L271.652 44.1704ZM245.326 46.0642L246.177 45.5387L245.326 46.0642ZM229.454 36.9004L229.842 37.8219L229.454 36.9004ZM102.276 77.4279L102.31 76.4285L102.276 77.4279ZM88.5346 51.1803L88.705 52.1657L88.5346 51.1803ZM51.1823 55.2546L51.7109 54.4057L51.1823 55.2546ZM31.0496 40.7821L31.5825 39.9359L31.0496 40.7821ZM24.1262 64.0523L23.1393 64.2137L24.1262 64.0523ZM17.9169 93.8395L17.5633 92.9041L17.9169 93.8395ZM2.07348 68.4132L1.13305 68.0733L2.07348 68.4132ZM31.1878 28.6525C29.715 31.2034 26.4532 32.0774 23.9023 30.6046C21.3514 29.1319 20.4774 25.8701 21.9501 23.3192C23.4229 20.7683 26.6847 19.8943 29.2356 21.367C31.7865 22.8398 32.6605 26.1016 31.1878 28.6525ZM331.653 8.10126C332.1 7.65837 332.62 7.18591 333.201 6.70273L334.479 8.24129C333.939 8.68978 333.463 9.12302 333.061 9.52176L331.653 8.10126ZM336.571 4.28913C337.703 3.5921 338.944 2.93406 340.262 2.37961L341.037 4.22299C339.826 4.73282 338.676 5.34183 337.619 5.99234L336.571 4.28913ZM344.263 1.12098C345.639 0.838945 347.063 0.708061 348.503 0.790746L348.389 2.78746C347.144 2.71601 345.895 2.82809 344.665 3.08022L344.263 1.12098ZM352.706 1.68977C353.361 1.94275 354.011 2.25175 354.652 2.62164L353.652 4.35369C353.101 4.03562 352.545 3.77139 351.986 3.55572L352.706 1.68977ZM354.652 2.62164C355.263 2.97456 355.815 3.38792 356.312 3.84998L354.949 5.31389C354.559 4.95112 354.128 4.62868 353.652 4.35369L354.652 2.62164ZM358.662 7.1365C359.221 8.32341 359.599 9.60302 359.833 10.893L357.865 11.2503C357.656 10.0997 357.325 8.99137 356.852 7.98847L358.662 7.1365ZM360.142 14.7541C360.123 16.1209 359.974 17.4351 359.73 18.602L357.772 18.1916C357.99 17.1554 358.125 15.9696 358.143 14.7263L360.142 14.7541ZM358.219 22.4173C357.918 22.8141 357.524 23.1908 357.022 23.3845C356.472 23.5967 355.886 23.5506 355.36 23.247L356.36 21.5149C356.38 21.5265 356.373 21.5182 356.344 21.5158C356.315 21.5134 356.298 21.5201 356.302 21.5185C356.31 21.5155 356.345 21.4998 356.405 21.4489C356.466 21.3981 356.541 21.3202 356.627 21.2066L358.219 22.4173ZM355.36 23.247C354.839 22.9462 354.149 22.5031 353.379 22.0132L354.453 20.3256C355.247 20.831 355.887 21.2417 356.36 21.5149L355.36 23.247ZM349.504 19.6808C348.185 18.9566 346.812 18.2956 345.492 17.8405L346.144 15.9497C347.612 16.4557 349.094 17.1742 350.466 17.9276L349.504 19.6808ZM341.495 17.294C340.889 17.4044 340.37 17.6413 339.934 18.0279L338.607 16.5314C339.349 15.8732 340.216 15.4939 341.138 15.3263L341.495 17.294ZM339.934 18.0279C339.521 18.394 339.199 18.7661 338.942 19.1412L337.293 18.0099C337.643 17.4985 338.074 17.0041 338.607 16.5314L339.934 18.0279ZM337.838 21.9956C337.616 23.0347 337.436 24.331 336.985 25.5163L335.115 24.805C335.494 23.8113 335.617 22.8198 335.882 21.5784L337.838 21.9956ZM334.655 28.7122C334.192 29.0846 333.658 29.4345 333.043 29.7615L332.104 27.9955C332.621 27.7211 333.047 27.4388 333.403 27.1531L334.655 28.7122ZM333.043 29.7615C332.546 30.026 331.858 30.281 331.051 30.5317L330.458 28.6217C331.233 28.3809 331.776 28.1699 332.104 27.9955L333.043 29.7615ZM327.161 31.551C325.993 31.8222 324.696 32.1039 323.295 32.3953L322.888 30.4372C324.279 30.1479 325.56 29.8695 326.708 29.6029L327.161 31.551ZM319.419 33.1779C318.175 33.4231 316.878 33.6743 315.542 33.9311L315.164 31.967C316.499 31.7105 317.792 31.46 319.032 31.2157L319.419 33.1779ZM311.676 34.6702C310.405 34.9127 309.111 35.1595 307.803 35.4104L307.426 33.4463C308.735 33.1951 310.03 32.9481 311.301 32.7056L311.676 34.6702ZM303.939 36.1578C302.653 36.4089 301.363 36.6635 300.077 36.9216L299.684 34.9607C300.973 34.7018 302.267 34.4464 303.555 34.1948L303.939 36.1578ZM296.224 37.7097C294.925 37.9809 293.641 38.2553 292.38 38.5327L291.95 36.5794C293.219 36.3003 294.511 36.0244 295.815 35.7519L296.224 37.7097ZM288.557 39.4016C287.242 39.7115 285.967 40.0245 284.744 40.34L284.244 38.4035C285.482 38.0839 286.771 37.7675 288.099 37.4549L288.557 39.4016ZM280.973 41.3746C279.63 41.7687 278.39 42.1649 277.276 42.5623L276.604 40.6784C277.763 40.2653 279.04 39.8575 280.41 39.4555L280.973 41.3746ZM273.77 44.0332C273.145 44.3557 272.644 44.6661 272.265 44.9602L271.039 43.3806C271.544 42.988 272.158 42.6142 272.852 42.2559L273.77 44.0332ZM272.265 44.9602C271.779 45.3377 271.27 45.6924 270.742 46.0251L269.676 44.3331C270.152 44.033 270.607 43.7155 271.039 43.3806L272.265 44.9602ZM267.477 47.7219C266.364 48.1958 265.208 48.5972 264.033 48.9292L263.489 47.0046C264.589 46.6936 265.665 46.3198 266.693 45.8819L267.477 47.7219ZM260.486 49.7193C259.272 49.9211 258.06 50.0544 256.877 50.1216L256.764 48.1249C257.875 48.0617 259.015 47.9363 260.159 47.7463L260.486 49.7193ZM253.233 50.1148C251.928 50.0303 250.694 49.8541 249.579 49.5861L250.046 47.6415C251.033 47.8786 252.152 48.0405 253.362 48.1189L253.233 50.1148ZM246.004 48.1239C245.383 47.7038 244.85 47.1966 244.475 46.5896L246.177 45.5387C246.369 45.8493 246.676 46.1642 247.124 46.4667L246.004 48.1239ZM244.475 46.5896C244.133 46.0355 243.844 45.4181 243.584 44.7889L245.432 44.0243C245.673 44.6065 245.914 45.1139 246.177 45.5387L244.475 46.5896ZM242.259 41.3207C241.8 40.1903 241.292 39.1607 240.63 38.3263L242.197 37.0834C243.034 38.1391 243.627 39.3746 244.112 40.5675L242.259 41.3207ZM238.133 36.5405C237.295 36.2694 236.244 36.163 234.899 36.334L234.647 34.35C236.226 34.1492 237.581 34.2596 238.749 34.6376L238.133 36.5405ZM231.522 37.1732C230.991 37.3581 230.432 37.5735 229.842 37.8219L229.065 35.9789C229.691 35.7154 230.29 35.4844 230.864 35.2844L231.522 37.1732ZM229.842 37.8219C229.349 38.0298 228.738 38.2739 228.02 38.5505L227.301 36.6844C228.008 36.4119 228.598 36.1759 229.065 35.9789L229.842 37.8219ZM224.331 39.9235C223.202 40.3332 221.951 40.7805 220.591 41.2613L219.924 39.3755C221.281 38.8963 222.526 38.4509 223.649 38.0435L224.331 39.9235ZM216.891 42.5573C215.707 42.9685 214.466 43.3976 213.17 43.8426L212.52 41.9511C213.814 41.5068 215.053 41.0785 216.234 40.6681L216.891 42.5573ZM209.438 45.119C208.238 45.5278 207.001 45.9472 205.733 46.3761L205.092 44.4814C206.359 44.053 207.594 43.634 208.793 43.2257L209.438 45.119ZM202.019 47.6276C200.8 48.0372 199.556 48.4538 198.292 48.8765L197.658 46.9796C198.922 46.5572 200.164 46.141 201.382 45.7318L202.019 47.6276ZM194.552 50.123C193.322 50.5319 192.076 50.9455 190.815 51.3629L190.186 49.4643C191.446 49.0471 192.692 48.6338 193.921 48.2252L194.552 50.123ZM187.094 52.5921C185.859 52.9992 184.613 53.4092 183.358 53.8213L182.734 51.9211C183.988 51.5092 185.234 51.0995 186.468 50.6927L187.094 52.5921ZM179.614 55.0482C178.377 55.4529 177.133 55.859 175.884 56.2659L175.264 54.3643C176.512 53.9577 177.756 53.5518 178.992 53.1473L179.614 55.0482ZM172.145 57.4819C170.9 57.8861 169.653 58.2904 168.404 58.6942L167.789 56.7913C169.036 56.3877 170.283 55.9836 171.528 55.5797L172.145 57.4819ZM164.664 59.9015C163.415 60.3042 162.166 60.7057 160.92 61.1056L160.309 59.2013C161.554 58.8016 162.802 58.4003 164.051 57.9978L164.664 59.9015ZM157.179 62.3037C155.925 62.7045 154.676 63.1029 153.434 63.4982L152.827 61.5924C154.069 61.1973 155.317 60.7992 156.57 60.3986L157.179 62.3037ZM149.681 64.6899C148.423 65.0886 147.174 65.4833 145.936 65.8735L145.335 63.966C146.571 63.5761 147.82 63.1817 149.077 62.7833L149.681 64.6899ZM142.196 67.0493C140.925 67.4479 139.669 67.8406 138.43 68.2267L137.835 66.3173C139.072 65.9316 140.328 65.5391 141.598 65.1409L142.196 67.0493ZM134.67 69.3945C133.396 69.7887 132.145 70.1744 130.919 70.5508L130.332 68.6389C131.556 68.263 132.806 67.8777 134.078 67.4839L134.67 69.3945ZM127.176 71.6947C125.884 72.0874 124.627 72.4674 123.409 72.8336L122.833 70.9182C124.05 70.5527 125.304 70.1733 126.594 69.7812L127.176 71.6947ZM119.63 73.9606C118.312 74.3506 117.052 74.7199 115.855 75.0665L115.298 73.1454C116.491 72.8 117.748 72.4318 119.063 72.0428L119.63 73.9606ZM112.09 76.1402C110.669 76.5381 109.378 76.8902 108.231 77.1912L107.723 75.2568C108.857 74.9592 110.137 74.6101 111.55 74.2144L112.09 76.1402ZM104.373 78.1279C103.474 78.3169 102.714 78.4432 102.242 78.4273L102.31 76.4285C102.499 76.4349 103.022 76.3682 103.961 76.1707L104.373 78.1279ZM102.242 78.4273C101.575 78.4049 100.954 78.3759 100.385 78.329L100.55 76.3358C101.071 76.3787 101.655 76.4064 102.31 76.4285L102.242 78.4273ZM96.3591 76.8359C95.4723 75.761 95.4978 74.2513 95.901 72.4924L97.8504 72.9393C97.4647 74.6219 97.6599 75.2699 97.9018 75.5631L96.3591 76.8359ZM97.018 68.9212C97.2156 68.3841 97.4344 67.8135 97.674 67.2076L99.5339 67.943C99.299 68.5371 99.086 69.0926 98.8948 69.612L97.018 68.9212ZM97.674 67.2076C97.9058 66.6212 98.0961 66.0364 98.247 65.4565L100.183 65.9602C100.011 66.6194 99.7954 67.2815 99.5339 67.943L97.674 67.2076ZM98.6988 61.8354C98.6837 60.5699 98.4834 59.3676 98.1266 58.2676L100.029 57.6506C100.45 58.9479 100.681 60.3506 100.699 61.8116L98.6988 61.8354ZM96.4696 55.1224C95.7258 54.1796 94.8241 53.4203 93.8033 52.8911L94.7239 51.1155C96.0137 51.7843 97.132 52.7331 98.0397 53.8835L96.4696 55.1224ZM90.4637 52.0357C89.9003 52.0196 89.3132 52.0606 88.705 52.1657L88.3643 50.195C89.0999 50.0678 89.8203 50.0165 90.5209 50.0365L90.4637 52.0357ZM88.705 52.1657C88.154 52.261 87.5717 52.4232 86.9527 52.6446L86.2793 50.7614C86.9778 50.5116 87.6736 50.3143 88.3643 50.195L88.705 52.1657ZM83.4449 54.2421C82.3133 54.8284 81.1914 55.4449 79.9238 56.1102L78.9944 54.3393C80.1903 53.7116 81.4151 53.0413 82.5248 52.4663L83.4449 54.2421ZM76.2837 57.8973C75.0674 58.4407 73.7917 58.9461 72.4543 59.3685L71.852 57.4614C73.1014 57.0668 74.3048 56.5909 75.4679 56.0712L76.2837 57.8973ZM68.4237 60.3169C67.092 60.5191 65.7076 60.6162 64.2684 60.5746L64.3262 58.5754C65.6376 58.6133 66.902 58.5251 68.1235 58.3396L68.4237 60.3169ZM60.1326 60.0765C58.8454 59.8036 57.523 59.4132 56.1639 58.8879L56.885 57.0224C58.1474 57.5104 59.3675 57.8698 60.5475 58.12L60.1326 60.0765ZM52.4254 57.1404C51.8411 56.8203 51.2506 56.4751 50.6538 56.1034L51.7109 54.4057C52.2771 54.7582 52.8354 55.0846 53.3862 55.3862L52.4254 57.1404ZM50.6538 56.1034C50.0389 55.7206 49.4514 55.3525 48.8898 54.9986L49.9561 53.3066C50.5145 53.6585 51.0989 54.0246 51.7109 54.4057L50.6538 56.1034ZM45.3828 52.754C44.0449 51.8822 42.9059 51.1191 41.9275 50.4445L43.0628 48.7979C44.0246 49.4611 45.1488 50.2144 46.4747 51.0784L45.3828 52.754ZM38.5302 47.9783C36.9561 46.7555 36.1244 45.9526 35.3372 45.222L36.6978 43.7561C37.4897 44.4911 38.2616 45.237 39.7572 46.3989L38.5302 47.9783ZM32.2237 42.743C31.7402 42.413 31.1794 42.0456 30.5167 41.6282L31.5825 39.9359C32.2622 40.364 32.844 40.7449 33.3512 41.0912L32.2237 42.743ZM30.5167 41.6282C29.9787 41.2894 29.4971 41.0623 29.07 40.9248L29.6831 39.021C30.3005 39.2199 30.9337 39.5272 31.5825 39.9359L30.5167 41.6282ZM26.5871 41.3527C26.0065 41.8794 25.4772 42.7821 25.0561 44.1007L23.1509 43.4922C23.6253 42.0066 24.2966 40.7302 25.2433 39.8714L26.5871 41.3527ZM24.3435 47.5474C24.2064 48.6522 24.1233 49.86 24.0931 51.1517L22.0937 51.1049C22.1251 49.7583 22.2121 48.4829 22.3587 47.3011L24.3435 47.5474ZM24.1376 54.7915C24.1898 55.9695 24.2773 57.1894 24.3986 58.4394L22.408 58.6326C22.2835 57.3503 22.1935 56.0954 22.1396 54.88L24.1376 54.7915ZM24.8354 62.0763C24.921 62.6777 25.0136 63.283 25.1131 63.8909L23.1393 64.2137C23.0377 63.5923 22.943 62.9734 22.8554 62.3582L24.8354 62.0763ZM25.1131 63.8909C25.2297 64.6041 25.3535 65.3059 25.4819 65.9966L23.5156 66.3622C23.3849 65.6593 23.2586 64.9431 23.1393 64.2137L25.1131 63.8909ZM26.3281 70.198C26.6379 71.6587 26.947 73.0762 27.2199 74.4287L25.2594 74.8243C24.9891 73.4847 24.6847 72.0891 24.3716 70.613L26.3281 70.198ZM27.9631 78.7468C28.1653 80.3114 28.2603 81.8111 28.1745 83.2357L26.1781 83.1154C26.2538 81.8578 26.172 80.4919 25.9796 79.003L27.9631 78.7468ZM27.0865 87.7685C26.4452 89.1305 25.5031 90.3652 24.1998 91.4738L22.904 89.9504C24.0036 89.0151 24.7644 88.0053 25.2771 86.9165L27.0865 87.7685ZM20.3403 93.8993C19.6969 94.2045 19.0077 94.4962 18.2706 94.7749L17.5633 92.9041C18.2546 92.6428 18.8933 92.3721 19.4831 92.0923L20.3403 93.8993ZM18.2706 94.7749C17.6258 95.0187 16.9939 95.2116 16.3752 95.3554L15.9222 93.4074C16.4494 93.2848 16.9963 93.1185 17.5633 92.9041L18.2706 94.7749ZM12.3746 95.5997C10.9764 95.4267 9.69496 94.9742 8.53549 94.3026L9.53792 92.572C10.4771 93.116 11.5026 93.4765 12.6202 93.6148L12.3746 95.5997ZM5.47548 91.7492C4.63467 90.7945 3.89878 89.7088 3.2636 88.5396L5.02101 87.5849C5.59584 88.643 6.24888 89.6013 6.97641 90.4274L5.47548 91.7492ZM1.72229 85.0222C1.30698 83.8308 0.970675 82.5955 0.712229 81.348L2.67064 80.9423C2.91256 82.1099 3.22621 83.2605 3.61085 84.3639L1.72229 85.0222ZM0.168016 77.5859C0.0599636 76.2896 0.0350237 75.0081 0.0938926 73.7764L2.09161 73.8719C2.03713 75.0117 2.05991 76.2057 2.1611 77.4197L0.168016 77.5859ZM0.588969 69.9588C0.737344 69.299 0.918239 68.6675 1.13305 68.0733L3.01392 68.7532C2.8308 69.2597 2.6724 69.8099 2.54023 70.3976L0.588969 69.9588ZM1.13305 68.0733C1.34119 67.4975 1.5639 66.8352 1.80274 66.0956L3.70597 66.7102C3.46335 67.4615 3.23285 68.1476 3.01392 68.7532L1.13305 68.0733ZM3.05803 62.0617C3.44653 60.7933 3.86493 59.4267 4.31484 57.9952L6.22283 58.5948C5.77546 60.0183 5.35915 61.378 4.97035 62.6474L3.05803 62.0617ZM5.6262 53.9397C6.06813 52.617 6.53591 51.2648 7.0312 49.9031L8.91074 50.5867C8.42249 51.9291 7.96052 53.2643 7.52313 54.5735L5.6262 53.9397ZM8.56301 45.9033C9.10038 44.5745 9.66601 43.2537 10.2616 41.9595L12.0784 42.7955C11.4977 44.0575 10.9444 45.3492 10.4171 46.6531L8.56301 45.9033ZM12.1802 38.0996C12.8795 36.8029 13.616 35.5546 14.392 34.3777L16.0617 35.4786C15.3229 36.5991 14.6163 37.7959 13.9405 39.0489L12.1802 38.0996ZM17.0198 30.8749C18.0231 29.7148 19.0894 28.6767 20.2238 27.8021L21.445 29.3859C20.4353 30.1645 19.4648 31.1052 18.5326 32.1831L17.0198 30.8749ZM24.1758 25.5811C24.8989 25.3179 25.644 25.1212 26.4109 24.9984L26.727 26.9733C26.0905 27.0752 25.4685 27.2389 24.86 27.4605L24.1758 25.5811Z" fill="#9F9F9F"/>
</svg>
