<svg width="20" height="60" viewBox="0 0 20 60" fill="none" xmlns="http://www.w3.org/2000/svg">
<path fill-rule="evenodd" clip-rule="evenodd" d="M7.42723 0.0959781C6.92783 -0.139851 6.33181 0.0738177 6.09598 0.57322C5.86015 1.07262 6.07382 1.66865 6.57322 1.90448C9.08296 3.08963 12.3034 7.19572 12.4504 16.1292C12.5616 22.8934 10.8959 32.3146 5.89384 45.0156C5.79884 41.3189 5.26379 37.4666 3.9287 34.1288C3.72359 33.6161 3.14162 33.3666 2.62884 33.5717C2.11605 33.7769 1.86664 34.3588 2.07175 34.8716C3.59904 38.6898 4.01549 43.367 3.88815 47.721C3.86386 48.5517 3.81988 49.3674 3.76069 50.1591C2.6663 52.6759 1.45011 55.3083 0.102164 58.0604C-0.140768 58.5563 0.0643731 59.1554 0.560359 59.3983C1.05635 59.6412 1.65536 59.4361 1.89829 58.9401C2.20604 58.3118 2.5071 57.6894 2.80156 57.073C2.71029 57.5056 2.61898 57.9021 2.53008 58.2577C2.39614 58.7935 2.7219 59.3364 3.25769 59.4704C3.786 59.6024 4.32125 59.2876 4.46451 58.7651C4.46484 58.7646 4.46558 58.763 4.46681 58.7604C4.47329 58.7467 4.49349 58.704 4.54047 58.6265C4.61337 58.5062 4.72276 58.3473 4.87338 58.1482C5.174 57.751 5.60058 57.2443 6.1335 56.6477C7.19703 55.4571 8.63864 53.9593 10.2342 52.3555C13.4226 49.1504 17.1881 45.5594 19.6825 43.2313C20.0863 42.8544 20.1081 42.2217 19.7313 41.8179C19.3544 41.4142 18.7217 41.3923 18.3179 41.7692C15.8124 44.1077 12.0278 47.7167 8.81629 50.945C7.50093 52.2672 6.27535 53.5318 5.27087 54.6225C5.4538 53.4057 5.61433 52.0653 5.72871 50.6478C12.3666 35.3012 14.5811 24.0647 14.4501 16.0963C14.297 6.78807 10.9175 1.74416 7.42723 0.0959781Z" fill="white"/>
</svg>
